<ttFont>
    <TTGlyph name="A" xMin="43" yMin="0" xMax="1278" yMax="1366">
      <contour>
        <pt x="43" y="0" on="1"/>
        <pt x="588" y="1366" on="1"/>
        <pt x="735" y="1366" on="1"/>
        <pt x="1278" y="0" on="1"/>
        <pt x="1120" y="0" on="1"/>
        <pt x="956" y="426" on="1"/>
        <pt x="367" y="426" on="1"/>
        <pt x="203" y="0" on="1"/>
      </contour>
      <contour>
        <pt x="422" y="567" on="1"/>
        <pt x="901" y="567" on="1"/>
        <pt x="662" y="1192" on="1"/>
      </contour>
    </TTGlyph>
    <TTGlyph name="AE" xMin="51" yMin="0" xMax="1817" yMax="1366">
      <contour>
        <pt x="51" y="0" on="1"/>
        <pt x="862" y="1366" on="1"/>
        <pt x="1817" y="1366" on="1"/>
        <pt x="1817" y="1225" on="1"/>
        <pt x="1126" y="1225" on="1"/>
        <pt x="1126" y="754" on="1"/>
        <pt x="1733" y="754" on="1"/>
        <pt x="1733" y="610" on="1"/>
        <pt x="1126" y="610" on="1"/>
        <pt x="1126" y="141" on="1"/>
        <pt x="1817" y="141" on="1"/>
        <pt x="1817" y="0" on="1"/>
        <pt x="979" y="0" on="1"/>
        <pt x="979" y="428" on="1"/>
        <pt x="473" y="428" on="1"/>
        <pt x="221" y="0" on="1"/>
      </contour>
      <contour>
        <pt x="559" y="575" on="1"/>
        <pt x="979" y="575" on="1"/>
        <pt x="979" y="1219" on="1"/>
        <pt x="934" y="1219" on="1"/>
      </contour>
    </TTGlyph>
    <TTGlyph name="Aacute" xMin="43" yMin="0" xMax="1278" yMax="1718">
      <contour>
        <pt x="43" y="0" on="1"/>
        <pt x="588" y="1366" on="1"/>
        <pt x="735" y="1366" on="1"/>
        <pt x="1278" y="0" on="1"/>
        <pt x="1120" y="0" on="1"/>
        <pt x="956" y="426" on="1"/>
        <pt x="367" y="426" on="1"/>
        <pt x="203" y="0" on="1"/>
      </contour>
      <contour>
        <pt x="422" y="567" on="1"/>
        <pt x="901" y="567" on="1"/>
        <pt x="662" y="1192" on="1"/>
      </contour>
      <contour>
        <pt x="614" y="1483" on="1"/>
        <pt x="731" y="1718" on="1"/>
        <pt x="883" y="1718" on="1"/>
        <pt x="713" y="1483" on="1"/>
      </contour>
    </TTGlyph>
    <TTGlyph name="Acircumflex" xMin="43" yMin="0" xMax="1278" yMax="1731">
      <contour>
        <pt x="43" y="0" on="1"/>
        <pt x="588" y="1366" on="1"/>
        <pt x="735" y="1366" on="1"/>
        <pt x="1278" y="0" on="1"/>
        <pt x="1120" y="0" on="1"/>
        <pt x="956" y="426" on="1"/>
        <pt x="367" y="426" on="1"/>
        <pt x="203" y="0" on="1"/>
      </contour>
      <contour>
        <pt x="422" y="567" on="1"/>
        <pt x="901" y="567" on="1"/>
        <pt x="662" y="1192" on="1"/>
      </contour>
      <contour>
        <pt x="455" y="1483" on="1"/>
        <pt x="618" y="1731" on="1"/>
        <pt x="705" y="1731" on="1"/>
        <pt x="868" y="1483" on="1"/>
        <pt x="754" y="1483" on="1"/>
        <pt x="662" y="1628" on="1"/>
        <pt x="569" y="1483" on="1"/>
      </contour>
    </TTGlyph>
    <TTGlyph name="Adieresis" xMin="43" yMin="0" xMax="1278" yMax="1647">
      <contour>
        <pt x="43" y="0" on="1"/>
        <pt x="588" y="1366" on="1"/>
        <pt x="735" y="1366" on="1"/>
        <pt x="1278" y="0" on="1"/>
        <pt x="1120" y="0" on="1"/>
        <pt x="956" y="426" on="1"/>
        <pt x="367" y="426" on="1"/>
        <pt x="203" y="0" on="1"/>
      </contour>
      <contour>
        <pt x="422" y="567" on="1"/>
        <pt x="901" y="567" on="1"/>
        <pt x="662" y="1192" on="1"/>
      </contour>
      <contour>
        <pt x="428" y="1483" on="1"/>
        <pt x="428" y="1647" on="1"/>
        <pt x="592" y="1647" on="1"/>
        <pt x="592" y="1483" on="1"/>
      </contour>
      <contour>
        <pt x="731" y="1483" on="1"/>
        <pt x="731" y="1647" on="1"/>
        <pt x="895" y="1647" on="1"/>
        <pt x="895" y="1483" on="1"/>
      </contour>
    </TTGlyph>
    <TTGlyph name="Agrave" xMin="43" yMin="0" xMax="1278" yMax="1718">
      <contour>
        <pt x="43" y="0" on="1"/>
        <pt x="588" y="1366" on="1"/>
        <pt x="735" y="1366" on="1"/>
        <pt x="1278" y="0" on="1"/>
        <pt x="1120" y="0" on="1"/>
        <pt x="956" y="426" on="1"/>
        <pt x="367" y="426" on="1"/>
        <pt x="203" y="0" on="1"/>
      </contour>
      <contour>
        <pt x="422" y="567" on="1"/>
        <pt x="901" y="567" on="1"/>
        <pt x="662" y="1192" on="1"/>
      </contour>
      <contour>
        <pt x="438" y="1718" on="1"/>
        <pt x="590" y="1718" on="1"/>
        <pt x="707" y="1483" on="1"/>
        <pt x="608" y="1483" on="1"/>
      </contour>
    </TTGlyph>
    <TTGlyph name="Aring" xMin="43" yMin="0" xMax="1278" yMax="1759">
      <contour>
        <pt x="43" y="0" on="1"/>
        <pt x="588" y="1366" on="1"/>
        <pt x="735" y="1366" on="1"/>
        <pt x="1278" y="0" on="1"/>
        <pt x="1120" y="0" on="1"/>
        <pt x="956" y="426" on="1"/>
        <pt x="367" y="426" on="1"/>
        <pt x="203" y="0" on="1"/>
      </contour>
      <contour>
        <pt x="422" y="567" on="1"/>
        <pt x="901" y="567" on="1"/>
        <pt x="662" y="1192" on="1"/>
      </contour>
      <contour>
        <pt x="496" y="1509" on="0"/>
        <pt x="496" y="1673" on="0"/>
        <pt x="582" y="1759" on="0"/>
        <pt x="741" y="1759" on="0"/>
        <pt x="827" y="1673" on="0"/>
        <pt x="827" y="1509" on="0"/>
        <pt x="741" y="1423" on="0"/>
        <pt x="582" y="1423" on="0"/>
      </contour>
      <contour>
        <pt x="569" y="1645" on="0"/>
        <pt x="569" y="1538" on="0"/>
        <pt x="611" y="1493" on="0"/>
        <pt x="662" y="1493" on="1"/>
        <pt x="711" y="1493" on="0"/>
        <pt x="754" y="1538" on="0"/>
        <pt x="754" y="1645" on="0"/>
        <pt x="711" y="1692" on="0"/>
        <pt x="662" y="1692" on="1"/>
        <pt x="611" y="1692" on="0"/>
      </contour>
    </TTGlyph>
    <TTGlyph name="Atilde" xMin="43" yMin="0" xMax="1278" yMax="1674">
      <contour>
        <pt x="43" y="0" on="1"/>
        <pt x="588" y="1366" on="1"/>
        <pt x="735" y="1366" on="1"/>
        <pt x="1278" y="0" on="1"/>
        <pt x="1120" y="0" on="1"/>
        <pt x="956" y="426" on="1"/>
        <pt x="367" y="426" on="1"/>
        <pt x="203" y="0" on="1"/>
      </contour>
      <contour>
        <pt x="373" y="1485" on="1"/>
        <pt x="373" y="1602" on="1"/>
        <pt x="426" y="1668" on="0"/>
        <pt x="488" y="1674" on="1"/>
        <pt x="497" y="1674" on="0"/>
        <pt x="507" y="1674" on="1"/>
        <pt x="558" y="1674" on="0"/>
        <pt x="604" y="1650" on="1"/>
        <pt x="716" y="1590" on="1"/>
        <pt x="762" y="1566" on="0"/>
        <pt x="813" y="1566" on="1"/>
        <pt x="823" y="1566" on="0"/>
        <pt x="834" y="1567" on="1"/>
        <pt x="895" y="1573" on="0"/>
        <pt x="948" y="1638" on="1"/>
        <pt x="948" y="1526" on="1"/>
        <pt x="895" y="1460" on="0"/>
        <pt x="834" y="1453" on="1"/>
        <pt x="822" y="1452" on="0"/>
        <pt x="810" y="1452" on="1"/>
        <pt x="761" y="1452" on="0"/>
        <pt x="716" y="1476" on="1"/>
        <pt x="604" y="1535" on="1"/>
        <pt x="560" y="1559" on="0"/>
        <pt x="512" y="1559" on="1"/>
        <pt x="500" y="1559" on="0"/>
        <pt x="488" y="1558" on="1"/>
        <pt x="426" y="1550" on="0"/>
      </contour>
      <contour>
        <pt x="422" y="567" on="1"/>
        <pt x="901" y="567" on="1"/>
        <pt x="662" y="1192" on="1"/>
      </contour>
    </TTGlyph>
    <TTGlyph name="B" xMin="178" yMin="0" xMax="1167" yMax="1366">
      <contour>
        <pt x="178" y="0" on="1"/>
        <pt x="178" y="1366" on="1"/>
        <pt x="631" y="1366" on="1"/>
        <pt x="1085" y="1366" on="0"/>
        <pt x="1085" y="1001" on="1"/>
        <pt x="1085" y="944" on="0"/>
        <pt x="1055" y="846" on="0"/>
        <pt x="1012" y="788" on="0"/>
        <pt x="971" y="745" on="0"/>
        <pt x="954" y="737" on="1"/>
        <pt x="940" y="727" on="1"/>
        <pt x="950" y="725" on="0"/>
        <pt x="979" y="713" on="0"/>
        <pt x="1059" y="659" on="0"/>
        <pt x="1118" y="590" on="0"/>
        <pt x="1167" y="463" on="0"/>
        <pt x="1167" y="387" on="1"/>
        <pt x="1167" y="0" on="0"/>
        <pt x="672" y="0" on="1"/>
      </contour>
      <contour>
        <pt x="326" y="137" on="1"/>
        <pt x="684" y="137" on="1"/>
        <pt x="840" y="137" on="0"/>
        <pt x="1020" y="246" on="0"/>
        <pt x="1020" y="395" on="1"/>
        <pt x="1020" y="458" on="0"/>
        <pt x="977" y="549" on="0"/>
        <pt x="915" y="600" on="0"/>
        <pt x="817" y="627" on="0"/>
        <pt x="733" y="635" on="0"/>
        <pt x="678" y="635" on="1"/>
        <pt x="326" y="635" on="1"/>
      </contour>
      <contour>
        <pt x="326" y="774" on="1"/>
        <pt x="664" y="774" on="1"/>
        <pt x="789" y="774" on="0"/>
        <pt x="938" y="860" on="0"/>
        <pt x="938" y="989" on="1"/>
        <pt x="938" y="1122" on="0"/>
        <pt x="793" y="1225" on="0"/>
        <pt x="645" y="1225" on="1"/>
        <pt x="326" y="1225" on="1"/>
      </contour>
    </TTGlyph>
    <TTGlyph name="C" xMin="125" yMin="-16" xMax="1174" yMax="1384">
      <contour>
        <pt x="125" y="-16" on="0"/>
        <pt x="125" y="1384" on="0"/>
        <pt x="758" y="1384" on="1"/>
        <pt x="977" y="1384" on="0"/>
        <pt x="1174" y="1305" on="1"/>
        <pt x="1174" y="1163" on="1"/>
        <pt x="979" y="1245" on="0"/>
        <pt x="774" y="1245" on="1"/>
        <pt x="514" y="1245" on="0"/>
        <pt x="272" y="975" on="0"/>
        <pt x="272" y="393" on="0"/>
        <pt x="514" y="123" on="0"/>
        <pt x="774" y="123" on="1"/>
        <pt x="983" y="123" on="0"/>
        <pt x="1174" y="203" on="1"/>
        <pt x="1174" y="61" on="1"/>
        <pt x="978" y="-16" on="0"/>
        <pt x="763" y="-16" on="1"/>
        <pt x="760" y="-16" on="0"/>
        <pt x="758" y="-16" on="1"/>
      </contour>
    </TTGlyph>
    <TTGlyph name="Ccedilla" xMin="125" yMin="-244" xMax="1174" yMax="1386">
      <contour>
        <pt x="125" y="686" on="1"/>
        <pt x="125" y="1386" on="0"/>
        <pt x="758" y="1386" on="1"/>
        <pt x="975" y="1386" on="0"/>
        <pt x="1174" y="1309" on="1"/>
        <pt x="1174" y="1167" on="1"/>
        <pt x="987" y="1247" on="0"/>
        <pt x="774" y="1247" on="1"/>
        <pt x="514" y="1247" on="0"/>
        <pt x="272" y="979" on="0"/>
        <pt x="272" y="397" on="0"/>
        <pt x="514" y="127" on="0"/>
        <pt x="774" y="127" on="1"/>
        <pt x="983" y="127" on="0"/>
        <pt x="1174" y="207" on="1"/>
        <pt x="1174" y="66" on="1"/>
        <pt x="1002" y="-2" on="0"/>
        <pt x="817" y="-12" on="1"/>
        <pt x="692" y="-244" on="1"/>
        <pt x="537" y="-244" on="1"/>
        <pt x="700" y="-12" on="1"/>
        <pt x="125" y="23" on="0"/>
      </contour>
    </TTGlyph>
    <TTGlyph name="D" xMin="178" yMin="0" xMax="1247" yMax="1366">
      <contour>
        <pt x="178" y="0" on="1"/>
        <pt x="178" y="1366" on="1"/>
        <pt x="606" y="1366" on="1"/>
        <pt x="1247" y="1366" on="0"/>
        <pt x="1247" y="684" on="1"/>
        <pt x="1247" y="0" on="0"/>
        <pt x="606" y="0" on="1"/>
      </contour>
      <contour>
        <pt x="326" y="139" on="1"/>
        <pt x="596" y="139" on="1"/>
        <pt x="858" y="139" on="0"/>
        <pt x="1100" y="401" on="0"/>
        <pt x="1100" y="967" on="0"/>
        <pt x="858" y="1229" on="0"/>
        <pt x="596" y="1229" on="1"/>
        <pt x="326" y="1229" on="1"/>
      </contour>
    </TTGlyph>
    <TTGlyph name="E" xMin="178" yMin="0" xMax="1040" yMax="1366">
      <contour>
        <pt x="178" y="0" on="1"/>
        <pt x="178" y="1366" on="1"/>
        <pt x="1040" y="1366" on="1"/>
        <pt x="1040" y="1227" on="1"/>
        <pt x="326" y="1227" on="1"/>
        <pt x="326" y="756" on="1"/>
        <pt x="954" y="756" on="1"/>
        <pt x="954" y="612" on="1"/>
        <pt x="326" y="612" on="1"/>
        <pt x="326" y="139" on="1"/>
        <pt x="1040" y="139" on="1"/>
        <pt x="1040" y="0" on="1"/>
      </contour>
    </TTGlyph>
    <TTGlyph name="Eacute" xMin="178" yMin="0" xMax="1040" yMax="1718">
      <contour>
        <pt x="178" y="0" on="1"/>
        <pt x="178" y="1366" on="1"/>
        <pt x="1040" y="1366" on="1"/>
        <pt x="1040" y="1227" on="1"/>
        <pt x="326" y="1227" on="1"/>
        <pt x="326" y="756" on="1"/>
        <pt x="954" y="756" on="1"/>
        <pt x="954" y="612" on="1"/>
        <pt x="326" y="612" on="1"/>
        <pt x="326" y="139" on="1"/>
        <pt x="1040" y="139" on="1"/>
        <pt x="1040" y="0" on="1"/>
      </contour>
      <contour>
        <pt x="565" y="1483" on="1"/>
        <pt x="680" y="1718" on="1"/>
        <pt x="831" y="1718" on="1"/>
        <pt x="662" y="1483" on="1"/>
      </contour>
    </TTGlyph>
    <TTGlyph name="Ecircumflex" xMin="178" yMin="0" xMax="1040" yMax="1731">
      <contour>
        <pt x="178" y="0" on="1"/>
        <pt x="178" y="1366" on="1"/>
        <pt x="1040" y="1366" on="1"/>
        <pt x="1040" y="1227" on="1"/>
        <pt x="326" y="1227" on="1"/>
        <pt x="326" y="756" on="1"/>
        <pt x="954" y="756" on="1"/>
        <pt x="954" y="612" on="1"/>
        <pt x="326" y="612" on="1"/>
        <pt x="326" y="139" on="1"/>
        <pt x="1040" y="139" on="1"/>
        <pt x="1040" y="0" on="1"/>
      </contour>
      <contour>
        <pt x="412" y="1483" on="1"/>
        <pt x="578" y="1731" on="1"/>
        <pt x="662" y="1731" on="1"/>
        <pt x="827" y="1483" on="1"/>
        <pt x="713" y="1483" on="1"/>
        <pt x="621" y="1628" on="1"/>
        <pt x="526" y="1483" on="1"/>
      </contour>
    </TTGlyph>
    <TTGlyph name="Edieresis" xMin="178" yMin="0" xMax="1040" yMax="1647">
      <contour>
        <pt x="178" y="0" on="1"/>
        <pt x="178" y="1366" on="1"/>
        <pt x="1040" y="1366" on="1"/>
        <pt x="1040" y="1227" on="1"/>
        <pt x="326" y="1227" on="1"/>
        <pt x="326" y="756" on="1"/>
        <pt x="954" y="756" on="1"/>
        <pt x="954" y="612" on="1"/>
        <pt x="326" y="612" on="1"/>
        <pt x="326" y="139" on="1"/>
        <pt x="1040" y="139" on="1"/>
        <pt x="1040" y="0" on="1"/>
      </contour>
      <contour>
        <pt x="395" y="1483" on="1"/>
        <pt x="395" y="1647" on="1"/>
        <pt x="557" y="1647" on="1"/>
        <pt x="557" y="1483" on="1"/>
      </contour>
      <contour>
        <pt x="698" y="1483" on="1"/>
        <pt x="698" y="1647" on="1"/>
        <pt x="860" y="1647" on="1"/>
        <pt x="860" y="1483" on="1"/>
      </contour>
    </TTGlyph>
    <TTGlyph name="Egrave" xMin="178" yMin="0" xMax="1040" yMax="1718">
      <contour>
        <pt x="178" y="0" on="1"/>
        <pt x="178" y="1366" on="1"/>
        <pt x="1040" y="1366" on="1"/>
        <pt x="1040" y="1227" on="1"/>
        <pt x="326" y="1227" on="1"/>
        <pt x="326" y="756" on="1"/>
        <pt x="954" y="756" on="1"/>
        <pt x="954" y="612" on="1"/>
        <pt x="326" y="612" on="1"/>
        <pt x="326" y="139" on="1"/>
        <pt x="1040" y="139" on="1"/>
        <pt x="1040" y="0" on="1"/>
      </contour>
      <contour>
        <pt x="444" y="1718" on="1"/>
        <pt x="596" y="1718" on="1"/>
        <pt x="713" y="1483" on="1"/>
        <pt x="614" y="1483" on="1"/>
      </contour>
    </TTGlyph>
    <TTGlyph name="Eth" xMin="109" yMin="0" xMax="1337" yMax="1366">
      <contour>
        <pt x="109" y="621" on="1"/>
        <pt x="109" y="743" on="1"/>
        <pt x="268" y="743" on="1"/>
        <pt x="268" y="1366" on="1"/>
        <pt x="696" y="1366" on="1"/>
        <pt x="1337" y="1366" on="0"/>
        <pt x="1337" y="684" on="1"/>
        <pt x="1337" y="0" on="0"/>
        <pt x="696" y="0" on="1"/>
        <pt x="268" y="0" on="1"/>
        <pt x="268" y="621" on="1"/>
      </contour>
      <contour>
        <pt x="416" y="139" on="1"/>
        <pt x="686" y="139" on="1"/>
        <pt x="948" y="139" on="0"/>
        <pt x="1190" y="401" on="0"/>
        <pt x="1190" y="967" on="0"/>
        <pt x="948" y="1229" on="0"/>
        <pt x="686" y="1229" on="1"/>
        <pt x="416" y="1229" on="1"/>
        <pt x="416" y="743" on="1"/>
        <pt x="766" y="743" on="1"/>
        <pt x="766" y="621" on="1"/>
        <pt x="416" y="621" on="1"/>
      </contour>
    </TTGlyph>
    <TTGlyph name="Euro" xMin="102" yMin="-16" xMax="1282" yMax="1384">
      <contour>
        <pt x="102" y="467" on="1"/>
        <pt x="102" y="590" on="1"/>
        <pt x="238" y="590" on="1"/>
        <pt x="234" y="651" on="0"/>
        <pt x="234" y="684" on="1"/>
        <pt x="233" y="687" on="0"/>
        <pt x="233" y="690" on="1"/>
        <pt x="233" y="723" on="0"/>
        <pt x="238" y="778" on="1"/>
        <pt x="102" y="778" on="1"/>
        <pt x="102" y="901" on="1"/>
        <pt x="252" y="901" on="1"/>
        <pt x="342" y="1384" on="0"/>
        <pt x="866" y="1384" on="1"/>
        <pt x="1081" y="1384" on="0"/>
        <pt x="1282" y="1305" on="1"/>
        <pt x="1282" y="1163" on="1"/>
        <pt x="1088" y="1245" on="0"/>
        <pt x="883" y="1245" on="1"/>
        <pt x="676" y="1245" on="0"/>
        <pt x="440" y="1077" on="0"/>
        <pt x="401" y="901" on="1"/>
        <pt x="1059" y="901" on="1"/>
        <pt x="1059" y="778" on="1"/>
        <pt x="385" y="778" on="1"/>
        <pt x="381" y="717" on="0"/>
        <pt x="381" y="684" on="1"/>
        <pt x="381" y="647" on="0"/>
        <pt x="385" y="590" on="1"/>
        <pt x="1059" y="590" on="1"/>
        <pt x="1059" y="467" on="1"/>
        <pt x="401" y="467" on="1"/>
        <pt x="440" y="291" on="0"/>
        <pt x="676" y="123" on="0"/>
        <pt x="883" y="123" on="1"/>
        <pt x="1092" y="123" on="0"/>
        <pt x="1282" y="203" on="1"/>
        <pt x="1282" y="61" on="1"/>
        <pt x="1082" y="-16" on="0"/>
        <pt x="871" y="-16" on="1"/>
        <pt x="869" y="-16" on="0"/>
        <pt x="866" y="-16" on="1"/>
        <pt x="342" y="-16" on="0"/>
        <pt x="252" y="467" on="1"/>
      </contour>
    </TTGlyph>
    <TTGlyph name="F" xMin="178" yMin="0" xMax="1016" yMax="1366">
      <contour>
        <pt x="178" y="0" on="1"/>
        <pt x="178" y="1366" on="1"/>
        <pt x="1016" y="1366" on="1"/>
        <pt x="1016" y="1227" on="1"/>
        <pt x="326" y="1227" on="1"/>
        <pt x="326" y="756" on="1"/>
        <pt x="932" y="756" on="1"/>
        <pt x="932" y="612" on="1"/>
        <pt x="326" y="612" on="1"/>
        <pt x="326" y="0" on="1"/>
      </contour>
    </TTGlyph>
    <TTGlyph name="G" xMin="125" yMin="-16" xMax="1235" yMax="1384">
      <contour>
        <pt x="125" y="-16" on="0"/>
        <pt x="125" y="1384" on="0"/>
        <pt x="758" y="1384" on="1"/>
        <pt x="985" y="1384" on="0"/>
        <pt x="1188" y="1298" on="1"/>
        <pt x="1188" y="1155" on="1"/>
        <pt x="989" y="1243" on="0"/>
        <pt x="774" y="1243" on="1"/>
        <pt x="514" y="1243" on="0"/>
        <pt x="272" y="973" on="0"/>
        <pt x="272" y="684" on="1"/>
        <pt x="272" y="393" on="0"/>
        <pt x="514" y="125" on="0"/>
        <pt x="774" y="125" on="1"/>
        <pt x="938" y="125" on="0"/>
        <pt x="1087" y="174" on="1"/>
        <pt x="1087" y="600" on="1"/>
        <pt x="758" y="600" on="1"/>
        <pt x="758" y="743" on="1"/>
        <pt x="1235" y="743" on="1"/>
        <pt x="1235" y="90" on="1"/>
        <pt x="1014" y="-16" on="0"/>
        <pt x="758" y="-16" on="1"/>
      </contour>
    </TTGlyph>
    <TTGlyph name="H" xMin="178" yMin="0" xMax="1200" yMax="1366">
      <contour>
        <pt x="178" y="0" on="1"/>
        <pt x="178" y="1366" on="1"/>
        <pt x="326" y="1366" on="1"/>
        <pt x="326" y="754" on="1"/>
        <pt x="1053" y="754" on="1"/>
        <pt x="1053" y="1366" on="1"/>
        <pt x="1200" y="1366" on="1"/>
        <pt x="1200" y="0" on="1"/>
        <pt x="1053" y="0" on="1"/>
        <pt x="1053" y="612" on="1"/>
        <pt x="326" y="612" on="1"/>
        <pt x="326" y="0" on="1"/>
      </contour>
    </TTGlyph>
    <TTGlyph name="I" xMin="178" yMin="0" xMax="326" yMax="1366">
      <contour>
        <pt x="178" y="0" on="1"/>
        <pt x="178" y="1366" on="1"/>
        <pt x="326" y="1366" on="1"/>
        <pt x="326" y="0" on="1"/>
      </contour>
    </TTGlyph>
    <TTGlyph name="Iacute" xMin="178" yMin="0" xMax="471" yMax="1718">
      <contour>
        <pt x="178" y="0" on="1"/>
        <pt x="326" y="0" on="1"/>
        <pt x="326" y="1366" on="1"/>
        <pt x="178" y="1366" on="1"/>
      </contour>
      <contour>
        <pt x="203" y="1483" on="1"/>
        <pt x="319" y="1718" on="1"/>
        <pt x="471" y="1718" on="1"/>
        <pt x="301" y="1483" on="1"/>
      </contour>
    </TTGlyph>
    <TTGlyph name="Icircumflex" xMin="45" yMin="0" xMax="459" yMax="1731">
      <contour>
        <pt x="45" y="1483" on="1"/>
        <pt x="209" y="1731" on="1"/>
        <pt x="295" y="1731" on="1"/>
        <pt x="459" y="1483" on="1"/>
        <pt x="344" y="1483" on="1"/>
        <pt x="252" y="1628" on="1"/>
        <pt x="160" y="1483" on="1"/>
      </contour>
      <contour>
        <pt x="178" y="0" on="1"/>
        <pt x="326" y="0" on="1"/>
        <pt x="326" y="1366" on="1"/>
        <pt x="178" y="1366" on="1"/>
      </contour>
    </TTGlyph>
    <TTGlyph name="Idieresis" xMin="18" yMin="0" xMax="485" yMax="1647">
      <contour>
        <pt x="18" y="1483" on="1"/>
        <pt x="18" y="1647" on="1"/>
        <pt x="182" y="1647" on="1"/>
        <pt x="182" y="1483" on="1"/>
      </contour>
      <contour>
        <pt x="178" y="0" on="1"/>
        <pt x="326" y="0" on="1"/>
        <pt x="326" y="1366" on="1"/>
        <pt x="178" y="1366" on="1"/>
      </contour>
      <contour>
        <pt x="322" y="1483" on="1"/>
        <pt x="322" y="1647" on="1"/>
        <pt x="485" y="1647" on="1"/>
        <pt x="485" y="1483" on="1"/>
      </contour>
    </TTGlyph>
    <TTGlyph name="Igrave" xMin="33" yMin="0" xMax="326" yMax="1718">
      <contour>
        <pt x="33" y="1718" on="1"/>
        <pt x="184" y="1718" on="1"/>
        <pt x="301" y="1483" on="1"/>
        <pt x="203" y="1483" on="1"/>
      </contour>
      <contour>
        <pt x="178" y="0" on="1"/>
        <pt x="178" y="1366" on="1"/>
        <pt x="326" y="1366" on="1"/>
        <pt x="326" y="0" on="1"/>
      </contour>
    </TTGlyph>
    <TTGlyph name="J" xMin="59" yMin="-16" xMax="721" yMax="1366">
      <contour>
        <pt x="59" y="55" on="1"/>
        <pt x="59" y="209" on="1"/>
        <pt x="176" y="127" on="0"/>
        <pt x="311" y="127" on="1"/>
        <pt x="450" y="127" on="0"/>
        <pt x="573" y="264" on="0"/>
        <pt x="573" y="420" on="1"/>
        <pt x="573" y="1366" on="1"/>
        <pt x="721" y="1366" on="1"/>
        <pt x="721" y="408" on="1"/>
        <pt x="721" y="283" on="0"/>
        <pt x="651" y="106" on="0"/>
        <pt x="530" y="20" on="0"/>
        <pt x="403" y="-16" on="0"/>
        <pt x="330" y="-16" on="1"/>
        <pt x="183" y="-16" on="0"/>
      </contour>
    </TTGlyph>
    <TTGlyph name="K" xMin="178" yMin="0" xMax="1204" yMax="1366">
      <contour>
        <pt x="178" y="0" on="1"/>
        <pt x="178" y="1366" on="1"/>
        <pt x="326" y="1366" on="1"/>
        <pt x="326" y="662" on="1"/>
        <pt x="958" y="1366" on="1"/>
        <pt x="1157" y="1366" on="1"/>
        <pt x="571" y="727" on="1"/>
        <pt x="1204" y="0" on="1"/>
        <pt x="1010" y="0" on="1"/>
        <pt x="475" y="623" on="1"/>
        <pt x="326" y="459" on="1"/>
        <pt x="326" y="0" on="1"/>
      </contour>
    </TTGlyph>
    <TTGlyph name="L" xMin="178" yMin="0" xMax="1024" yMax="1366">
      <contour>
        <pt x="178" y="0" on="1"/>
        <pt x="178" y="1366" on="1"/>
        <pt x="326" y="1366" on="1"/>
        <pt x="326" y="143" on="1"/>
        <pt x="1024" y="143" on="1"/>
        <pt x="1024" y="0" on="1"/>
      </contour>
    </TTGlyph>
    <TTGlyph name="M" xMin="178" yMin="0" xMax="1438" yMax="1366">
      <contour>
        <pt x="178" y="0" on="1"/>
        <pt x="178" y="1366" on="1"/>
        <pt x="338" y="1366" on="1"/>
        <pt x="807" y="672" on="1"/>
        <pt x="1278" y="1366" on="1"/>
        <pt x="1438" y="1366" on="1"/>
        <pt x="1438" y="0" on="1"/>
        <pt x="1290" y="0" on="1"/>
        <pt x="1290" y="1124" on="1"/>
        <pt x="807" y="428" on="1"/>
        <pt x="326" y="1124" on="1"/>
        <pt x="326" y="0" on="1"/>
      </contour>
    </TTGlyph>
    <TTGlyph name="N" xMin="178" yMin="0" xMax="1309" yMax="1366">
      <contour>
        <pt x="178" y="0" on="1"/>
        <pt x="178" y="1366" on="1"/>
        <pt x="346" y="1366" on="1"/>
        <pt x="1161" y="215" on="1"/>
        <pt x="1161" y="1366" on="1"/>
        <pt x="1309" y="1366" on="1"/>
        <pt x="1309" y="0" on="1"/>
        <pt x="1143" y="0" on="1"/>
        <pt x="326" y="1151" on="1"/>
        <pt x="326" y="0" on="1"/>
      </contour>
    </TTGlyph>
    <TTGlyph name="Ntilde" xMin="178" yMin="0" xMax="1309" yMax="1674">
      <contour>
        <pt x="178" y="0" on="1"/>
        <pt x="178" y="1366" on="1"/>
        <pt x="346" y="1366" on="1"/>
        <pt x="1161" y="215" on="1"/>
        <pt x="1161" y="1366" on="1"/>
        <pt x="1309" y="1366" on="1"/>
        <pt x="1309" y="0" on="1"/>
        <pt x="1143" y="0" on="1"/>
        <pt x="326" y="1151" on="1"/>
        <pt x="326" y="0" on="1"/>
      </contour>
      <contour>
        <pt x="455" y="1485" on="1"/>
        <pt x="455" y="1602" on="1"/>
        <pt x="508" y="1668" on="0"/>
        <pt x="570" y="1674" on="1"/>
        <pt x="579" y="1674" on="0"/>
        <pt x="589" y="1674" on="1"/>
        <pt x="640" y="1674" on="0"/>
        <pt x="687" y="1650" on="1"/>
        <pt x="800" y="1590" on="1"/>
        <pt x="846" y="1566" on="0"/>
        <pt x="897" y="1566" on="1"/>
        <pt x="907" y="1566" on="0"/>
        <pt x="918" y="1567" on="1"/>
        <pt x="979" y="1573" on="0"/>
        <pt x="1032" y="1638" on="1"/>
        <pt x="1032" y="1526" on="1"/>
        <pt x="979" y="1460" on="0"/>
        <pt x="918" y="1453" on="1"/>
        <pt x="906" y="1452" on="0"/>
        <pt x="894" y="1452" on="1"/>
        <pt x="845" y="1452" on="0"/>
        <pt x="800" y="1476" on="1"/>
        <pt x="687" y="1535" on="1"/>
        <pt x="642" y="1559" on="0"/>
        <pt x="594" y="1559" on="1"/>
        <pt x="582" y="1559" on="0"/>
        <pt x="570" y="1558" on="1"/>
        <pt x="508" y="1550" on="0"/>
      </contour>
    </TTGlyph>
    <TTGlyph name="O" xMin="125" yMin="-16" xMax="1393" yMax="1384">
      <contour>
        <pt x="125" y="-16" on="0"/>
        <pt x="125" y="1384" on="0"/>
        <pt x="758" y="1384" on="1"/>
        <pt x="1393" y="1384" on="0"/>
        <pt x="1393" y="-16" on="0"/>
        <pt x="758" y="-16" on="1"/>
      </contour>
      <contour>
        <pt x="272" y="975" on="0"/>
        <pt x="272" y="393" on="0"/>
        <pt x="506" y="123" on="0"/>
        <pt x="758" y="123" on="1"/>
        <pt x="1012" y="123" on="0"/>
        <pt x="1245" y="393" on="0"/>
        <pt x="1245" y="975" on="0"/>
        <pt x="1012" y="1245" on="0"/>
        <pt x="758" y="1245" on="1"/>
        <pt x="506" y="1245" on="0"/>
      </contour>
    </TTGlyph>
    <TTGlyph name="OE" xMin="123" yMin="-16" xMax="1894" yMax="1384">
      <contour>
        <pt x="123" y="-16" on="0"/>
        <pt x="123" y="1384" on="0"/>
        <pt x="756" y="1384" on="1"/>
        <pt x="916" y="1384" on="0"/>
        <pt x="1030" y="1339" on="1"/>
        <pt x="1030" y="1366" on="1"/>
        <pt x="1894" y="1366" on="1"/>
        <pt x="1894" y="1227" on="1"/>
        <pt x="1178" y="1227" on="1"/>
        <pt x="1178" y="756" on="1"/>
        <pt x="1806" y="756" on="1"/>
        <pt x="1806" y="612" on="1"/>
        <pt x="1178" y="612" on="1"/>
        <pt x="1178" y="139" on="1"/>
        <pt x="1894" y="139" on="1"/>
        <pt x="1894" y="0" on="1"/>
        <pt x="1030" y="0" on="1"/>
        <pt x="1030" y="27" on="1"/>
        <pt x="913" y="-16" on="0"/>
        <pt x="756" y="-16" on="1"/>
      </contour>
      <contour>
        <pt x="270" y="975" on="0"/>
        <pt x="270" y="393" on="0"/>
        <pt x="504" y="123" on="0"/>
        <pt x="756" y="123" on="1"/>
        <pt x="926" y="123" on="0"/>
        <pt x="1030" y="182" on="1"/>
        <pt x="1030" y="1186" on="1"/>
        <pt x="921" y="1245" on="0"/>
        <pt x="756" y="1245" on="1"/>
        <pt x="504" y="1245" on="0"/>
      </contour>
    </TTGlyph>
    <TTGlyph name="Oacute" xMin="125" yMin="-16" xMax="1391" yMax="1718">
      <contour>
        <pt x="125" y="-16" on="0"/>
        <pt x="125" y="1384" on="0"/>
        <pt x="1391" y="1384" on="0"/>
        <pt x="1391" y="-16" on="0"/>
      </contour>
      <contour>
        <pt x="272" y="975" on="0"/>
        <pt x="272" y="393" on="0"/>
        <pt x="506" y="123" on="0"/>
        <pt x="1010" y="123" on="0"/>
        <pt x="1243" y="393" on="0"/>
        <pt x="1243" y="975" on="0"/>
        <pt x="1010" y="1245" on="0"/>
        <pt x="506" y="1245" on="0"/>
      </contour>
      <contour>
        <pt x="686" y="1483" on="1"/>
        <pt x="801" y="1718" on="1"/>
        <pt x="952" y="1718" on="1"/>
        <pt x="782" y="1483" on="1"/>
      </contour>
    </TTGlyph>
    <TTGlyph name="Ocircumflex" xMin="125" yMin="-16" xMax="1391" yMax="1731">
      <contour>
        <pt x="125" y="-16" on="0"/>
        <pt x="125" y="1384" on="0"/>
        <pt x="1391" y="1384" on="0"/>
        <pt x="1391" y="-16" on="0"/>
      </contour>
      <contour>
        <pt x="272" y="975" on="0"/>
        <pt x="272" y="393" on="0"/>
        <pt x="506" y="123" on="0"/>
        <pt x="1010" y="123" on="0"/>
        <pt x="1243" y="393" on="0"/>
        <pt x="1243" y="975" on="0"/>
        <pt x="1010" y="1245" on="0"/>
        <pt x="506" y="1245" on="0"/>
      </contour>
      <contour>
        <pt x="551" y="1483" on="1"/>
        <pt x="715" y="1731" on="1"/>
        <pt x="801" y="1731" on="1"/>
        <pt x="965" y="1483" on="1"/>
        <pt x="850" y="1483" on="1"/>
        <pt x="758" y="1628" on="1"/>
        <pt x="666" y="1483" on="1"/>
      </contour>
    </TTGlyph>
    <TTGlyph name="Odieresis" xMin="125" yMin="-16" xMax="1391" yMax="1647">
      <contour>
        <pt x="125" y="-16" on="0"/>
        <pt x="125" y="1384" on="0"/>
        <pt x="1391" y="1384" on="0"/>
        <pt x="1391" y="-16" on="0"/>
      </contour>
      <contour>
        <pt x="272" y="975" on="0"/>
        <pt x="272" y="393" on="0"/>
        <pt x="506" y="123" on="0"/>
        <pt x="1010" y="123" on="0"/>
        <pt x="1243" y="393" on="0"/>
        <pt x="1243" y="975" on="0"/>
        <pt x="1010" y="1245" on="0"/>
        <pt x="506" y="1245" on="0"/>
      </contour>
      <contour>
        <pt x="524" y="1483" on="1"/>
        <pt x="524" y="1647" on="1"/>
        <pt x="688" y="1647" on="1"/>
        <pt x="688" y="1483" on="1"/>
      </contour>
      <contour>
        <pt x="827" y="1483" on="1"/>
        <pt x="827" y="1647" on="1"/>
        <pt x="991" y="1647" on="1"/>
        <pt x="991" y="1483" on="1"/>
      </contour>
    </TTGlyph>
    <TTGlyph name="Ograve" xMin="125" yMin="-16" xMax="1391" yMax="1718">
      <contour>
        <pt x="125" y="-16" on="0"/>
        <pt x="125" y="1384" on="0"/>
        <pt x="1391" y="1384" on="0"/>
        <pt x="1391" y="-16" on="0"/>
      </contour>
      <contour>
        <pt x="272" y="975" on="0"/>
        <pt x="272" y="393" on="0"/>
        <pt x="506" y="123" on="0"/>
        <pt x="1010" y="123" on="0"/>
        <pt x="1243" y="393" on="0"/>
        <pt x="1243" y="975" on="0"/>
        <pt x="1010" y="1245" on="0"/>
        <pt x="506" y="1245" on="0"/>
      </contour>
      <contour>
        <pt x="563" y="1718" on="1"/>
        <pt x="713" y="1718" on="1"/>
        <pt x="829" y="1483" on="1"/>
        <pt x="733" y="1483" on="1"/>
      </contour>
    </TTGlyph>
    <TTGlyph name="Oslash" xMin="102" yMin="-18" xMax="1415" yMax="1384">
      <contour>
        <pt x="102" y="0" on="1"/>
        <pt x="260" y="188" on="1"/>
        <pt x="125" y="360" on="0"/>
        <pt x="125" y="684" on="1"/>
        <pt x="125" y="1384" on="0"/>
        <pt x="758" y="1384" on="1"/>
        <pt x="1014" y="1384" on="0"/>
        <pt x="1169" y="1266" on="1"/>
        <pt x="1255" y="1366" on="1"/>
        <pt x="1415" y="1366" on="1"/>
        <pt x="1255" y="1178" on="1"/>
        <pt x="1392" y="1004" on="0"/>
        <pt x="1393" y="684" on="1"/>
        <pt x="1393" y="-18" on="0"/>
        <pt x="758" y="-18" on="1"/>
        <pt x="504" y="-18" on="0"/>
        <pt x="348" y="100" on="1"/>
        <pt x="262" y="0" on="1"/>
      </contour>
      <contour>
        <pt x="272" y="684" on="1"/>
        <pt x="272" y="432" on="0"/>
        <pt x="356" y="301" on="1"/>
        <pt x="1077" y="1157" on="1"/>
        <pt x="962" y="1245" on="0"/>
        <pt x="758" y="1245" on="1"/>
        <pt x="506" y="1245" on="0"/>
        <pt x="272" y="975" on="0"/>
      </contour>
      <contour>
        <pt x="440" y="209" on="1"/>
        <pt x="555" y="121" on="0"/>
        <pt x="758" y="121" on="1"/>
        <pt x="1012" y="121" on="0"/>
        <pt x="1245" y="391" on="0"/>
        <pt x="1245" y="684" on="1"/>
        <pt x="1245" y="928" on="0"/>
        <pt x="1161" y="1065" on="1"/>
      </contour>
    </TTGlyph>
    <TTGlyph name="Otilde" xMin="125" yMin="-16" xMax="1393" yMax="1674">
      <contour>
        <pt x="125" y="-16" on="0"/>
        <pt x="125" y="1384" on="0"/>
        <pt x="758" y="1384" on="1"/>
        <pt x="1393" y="1384" on="0"/>
        <pt x="1393" y="-16" on="0"/>
        <pt x="758" y="-16" on="1"/>
      </contour>
      <contour>
        <pt x="272" y="975" on="0"/>
        <pt x="272" y="393" on="0"/>
        <pt x="506" y="123" on="0"/>
        <pt x="758" y="123" on="1"/>
        <pt x="1012" y="123" on="0"/>
        <pt x="1245" y="393" on="0"/>
        <pt x="1245" y="975" on="0"/>
        <pt x="1012" y="1245" on="0"/>
        <pt x="758" y="1245" on="1"/>
        <pt x="506" y="1245" on="0"/>
      </contour>
      <contour>
        <pt x="471" y="1485" on="1"/>
        <pt x="471" y="1602" on="1"/>
        <pt x="524" y="1668" on="0"/>
        <pt x="584" y="1674" on="1"/>
        <pt x="594" y="1674" on="0"/>
        <pt x="603" y="1674" on="1"/>
        <pt x="654" y="1674" on="0"/>
        <pt x="702" y="1650" on="1"/>
        <pt x="814" y="1590" on="1"/>
        <pt x="861" y="1566" on="0"/>
        <pt x="911" y="1566" on="1"/>
        <pt x="921" y="1566" on="0"/>
        <pt x="932" y="1567" on="1"/>
        <pt x="993" y="1573" on="0"/>
        <pt x="1047" y="1638" on="1"/>
        <pt x="1047" y="1526" on="1"/>
        <pt x="994" y="1460" on="0"/>
        <pt x="932" y="1453" on="1"/>
        <pt x="920" y="1452" on="0"/>
        <pt x="908" y="1452" on="1"/>
        <pt x="859" y="1452" on="0"/>
        <pt x="814" y="1476" on="1"/>
        <pt x="702" y="1535" on="1"/>
        <pt x="656" y="1559" on="0"/>
        <pt x="609" y="1559" on="1"/>
        <pt x="597" y="1559" on="0"/>
        <pt x="584" y="1558" on="1"/>
        <pt x="524" y="1550" on="0"/>
      </contour>
    </TTGlyph>
    <TTGlyph name="P" xMin="176" yMin="0" xMax="1135" yMax="1366">
      <contour>
        <pt x="176" y="0" on="1"/>
        <pt x="176" y="1366" on="1"/>
        <pt x="662" y="1366" on="1"/>
        <pt x="891" y="1366" on="0"/>
        <pt x="1135" y="1149" on="0"/>
        <pt x="1135" y="739" on="0"/>
        <pt x="891" y="522" on="0"/>
        <pt x="662" y="522" on="1"/>
        <pt x="324" y="522" on="1"/>
        <pt x="324" y="0" on="1"/>
      </contour>
      <contour>
        <pt x="324" y="664" on="1"/>
        <pt x="643" y="664" on="1"/>
        <pt x="752" y="664" on="0"/>
        <pt x="897" y="711" on="0"/>
        <pt x="963" y="801" on="0"/>
        <pt x="987" y="887" on="0"/>
        <pt x="987" y="1001" on="0"/>
        <pt x="963" y="1087" on="0"/>
        <pt x="897" y="1178" on="0"/>
        <pt x="752" y="1225" on="0"/>
        <pt x="643" y="1225" on="1"/>
        <pt x="324" y="1225" on="1"/>
      </contour>
    </TTGlyph>
    <TTGlyph name="Q" xMin="125" yMin="-324" xMax="1393" yMax="1384">
      <contour>
        <pt x="125" y="684" on="1"/>
        <pt x="125" y="1384" on="0"/>
        <pt x="758" y="1384" on="1"/>
        <pt x="1393" y="1384" on="0"/>
        <pt x="1393" y="684" on="1"/>
        <pt x="1393" y="33" on="0"/>
        <pt x="840" y="-14" on="1"/>
        <pt x="881" y="-184" on="0"/>
        <pt x="1108" y="-190" on="1"/>
        <pt x="1108" y="-324" on="1"/>
        <pt x="995" y="-324" on="0"/>
        <pt x="829" y="-264" on="0"/>
        <pt x="741" y="-162" on="0"/>
        <pt x="698" y="-68" on="0"/>
        <pt x="690" y="-14" on="1"/>
        <pt x="125" y="23" on="0"/>
      </contour>
      <contour>
        <pt x="272" y="975" on="0"/>
        <pt x="272" y="393" on="0"/>
        <pt x="506" y="123" on="0"/>
        <pt x="758" y="123" on="1"/>
        <pt x="1012" y="123" on="0"/>
        <pt x="1245" y="393" on="0"/>
        <pt x="1245" y="975" on="0"/>
        <pt x="1012" y="1245" on="0"/>
        <pt x="758" y="1245" on="1"/>
        <pt x="506" y="1245" on="0"/>
      </contour>
    </TTGlyph>
    <TTGlyph name="R" xMin="178" yMin="0" xMax="1204" yMax="1366">
      <contour>
        <pt x="178" y="0" on="1"/>
        <pt x="178" y="1366" on="1"/>
        <pt x="680" y="1366" on="1"/>
        <pt x="903" y="1366" on="0"/>
        <pt x="1143" y="1163" on="0"/>
        <pt x="1143" y="969" on="1"/>
        <pt x="1143" y="881" on="0"/>
        <pt x="1087" y="737" on="0"/>
        <pt x="1016" y="657" on="0"/>
        <pt x="918" y="598" on="0"/>
        <pt x="856" y="579" on="0"/>
        <pt x="829" y="573" on="1"/>
        <pt x="1204" y="0" on="1"/>
        <pt x="1030" y="0" on="1"/>
        <pt x="674" y="551" on="1"/>
        <pt x="326" y="551" on="1"/>
        <pt x="326" y="0" on="1"/>
      </contour>
      <contour>
        <pt x="326" y="690" on="1"/>
        <pt x="672" y="690" on="1"/>
        <pt x="774" y="690" on="0"/>
        <pt x="911" y="737" on="0"/>
        <pt x="973" y="821" on="0"/>
        <pt x="995" y="903" on="0"/>
        <pt x="995" y="1014" on="0"/>
        <pt x="973" y="1096" on="0"/>
        <pt x="911" y="1180" on="0"/>
        <pt x="774" y="1227" on="0"/>
        <pt x="672" y="1227" on="1"/>
        <pt x="326" y="1227" on="1"/>
      </contour>
    </TTGlyph>
    <TTGlyph name="S" xMin="125" yMin="-16" xMax="1026" yMax="1384">
      <contour>
        <pt x="125" y="1004" on="1"/>
        <pt x="125" y="1162" on="0"/>
        <pt x="354" y="1384" on="0"/>
        <pt x="596" y="1384" on="1"/>
        <pt x="770" y="1384" on="0"/>
        <pt x="938" y="1303" on="1"/>
        <pt x="938" y="1151" on="1"/>
        <pt x="786" y="1237" on="0"/>
        <pt x="610" y="1237" on="1"/>
        <pt x="446" y="1237" on="0"/>
        <pt x="272" y="1117" on="0"/>
        <pt x="272" y="1004" on="1"/>
        <pt x="272" y="934" on="0"/>
        <pt x="385" y="840" on="0"/>
        <pt x="551" y="795" on="0"/>
        <pt x="748" y="725" on="0"/>
        <pt x="913" y="643" on="0"/>
        <pt x="1026" y="471" on="0"/>
        <pt x="1026" y="348" on="1"/>
        <pt x="1026" y="178" on="0"/>
        <pt x="770" y="-16" on="0"/>
        <pt x="541" y="-16" on="1"/>
        <pt x="318" y="-16" on="0"/>
        <pt x="137" y="80" on="1"/>
        <pt x="137" y="240" on="1"/>
        <pt x="299" y="131" on="0"/>
        <pt x="530" y="131" on="1"/>
        <pt x="878" y="131" on="0"/>
        <pt x="879" y="348" on="1"/>
        <pt x="879" y="440" on="0"/>
        <pt x="766" y="565" on="0"/>
        <pt x="683" y="594" on="1"/>
        <pt x="502" y="654" on="1"/>
        <pt x="404" y="686" on="0"/>
        <pt x="238" y="752" on="0"/>
        <pt x="125" y="897" on="0"/>
      </contour>
    </TTGlyph>
    <TTGlyph name="T" xMin="25" yMin="0" xMax="1137" yMax="1366">
      <contour>
        <pt x="25" y="1223" on="1"/>
        <pt x="25" y="1366" on="1"/>
        <pt x="1137" y="1366" on="1"/>
        <pt x="1137" y="1223" on="1"/>
        <pt x="655" y="1223" on="1"/>
        <pt x="655" y="0" on="1"/>
        <pt x="508" y="0" on="1"/>
        <pt x="508" y="1223" on="1"/>
      </contour>
    </TTGlyph>
    <TTGlyph name="Thorn" xMin="176" yMin="0" xMax="1061" yMax="1366">
      <contour>
        <pt x="176" y="0" on="1"/>
        <pt x="176" y="1366" on="1"/>
        <pt x="324" y="1366" on="1"/>
        <pt x="324" y="1159" on="1"/>
        <pt x="590" y="1159" on="1"/>
        <pt x="817" y="1159" on="0"/>
        <pt x="1061" y="940" on="0"/>
        <pt x="1061" y="530" on="0"/>
        <pt x="817" y="313" on="0"/>
        <pt x="590" y="313" on="1"/>
        <pt x="324" y="313" on="1"/>
        <pt x="324" y="0" on="1"/>
      </contour>
      <contour>
        <pt x="324" y="455" on="1"/>
        <pt x="569" y="455" on="1"/>
        <pt x="678" y="455" on="0"/>
        <pt x="823" y="502" on="0"/>
        <pt x="889" y="592" on="0"/>
        <pt x="913" y="678" on="0"/>
        <pt x="913" y="793" on="0"/>
        <pt x="889" y="879" on="0"/>
        <pt x="823" y="969" on="0"/>
        <pt x="678" y="1016" on="0"/>
        <pt x="569" y="1016" on="1"/>
        <pt x="324" y="1016" on="1"/>
      </contour>
    </TTGlyph>
    <TTGlyph name="U" xMin="178" yMin="-16" xMax="1288" yMax="1366">
      <contour>
        <pt x="178" y="561" on="1"/>
        <pt x="178" y="1366" on="1"/>
        <pt x="326" y="1366" on="1"/>
        <pt x="326" y="553" on="1"/>
        <pt x="326" y="119" on="0"/>
        <pt x="1141" y="119" on="0"/>
        <pt x="1141" y="553" on="1"/>
        <pt x="1141" y="1366" on="1"/>
        <pt x="1288" y="1366" on="1"/>
        <pt x="1288" y="561" on="1"/>
        <pt x="1288" y="280" on="0"/>
        <pt x="1001" y="-16" on="0"/>
        <pt x="465" y="-16" on="0"/>
        <pt x="178" y="281" on="0"/>
      </contour>
    </TTGlyph>
    <TTGlyph name="Uacute" xMin="178" yMin="-16" xMax="1288" yMax="1718">
      <contour>
        <pt x="178" y="561" on="1"/>
        <pt x="178" y="1366" on="1"/>
        <pt x="326" y="1366" on="1"/>
        <pt x="326" y="553" on="1"/>
        <pt x="326" y="119" on="0"/>
        <pt x="1141" y="119" on="0"/>
        <pt x="1141" y="553" on="1"/>
        <pt x="1141" y="1366" on="1"/>
        <pt x="1288" y="1366" on="1"/>
        <pt x="1288" y="561" on="1"/>
        <pt x="1288" y="280" on="0"/>
        <pt x="1001" y="-16" on="0"/>
        <pt x="465" y="-16" on="0"/>
        <pt x="178" y="281" on="0"/>
      </contour>
      <contour>
        <pt x="678" y="1483" on="1"/>
        <pt x="795" y="1718" on="1"/>
        <pt x="946" y="1718" on="1"/>
        <pt x="776" y="1483" on="1"/>
      </contour>
    </TTGlyph>
    <TTGlyph name="Ucircumflex" xMin="178" yMin="-16" xMax="1288" yMax="1731">
      <contour>
        <pt x="178" y="561" on="1"/>
        <pt x="178" y="1366" on="1"/>
        <pt x="326" y="1366" on="1"/>
        <pt x="326" y="553" on="1"/>
        <pt x="326" y="119" on="0"/>
        <pt x="1141" y="119" on="0"/>
        <pt x="1141" y="553" on="1"/>
        <pt x="1141" y="1366" on="1"/>
        <pt x="1288" y="1366" on="1"/>
        <pt x="1288" y="561" on="1"/>
        <pt x="1288" y="280" on="0"/>
        <pt x="1001" y="-16" on="0"/>
        <pt x="465" y="-16" on="0"/>
        <pt x="178" y="281" on="0"/>
      </contour>
      <contour>
        <pt x="526" y="1483" on="1"/>
        <pt x="690" y="1731" on="1"/>
        <pt x="776" y="1731" on="1"/>
        <pt x="940" y="1483" on="1"/>
        <pt x="825" y="1483" on="1"/>
        <pt x="733" y="1628" on="1"/>
        <pt x="641" y="1483" on="1"/>
      </contour>
    </TTGlyph>
    <TTGlyph name="Udieresis" xMin="178" yMin="-16" xMax="1288" yMax="1647">
      <contour>
        <pt x="178" y="561" on="1"/>
        <pt x="178" y="1366" on="1"/>
        <pt x="326" y="1366" on="1"/>
        <pt x="326" y="553" on="1"/>
        <pt x="326" y="119" on="0"/>
        <pt x="1141" y="119" on="0"/>
        <pt x="1141" y="553" on="1"/>
        <pt x="1141" y="1366" on="1"/>
        <pt x="1288" y="1366" on="1"/>
        <pt x="1288" y="561" on="1"/>
        <pt x="1288" y="280" on="0"/>
        <pt x="1001" y="-16" on="0"/>
        <pt x="465" y="-16" on="0"/>
        <pt x="178" y="281" on="0"/>
      </contour>
      <contour>
        <pt x="500" y="1483" on="1"/>
        <pt x="500" y="1647" on="1"/>
        <pt x="664" y="1647" on="1"/>
        <pt x="664" y="1483" on="1"/>
      </contour>
      <contour>
        <pt x="803" y="1483" on="1"/>
        <pt x="803" y="1647" on="1"/>
        <pt x="967" y="1647" on="1"/>
        <pt x="967" y="1483" on="1"/>
      </contour>
    </TTGlyph>
    <TTGlyph name="Ugrave" xMin="178" yMin="-16" xMax="1288" yMax="1718">
      <contour>
        <pt x="178" y="561" on="1"/>
        <pt x="178" y="1366" on="1"/>
        <pt x="326" y="1366" on="1"/>
        <pt x="326" y="553" on="1"/>
        <pt x="326" y="119" on="0"/>
        <pt x="1141" y="119" on="0"/>
        <pt x="1141" y="553" on="1"/>
        <pt x="1141" y="1366" on="1"/>
        <pt x="1288" y="1366" on="1"/>
        <pt x="1288" y="561" on="1"/>
        <pt x="1288" y="280" on="0"/>
        <pt x="1001" y="-16" on="0"/>
        <pt x="465" y="-16" on="0"/>
        <pt x="178" y="281" on="0"/>
      </contour>
      <contour>
        <pt x="520" y="1718" on="1"/>
        <pt x="672" y="1718" on="1"/>
        <pt x="788" y="1483" on="1"/>
        <pt x="692" y="1483" on="1"/>
      </contour>
    </TTGlyph>
    <TTGlyph name="V" xMin="25" yMin="0" xMax="1219" yMax="1366">
      <contour>
        <pt x="25" y="1366" on="1"/>
        <pt x="182" y="1366" on="1"/>
        <pt x="623" y="211" on="1"/>
        <pt x="1061" y="1366" on="1"/>
        <pt x="1219" y="1366" on="1"/>
        <pt x="694" y="0" on="1"/>
        <pt x="549" y="0" on="1"/>
      </contour>
    </TTGlyph>
    <TTGlyph name="W" xMin="25" yMin="0" xMax="1921" yMax="1366">
      <contour>
        <pt x="25" y="1366" on="1"/>
        <pt x="180" y="1366" on="1"/>
        <pt x="539" y="223" on="1"/>
        <pt x="899" y="1366" on="1"/>
        <pt x="1047" y="1366" on="1"/>
        <pt x="1405" y="223" on="1"/>
        <pt x="1765" y="1366" on="1"/>
        <pt x="1921" y="1366" on="1"/>
        <pt x="1481" y="0" on="1"/>
        <pt x="1331" y="0" on="1"/>
        <pt x="973" y="1114" on="1"/>
        <pt x="614" y="0" on="1"/>
        <pt x="463" y="0" on="1"/>
      </contour>
    </TTGlyph>
    <TTGlyph name="X" xMin="25" yMin="0" xMax="1174" yMax="1366">
      <contour>
        <pt x="25" y="0" on="1"/>
        <pt x="510" y="692" on="1"/>
        <pt x="37" y="1366" on="1"/>
        <pt x="213" y="1366" on="1"/>
        <pt x="600" y="817" on="1"/>
        <pt x="985" y="1366" on="1"/>
        <pt x="1165" y="1366" on="1"/>
        <pt x="690" y="690" on="1"/>
        <pt x="1174" y="0" on="1"/>
        <pt x="997" y="0" on="1"/>
        <pt x="600" y="563" on="1"/>
        <pt x="205" y="0" on="1"/>
      </contour>
    </TTGlyph>
    <TTGlyph name="Y" xMin="25" yMin="0" xMax="1190" yMax="1366">
      <contour>
        <pt x="25" y="1366" on="1"/>
        <pt x="203" y="1366" on="1"/>
        <pt x="608" y="770" on="1"/>
        <pt x="1012" y="1366" on="1"/>
        <pt x="1190" y="1366" on="1"/>
        <pt x="682" y="627" on="1"/>
        <pt x="682" y="0" on="1"/>
        <pt x="535" y="0" on="1"/>
        <pt x="535" y="627" on="1"/>
      </contour>
    </TTGlyph>
    <TTGlyph name="Yacute" xMin="25" yMin="0" xMax="1190" yMax="1718">
      <contour>
        <pt x="25" y="1366" on="1"/>
        <pt x="203" y="1366" on="1"/>
        <pt x="608" y="770" on="1"/>
        <pt x="1012" y="1366" on="1"/>
        <pt x="1190" y="1366" on="1"/>
        <pt x="682" y="627" on="1"/>
        <pt x="682" y="0" on="1"/>
        <pt x="535" y="0" on="1"/>
        <pt x="535" y="627" on="1"/>
      </contour>
      <contour>
        <pt x="539" y="1483" on="1"/>
        <pt x="655" y="1718" on="1"/>
        <pt x="805" y="1718" on="1"/>
        <pt x="635" y="1483" on="1"/>
      </contour>
    </TTGlyph>
    <TTGlyph name="Ydieresis" xMin="25" yMin="0" xMax="1190" yMax="1647">
      <contour>
        <pt x="25" y="1366" on="1"/>
        <pt x="203" y="1366" on="1"/>
        <pt x="608" y="770" on="1"/>
        <pt x="1012" y="1366" on="1"/>
        <pt x="1190" y="1366" on="1"/>
        <pt x="682" y="627" on="1"/>
        <pt x="682" y="0" on="1"/>
        <pt x="535" y="0" on="1"/>
        <pt x="535" y="627" on="1"/>
      </contour>
      <contour>
        <pt x="375" y="1483" on="1"/>
        <pt x="375" y="1647" on="1"/>
        <pt x="539" y="1647" on="1"/>
        <pt x="539" y="1483" on="1"/>
      </contour>
      <contour>
        <pt x="678" y="1483" on="1"/>
        <pt x="678" y="1647" on="1"/>
        <pt x="842" y="1647" on="1"/>
        <pt x="842" y="1483" on="1"/>
      </contour>
    </TTGlyph>
    <TTGlyph name="Z" xMin="131" yMin="0" xMax="1104" yMax="1366">
      <contour>
        <pt x="131" y="0" on="1"/>
        <pt x="131" y="129" on="1"/>
        <pt x="911" y="1219" on="1"/>
        <pt x="152" y="1219" on="1"/>
        <pt x="152" y="1366" on="1"/>
        <pt x="1104" y="1366" on="1"/>
        <pt x="1104" y="1241" on="1"/>
        <pt x="319" y="147" on="1"/>
        <pt x="1104" y="147" on="1"/>
        <pt x="1104" y="0" on="1"/>
      </contour>
    </TTGlyph>
    <TTGlyph name="a" xMin="115" yMin="-16" xMax="963" yMax="1040">
      <contour>
        <pt x="115" y="313" on="1"/>
        <pt x="115" y="383" on="0"/>
        <pt x="166" y="494" on="0"/>
        <pt x="240" y="563" on="0"/>
        <pt x="354" y="612" on="0"/>
        <pt x="442" y="635" on="0"/>
        <pt x="563" y="647" on="0"/>
        <pt x="614" y="649" on="0"/>
        <pt x="649" y="649" on="1"/>
        <pt x="813" y="639" on="1"/>
        <pt x="813" y="776" on="0"/>
        <pt x="662" y="893" on="0"/>
        <pt x="514" y="893" on="1"/>
        <pt x="348" y="893" on="0"/>
        <pt x="215" y="844" on="1"/>
        <pt x="215" y="987" on="1"/>
        <pt x="366" y="1040" on="0"/>
        <pt x="522" y="1040" on="1"/>
        <pt x="737" y="1040" on="0"/>
        <pt x="963" y="823" on="0"/>
        <pt x="963" y="614" on="1"/>
        <pt x="963" y="307" on="1"/>
        <pt x="963" y="209" on="0"/>
        <pt x="872" y="70" on="0"/>
        <pt x="729" y="8" on="0"/>
        <pt x="604" y="-16" on="0"/>
        <pt x="543" y="-16" on="1"/>
        <pt x="496" y="-16" on="0"/>
        <pt x="397" y="-4" on="0"/>
        <pt x="272" y="39" on="0"/>
        <pt x="180" y="106" on="0"/>
        <pt x="115" y="231" on="0"/>
      </contour>
      <contour>
        <pt x="262" y="313" on="1"/>
        <pt x="262" y="121" on="0"/>
        <pt x="540" y="121" on="1"/>
        <pt x="541" y="121" on="0"/>
        <pt x="543" y="121" on="1"/>
        <pt x="815" y="121" on="0"/>
        <pt x="815" y="307" on="1"/>
        <pt x="815" y="504" on="1"/>
        <pt x="747" y="516" on="0"/>
        <pt x="633" y="516" on="1"/>
        <pt x="262" y="516" on="0"/>
      </contour>
    </TTGlyph>
    <TTGlyph name="aacute" xMin="115" yMin="-16" xMax="963" yMax="1391">
      <contour>
        <pt x="115" y="313" on="1"/>
        <pt x="115" y="383" on="0"/>
        <pt x="166" y="494" on="0"/>
        <pt x="240" y="563" on="0"/>
        <pt x="354" y="612" on="0"/>
        <pt x="442" y="635" on="0"/>
        <pt x="563" y="647" on="0"/>
        <pt x="614" y="649" on="0"/>
        <pt x="649" y="649" on="1"/>
        <pt x="813" y="639" on="1"/>
        <pt x="813" y="776" on="0"/>
        <pt x="662" y="893" on="0"/>
        <pt x="514" y="893" on="1"/>
        <pt x="348" y="893" on="0"/>
        <pt x="215" y="844" on="1"/>
        <pt x="215" y="987" on="1"/>
        <pt x="366" y="1040" on="0"/>
        <pt x="522" y="1040" on="1"/>
        <pt x="737" y="1040" on="0"/>
        <pt x="963" y="823" on="0"/>
        <pt x="963" y="616" on="1"/>
        <pt x="963" y="307" on="1"/>
        <pt x="963" y="209" on="0"/>
        <pt x="872" y="70" on="0"/>
        <pt x="729" y="8" on="0"/>
        <pt x="604" y="-16" on="0"/>
        <pt x="543" y="-16" on="1"/>
        <pt x="496" y="-16" on="0"/>
        <pt x="397" y="-4" on="0"/>
        <pt x="272" y="39" on="0"/>
        <pt x="180" y="106" on="0"/>
        <pt x="115" y="231" on="0"/>
      </contour>
      <contour>
        <pt x="262" y="313" on="1"/>
        <pt x="262" y="121" on="0"/>
        <pt x="540" y="121" on="1"/>
        <pt x="542" y="121" on="0"/>
        <pt x="543" y="121" on="1"/>
        <pt x="815" y="121" on="0"/>
        <pt x="815" y="307" on="1"/>
        <pt x="815" y="504" on="1"/>
        <pt x="747" y="516" on="0"/>
        <pt x="633" y="516" on="1"/>
        <pt x="262" y="516" on="0"/>
      </contour>
      <contour>
        <pt x="467" y="1155" on="1"/>
        <pt x="584" y="1391" on="1"/>
        <pt x="735" y="1391" on="1"/>
        <pt x="565" y="1155" on="1"/>
      </contour>
    </TTGlyph>
    <TTGlyph name="acircumflex" xMin="115" yMin="-16" xMax="963" yMax="1401">
      <contour>
        <pt x="115" y="313" on="1"/>
        <pt x="115" y="383" on="0"/>
        <pt x="166" y="494" on="0"/>
        <pt x="240" y="563" on="0"/>
        <pt x="354" y="612" on="0"/>
        <pt x="442" y="635" on="0"/>
        <pt x="563" y="647" on="0"/>
        <pt x="614" y="649" on="0"/>
        <pt x="649" y="649" on="1"/>
        <pt x="813" y="639" on="1"/>
        <pt x="813" y="776" on="0"/>
        <pt x="662" y="893" on="0"/>
        <pt x="514" y="893" on="1"/>
        <pt x="348" y="893" on="0"/>
        <pt x="215" y="844" on="1"/>
        <pt x="215" y="987" on="1"/>
        <pt x="366" y="1040" on="0"/>
        <pt x="522" y="1040" on="1"/>
        <pt x="737" y="1040" on="0"/>
        <pt x="963" y="823" on="0"/>
        <pt x="963" y="616" on="1"/>
        <pt x="963" y="307" on="1"/>
        <pt x="963" y="209" on="0"/>
        <pt x="872" y="70" on="0"/>
        <pt x="729" y="8" on="0"/>
        <pt x="604" y="-16" on="0"/>
        <pt x="543" y="-16" on="1"/>
        <pt x="496" y="-16" on="0"/>
        <pt x="397" y="-4" on="0"/>
        <pt x="272" y="39" on="0"/>
        <pt x="180" y="106" on="0"/>
        <pt x="115" y="231" on="0"/>
      </contour>
      <contour>
        <pt x="262" y="313" on="1"/>
        <pt x="262" y="121" on="0"/>
        <pt x="540" y="121" on="1"/>
        <pt x="542" y="121" on="0"/>
        <pt x="543" y="121" on="1"/>
        <pt x="815" y="121" on="0"/>
        <pt x="815" y="307" on="1"/>
        <pt x="815" y="504" on="1"/>
        <pt x="747" y="516" on="0"/>
        <pt x="633" y="516" on="1"/>
        <pt x="262" y="516" on="0"/>
      </contour>
      <contour>
        <pt x="362" y="1155" on="1"/>
        <pt x="526" y="1401" on="1"/>
        <pt x="612" y="1401" on="1"/>
        <pt x="776" y="1155" on="1"/>
        <pt x="662" y="1155" on="1"/>
        <pt x="569" y="1298" on="1"/>
        <pt x="477" y="1155" on="1"/>
      </contour>
    </TTGlyph>
    <TTGlyph name="acute" xMin="123" yMin="1155" xMax="391" yMax="1391">
      <contour>
        <pt x="123" y="1155" on="1"/>
        <pt x="240" y="1391" on="1"/>
        <pt x="391" y="1391" on="1"/>
        <pt x="221" y="1155" on="1"/>
      </contour>
    </TTGlyph>
    <TTGlyph name="adieresis" xMin="115" yMin="-16" xMax="963" yMax="1317">
      <contour>
        <pt x="115" y="313" on="1"/>
        <pt x="115" y="383" on="0"/>
        <pt x="166" y="494" on="0"/>
        <pt x="240" y="563" on="0"/>
        <pt x="354" y="612" on="0"/>
        <pt x="442" y="635" on="0"/>
        <pt x="563" y="647" on="0"/>
        <pt x="614" y="649" on="0"/>
        <pt x="649" y="649" on="1"/>
        <pt x="813" y="639" on="1"/>
        <pt x="813" y="776" on="0"/>
        <pt x="662" y="893" on="0"/>
        <pt x="514" y="893" on="1"/>
        <pt x="348" y="893" on="0"/>
        <pt x="215" y="844" on="1"/>
        <pt x="215" y="987" on="1"/>
        <pt x="366" y="1040" on="0"/>
        <pt x="522" y="1040" on="1"/>
        <pt x="737" y="1040" on="0"/>
        <pt x="963" y="823" on="0"/>
        <pt x="963" y="616" on="1"/>
        <pt x="963" y="307" on="1"/>
        <pt x="963" y="209" on="0"/>
        <pt x="872" y="70" on="0"/>
        <pt x="729" y="8" on="0"/>
        <pt x="604" y="-16" on="0"/>
        <pt x="543" y="-16" on="1"/>
        <pt x="496" y="-16" on="0"/>
        <pt x="397" y="-4" on="0"/>
        <pt x="272" y="39" on="0"/>
        <pt x="180" y="106" on="0"/>
        <pt x="115" y="231" on="0"/>
      </contour>
      <contour>
        <pt x="262" y="313" on="1"/>
        <pt x="262" y="121" on="0"/>
        <pt x="540" y="121" on="1"/>
        <pt x="542" y="121" on="0"/>
        <pt x="543" y="121" on="1"/>
        <pt x="815" y="121" on="0"/>
        <pt x="815" y="307" on="1"/>
        <pt x="815" y="504" on="1"/>
        <pt x="747" y="516" on="0"/>
        <pt x="633" y="516" on="1"/>
        <pt x="262" y="516" on="0"/>
      </contour>
      <contour>
        <pt x="336" y="1155" on="1"/>
        <pt x="336" y="1317" on="1"/>
        <pt x="500" y="1317" on="1"/>
        <pt x="500" y="1155" on="1"/>
      </contour>
      <contour>
        <pt x="639" y="1155" on="1"/>
        <pt x="639" y="1317" on="1"/>
        <pt x="803" y="1317" on="1"/>
        <pt x="803" y="1155" on="1"/>
      </contour>
    </TTGlyph>
    <TTGlyph name="ae" xMin="111" yMin="-16" xMax="1706" yMax="1040">
      <contour>
        <pt x="111" y="313" on="1"/>
        <pt x="111" y="383" on="0"/>
        <pt x="162" y="494" on="0"/>
        <pt x="236" y="563" on="0"/>
        <pt x="348" y="612" on="0"/>
        <pt x="438" y="635" on="0"/>
        <pt x="559" y="647" on="0"/>
        <pt x="608" y="649" on="0"/>
        <pt x="643" y="649" on="1"/>
        <pt x="809" y="639" on="1"/>
        <pt x="809" y="776" on="0"/>
        <pt x="657" y="893" on="0"/>
        <pt x="510" y="893" on="1"/>
        <pt x="344" y="893" on="0"/>
        <pt x="211" y="844" on="1"/>
        <pt x="211" y="987" on="1"/>
        <pt x="363" y="1040" on="0"/>
        <pt x="516" y="1040" on="1"/>
        <pt x="784" y="1040" on="0"/>
        <pt x="893" y="872" on="1"/>
        <pt x="1005" y="1040" on="0"/>
        <pt x="1255" y="1040" on="1"/>
        <pt x="1349" y="1040" on="0"/>
        <pt x="1503" y="981" on="0"/>
        <pt x="1593" y="901" on="0"/>
        <pt x="1661" y="772" on="0"/>
        <pt x="1690" y="682" on="0"/>
        <pt x="1706" y="555" on="0"/>
        <pt x="1706" y="540" on="1"/>
        <pt x="1706" y="496" on="1"/>
        <pt x="1702" y="424" on="1"/>
        <pt x="956" y="424" on="1"/>
        <pt x="970" y="270" on="0"/>
        <pt x="1130" y="131" on="0"/>
        <pt x="1290" y="131" on="1"/>
        <pt x="1509" y="131" on="0"/>
        <pt x="1640" y="207" on="1"/>
        <pt x="1640" y="55" on="1"/>
        <pt x="1488" y="-16" on="0"/>
        <pt x="1280" y="-16" on="1"/>
        <pt x="1277" y="-16" on="0"/>
        <pt x="1274" y="-16" on="1"/>
        <pt x="1026" y="-16" on="0"/>
        <pt x="909" y="135" on="1"/>
        <pt x="806" y="-16" on="0"/>
        <pt x="542" y="-16" on="1"/>
        <pt x="541" y="-16" on="0"/>
        <pt x="539" y="-16" on="1"/>
        <pt x="492" y="-16" on="0"/>
        <pt x="393" y="-4" on="0"/>
        <pt x="268" y="39" on="0"/>
        <pt x="176" y="106" on="0"/>
        <pt x="111" y="231" on="0"/>
      </contour>
      <contour>
        <pt x="258" y="313" on="1"/>
        <pt x="258" y="121" on="0"/>
        <pt x="536" y="121" on="1"/>
        <pt x="538" y="121" on="0"/>
        <pt x="539" y="121" on="1"/>
        <pt x="809" y="121" on="0"/>
        <pt x="809" y="307" on="1"/>
        <pt x="809" y="504" on="1"/>
        <pt x="743" y="516" on="0"/>
        <pt x="629" y="516" on="1"/>
        <pt x="258" y="516" on="0"/>
      </contour>
      <contour>
        <pt x="956" y="555" on="1"/>
        <pt x="1554" y="555" on="1"/>
        <pt x="1554" y="590" on="0"/>
        <pt x="1538" y="676" on="0"/>
        <pt x="1487" y="811" on="0"/>
        <pt x="1354" y="901" on="0"/>
        <pt x="1255" y="901" on="1"/>
        <pt x="1105" y="901" on="0"/>
        <pt x="966" y="743" on="0"/>
      </contour>
    </TTGlyph>
    <TTGlyph name="agrave" xMin="115" yMin="-16" xMax="963" yMax="1391">
      <contour>
        <pt x="115" y="313" on="1"/>
        <pt x="115" y="383" on="0"/>
        <pt x="166" y="494" on="0"/>
        <pt x="240" y="563" on="0"/>
        <pt x="354" y="612" on="0"/>
        <pt x="442" y="635" on="0"/>
        <pt x="563" y="647" on="0"/>
        <pt x="614" y="649" on="0"/>
        <pt x="649" y="649" on="1"/>
        <pt x="813" y="639" on="1"/>
        <pt x="813" y="776" on="0"/>
        <pt x="662" y="893" on="0"/>
        <pt x="514" y="893" on="1"/>
        <pt x="348" y="893" on="0"/>
        <pt x="215" y="844" on="1"/>
        <pt x="215" y="987" on="1"/>
        <pt x="366" y="1040" on="0"/>
        <pt x="522" y="1040" on="1"/>
        <pt x="737" y="1040" on="0"/>
        <pt x="963" y="823" on="0"/>
        <pt x="963" y="616" on="1"/>
        <pt x="963" y="307" on="1"/>
        <pt x="963" y="209" on="0"/>
        <pt x="872" y="70" on="0"/>
        <pt x="729" y="8" on="0"/>
        <pt x="604" y="-16" on="0"/>
        <pt x="543" y="-16" on="1"/>
        <pt x="496" y="-16" on="0"/>
        <pt x="397" y="-4" on="0"/>
        <pt x="272" y="39" on="0"/>
        <pt x="180" y="106" on="0"/>
        <pt x="115" y="231" on="0"/>
      </contour>
      <contour>
        <pt x="262" y="313" on="1"/>
        <pt x="262" y="121" on="0"/>
        <pt x="540" y="121" on="1"/>
        <pt x="542" y="121" on="0"/>
        <pt x="543" y="121" on="1"/>
        <pt x="815" y="121" on="0"/>
        <pt x="815" y="307" on="1"/>
        <pt x="815" y="504" on="1"/>
        <pt x="747" y="516" on="0"/>
        <pt x="633" y="516" on="1"/>
        <pt x="262" y="516" on="0"/>
      </contour>
      <contour>
        <pt x="356" y="1391" on="1"/>
        <pt x="506" y="1391" on="1"/>
        <pt x="623" y="1155" on="1"/>
        <pt x="526" y="1155" on="1"/>
      </contour>
    </TTGlyph>
    <TTGlyph name="ampersand" xMin="111" yMin="-16" xMax="1241" yMax="1380">
      <contour>
        <pt x="111" y="377" on="1"/>
        <pt x="111" y="496" on="0"/>
        <pt x="223" y="698" on="0"/>
        <pt x="387" y="788" on="1"/>
        <pt x="252" y="956" on="0"/>
        <pt x="252" y="1071" on="1"/>
        <pt x="252" y="1198" on="0"/>
        <pt x="434" y="1380" on="0"/>
        <pt x="561" y="1380" on="1"/>
        <pt x="692" y="1380" on="0"/>
        <pt x="872" y="1206" on="0"/>
        <pt x="872" y="1079" on="1"/>
        <pt x="872" y="970" on="0"/>
        <pt x="754" y="821" on="0"/>
        <pt x="621" y="743" on="1"/>
        <pt x="918" y="389" on="1"/>
        <pt x="975" y="489" on="0"/>
        <pt x="1001" y="594" on="1"/>
        <pt x="1135" y="594" on="1"/>
        <pt x="1102" y="417" on="0"/>
        <pt x="1014" y="272" on="1"/>
        <pt x="1241" y="0" on="1"/>
        <pt x="1049" y="0" on="1"/>
        <pt x="924" y="152" on="1"/>
        <pt x="762" y="-16" on="0"/>
        <pt x="539" y="-16" on="1"/>
        <pt x="428" y="-16" on="0"/>
        <pt x="254" y="61" on="0"/>
        <pt x="160" y="186" on="0"/>
        <pt x="111" y="315" on="0"/>
      </contour>
      <contour>
        <pt x="256" y="381" on="1"/>
        <pt x="256" y="348" on="0"/>
        <pt x="281" y="272" on="0"/>
        <pt x="340" y="184" on="0"/>
        <pt x="461" y="127" on="0"/>
        <pt x="545" y="127" on="1"/>
        <pt x="717" y="127" on="0"/>
        <pt x="836" y="256" on="1"/>
        <pt x="479" y="684" on="1"/>
        <pt x="401" y="643" on="0"/>
        <pt x="301" y="555" on="0"/>
        <pt x="264" y="469" on="0"/>
        <pt x="256" y="420" on="0"/>
      </contour>
      <contour>
        <pt x="395" y="1069" on="1"/>
        <pt x="395" y="997" on="0"/>
        <pt x="524" y="856" on="1"/>
        <pt x="655" y="926" on="0"/>
        <pt x="735" y="1018" on="0"/>
        <pt x="735" y="1077" on="1"/>
        <pt x="735" y="1145" on="0"/>
        <pt x="637" y="1233" on="0"/>
        <pt x="565" y="1233" on="1"/>
        <pt x="495" y="1233" on="0"/>
        <pt x="395" y="1137" on="0"/>
      </contour>
    </TTGlyph>
    <TTGlyph name="aring" xMin="115" yMin="-16" xMax="963" yMax="1432">
      <contour>
        <pt x="115" y="313" on="1"/>
        <pt x="115" y="383" on="0"/>
        <pt x="166" y="494" on="0"/>
        <pt x="240" y="563" on="0"/>
        <pt x="354" y="612" on="0"/>
        <pt x="442" y="635" on="0"/>
        <pt x="563" y="647" on="0"/>
        <pt x="614" y="649" on="0"/>
        <pt x="649" y="649" on="1"/>
        <pt x="813" y="639" on="1"/>
        <pt x="813" y="776" on="0"/>
        <pt x="662" y="893" on="0"/>
        <pt x="514" y="893" on="1"/>
        <pt x="348" y="893" on="0"/>
        <pt x="215" y="844" on="1"/>
        <pt x="215" y="987" on="1"/>
        <pt x="366" y="1040" on="0"/>
        <pt x="522" y="1040" on="1"/>
        <pt x="737" y="1040" on="0"/>
        <pt x="963" y="823" on="0"/>
        <pt x="963" y="616" on="1"/>
        <pt x="963" y="307" on="1"/>
        <pt x="963" y="209" on="0"/>
        <pt x="872" y="70" on="0"/>
        <pt x="729" y="8" on="0"/>
        <pt x="604" y="-16" on="0"/>
        <pt x="543" y="-16" on="1"/>
        <pt x="496" y="-16" on="0"/>
        <pt x="397" y="-4" on="0"/>
        <pt x="272" y="39" on="0"/>
        <pt x="180" y="106" on="0"/>
        <pt x="115" y="231" on="0"/>
      </contour>
      <contour>
        <pt x="262" y="313" on="1"/>
        <pt x="262" y="121" on="0"/>
        <pt x="540" y="121" on="1"/>
        <pt x="542" y="121" on="0"/>
        <pt x="543" y="121" on="1"/>
        <pt x="815" y="121" on="0"/>
        <pt x="815" y="307" on="1"/>
        <pt x="815" y="504" on="1"/>
        <pt x="747" y="516" on="0"/>
        <pt x="633" y="516" on="1"/>
        <pt x="262" y="516" on="0"/>
      </contour>
      <contour>
        <pt x="393" y="1182" on="0"/>
        <pt x="393" y="1346" on="0"/>
        <pt x="479" y="1432" on="0"/>
        <pt x="639" y="1432" on="0"/>
        <pt x="725" y="1346" on="0"/>
        <pt x="725" y="1182" on="0"/>
        <pt x="639" y="1096" on="0"/>
        <pt x="479" y="1096" on="0"/>
      </contour>
      <contour>
        <pt x="467" y="1317" on="0"/>
        <pt x="467" y="1210" on="0"/>
        <pt x="508" y="1163" on="0"/>
        <pt x="559" y="1163" on="1"/>
        <pt x="608" y="1163" on="0"/>
        <pt x="651" y="1210" on="0"/>
        <pt x="651" y="1317" on="0"/>
        <pt x="608" y="1362" on="0"/>
        <pt x="559" y="1362" on="1"/>
        <pt x="508" y="1362" on="0"/>
      </contour>
    </TTGlyph>
    <TTGlyph name="asciicircum" xMin="274" yMin="969" xMax="813" yMax="1413">
      <contour>
        <pt x="274" y="969" on="1"/>
        <pt x="487" y="1413" on="1"/>
        <pt x="600" y="1413" on="1"/>
        <pt x="813" y="969" on="1"/>
        <pt x="690" y="969" on="1"/>
        <pt x="545" y="1294" on="1"/>
        <pt x="397" y="969" on="1"/>
      </contour>
    </TTGlyph>
    <TTGlyph name="asciitilde" xMin="201" yMin="436" xMax="823" yMax="678">
      <contour>
        <pt x="201" y="473" on="1"/>
        <pt x="201" y="598" on="1"/>
        <pt x="258" y="670" on="0"/>
        <pt x="324" y="677" on="1"/>
        <pt x="335" y="678" on="0"/>
        <pt x="346" y="678" on="1"/>
        <pt x="400" y="678" on="0"/>
        <pt x="450" y="651" on="1"/>
        <pt x="574" y="586" on="1"/>
        <pt x="624" y="559" on="0"/>
        <pt x="677" y="559" on="1"/>
        <pt x="689" y="559" on="0"/>
        <pt x="700" y="560" on="1"/>
        <pt x="766" y="567" on="0"/>
        <pt x="823" y="639" on="1"/>
        <pt x="823" y="516" on="1"/>
        <pt x="766" y="444" on="0"/>
        <pt x="700" y="437" on="1"/>
        <pt x="689" y="436" on="0"/>
        <pt x="678" y="436" on="1"/>
        <pt x="624" y="436" on="0"/>
        <pt x="574" y="463" on="1"/>
        <pt x="450" y="528" on="1"/>
        <pt x="400" y="553" on="0"/>
        <pt x="347" y="553" on="1"/>
        <pt x="335" y="553" on="0"/>
        <pt x="324" y="552" on="1"/>
        <pt x="258" y="545" on="0"/>
      </contour>
    </TTGlyph>
    <TTGlyph name="asterisk" xMin="172" yMin="942" xMax="666" yMax="1440">
      <contour>
        <pt x="172" y="1112" on="1"/>
        <pt x="350" y="1190" on="1"/>
        <pt x="172" y="1270" on="1"/>
        <pt x="227" y="1364" on="1"/>
        <pt x="383" y="1253" on="1"/>
        <pt x="362" y="1440" on="1"/>
        <pt x="473" y="1440" on="1"/>
        <pt x="457" y="1253" on="1"/>
        <pt x="610" y="1364" on="1"/>
        <pt x="666" y="1270" on="1"/>
        <pt x="489" y="1190" on="1"/>
        <pt x="666" y="1112" on="1"/>
        <pt x="610" y="1014" on="1"/>
        <pt x="457" y="1126" on="1"/>
        <pt x="473" y="942" on="1"/>
        <pt x="362" y="942" on="1"/>
        <pt x="383" y="1126" on="1"/>
        <pt x="227" y="1014" on="1"/>
      </contour>
    </TTGlyph>
    <TTGlyph name="at" xMin="170" yMin="-305" xMax="1722" yMax="1233">
      <contour>
        <pt x="170" y="371" on="1"/>
        <pt x="170" y="615" on="0"/>
        <pt x="436" y="1018" on="0"/>
        <pt x="838" y="1233" on="0"/>
        <pt x="1047" y="1233" on="1"/>
        <pt x="1129" y="1233" on="0"/>
        <pt x="1307" y="1190" on="0"/>
        <pt x="1489" y="1087" on="0"/>
        <pt x="1632" y="938" on="0"/>
        <pt x="1722" y="709" on="0"/>
        <pt x="1722" y="569" on="1"/>
        <pt x="1722" y="348" on="0"/>
        <pt x="1540" y="66" on="0"/>
        <pt x="1389" y="66" on="1"/>
        <pt x="1252" y="66" on="0"/>
        <pt x="1198" y="166" on="1"/>
        <pt x="1102" y="66" on="0"/>
        <pt x="903" y="66" on="1"/>
        <pt x="760" y="66" on="0"/>
        <pt x="596" y="190" on="0"/>
        <pt x="596" y="299" on="1"/>
        <pt x="596" y="348" on="0"/>
        <pt x="629" y="438" on="0"/>
        <pt x="715" y="537" on="0"/>
        <pt x="905" y="596" on="0"/>
        <pt x="1040" y="596" on="1"/>
        <pt x="1114" y="596" on="0"/>
        <pt x="1192" y="586" on="1"/>
        <pt x="1194" y="600" on="0"/>
        <pt x="1194" y="629" on="1"/>
        <pt x="1194" y="664" on="0"/>
        <pt x="1182" y="713" on="0"/>
        <pt x="1147" y="764" on="0"/>
        <pt x="1061" y="791" on="0"/>
        <pt x="995" y="791" on="1"/>
        <pt x="852" y="791" on="0"/>
        <pt x="739" y="748" on="1"/>
        <pt x="756" y="866" on="1"/>
        <pt x="879" y="907" on="0"/>
        <pt x="995" y="907" on="1"/>
        <pt x="1151" y="907" on="0"/>
        <pt x="1313" y="766" on="0"/>
        <pt x="1313" y="629" on="1"/>
        <pt x="1313" y="570" on="0"/>
        <pt x="1290" y="403" on="0"/>
        <pt x="1284" y="349" on="1"/>
        <pt x="1280" y="309" on="0"/>
        <pt x="1280" y="268" on="1"/>
        <pt x="1280" y="255" on="0"/>
        <pt x="1280" y="242" on="1"/>
        <pt x="1282" y="188" on="0"/>
        <pt x="1339" y="137" on="0"/>
        <pt x="1397" y="137" on="1"/>
        <pt x="1487" y="137" on="0"/>
        <pt x="1645" y="365" on="0"/>
        <pt x="1645" y="563" on="1"/>
        <pt x="1645" y="708" on="0"/>
        <pt x="1534" y="942" on="0"/>
        <pt x="1356" y="1081" on="0"/>
        <pt x="1151" y="1155" on="0"/>
        <pt x="1047" y="1155" on="1"/>
        <pt x="736" y="1155" on="0"/>
        <pt x="250" y="694" on="0"/>
        <pt x="250" y="371" on="1"/>
        <pt x="250" y="217" on="0"/>
        <pt x="352" y="-16" on="0"/>
        <pt x="496" y="-137" on="0"/>
        <pt x="678" y="-213" on="0"/>
        <pt x="803" y="-231" on="0"/>
        <pt x="854" y="-231" on="1"/>
        <pt x="1108" y="-231" on="0"/>
        <pt x="1284" y="-131" on="1"/>
        <pt x="1266" y="-223" on="1"/>
        <pt x="1094" y="-305" on="0"/>
        <pt x="838" y="-305" on="1"/>
        <pt x="752" y="-305" on="0"/>
        <pt x="575" y="-260" on="0"/>
        <pt x="395" y="-156" on="0"/>
        <pt x="258" y="-6" on="0"/>
        <pt x="170" y="229" on="0"/>
      </contour>
      <contour>
        <pt x="903" y="184" on="1"/>
        <pt x="952" y="184" on="0"/>
        <pt x="1030" y="201" on="0"/>
        <pt x="1083" y="219" on="0"/>
        <pt x="1124" y="264" on="0"/>
        <pt x="1145" y="293" on="0"/>
        <pt x="1161" y="356" on="0"/>
        <pt x="1167" y="385" on="0"/>
        <pt x="1174" y="459" on="0"/>
        <pt x="1176" y="469" on="1"/>
        <pt x="1121" y="477" on="0"/>
        <pt x="1040" y="477" on="1"/>
        <pt x="715" y="477" on="0"/>
        <pt x="715" y="300" on="1"/>
        <pt x="715" y="184" on="0"/>
      </contour>
    </TTGlyph>
    <TTGlyph name="atilde" xMin="115" yMin="-16" xMax="963" yMax="1347">
      <contour>
        <pt x="115" y="313" on="1"/>
        <pt x="115" y="383" on="0"/>
        <pt x="166" y="494" on="0"/>
        <pt x="240" y="563" on="0"/>
        <pt x="352" y="612" on="0"/>
        <pt x="442" y="635" on="0"/>
        <pt x="563" y="647" on="0"/>
        <pt x="612" y="649" on="0"/>
        <pt x="647" y="649" on="1"/>
        <pt x="813" y="639" on="1"/>
        <pt x="813" y="776" on="0"/>
        <pt x="662" y="893" on="0"/>
        <pt x="514" y="893" on="1"/>
        <pt x="364" y="893" on="0"/>
        <pt x="215" y="846" on="1"/>
        <pt x="215" y="987" on="1"/>
        <pt x="356" y="1040" on="0"/>
        <pt x="522" y="1040" on="1"/>
        <pt x="737" y="1040" on="0"/>
        <pt x="963" y="823" on="0"/>
        <pt x="963" y="616" on="1"/>
        <pt x="963" y="307" on="1"/>
        <pt x="963" y="209" on="0"/>
        <pt x="872" y="70" on="0"/>
        <pt x="729" y="8" on="0"/>
        <pt x="604" y="-16" on="0"/>
        <pt x="543" y="-16" on="1"/>
        <pt x="496" y="-16" on="0"/>
        <pt x="397" y="-4" on="0"/>
        <pt x="272" y="39" on="0"/>
        <pt x="180" y="106" on="0"/>
        <pt x="115" y="231" on="0"/>
      </contour>
      <contour>
        <pt x="262" y="315" on="1"/>
        <pt x="262" y="121" on="0"/>
        <pt x="540" y="121" on="1"/>
        <pt x="542" y="121" on="0"/>
        <pt x="543" y="121" on="1"/>
        <pt x="815" y="121" on="0"/>
        <pt x="815" y="307" on="1"/>
        <pt x="815" y="504" on="1"/>
        <pt x="747" y="516" on="0"/>
        <pt x="633" y="516" on="1"/>
        <pt x="262" y="516" on="0"/>
      </contour>
      <contour>
        <pt x="268" y="1157" on="1"/>
        <pt x="268" y="1274" on="1"/>
        <pt x="321" y="1340" on="0"/>
        <pt x="382" y="1346" on="1"/>
        <pt x="393" y="1347" on="0"/>
        <pt x="403" y="1347" on="1"/>
        <pt x="453" y="1347" on="0"/>
        <pt x="500" y="1322" on="1"/>
        <pt x="614" y="1262" on="1"/>
        <pt x="660" y="1238" on="0"/>
        <pt x="711" y="1238" on="1"/>
        <pt x="721" y="1238" on="0"/>
        <pt x="732" y="1239" on="1"/>
        <pt x="793" y="1245" on="0"/>
        <pt x="846" y="1311" on="1"/>
        <pt x="846" y="1198" on="1"/>
        <pt x="793" y="1132" on="0"/>
        <pt x="732" y="1125" on="1"/>
        <pt x="720" y="1124" on="0"/>
        <pt x="708" y="1124" on="1"/>
        <pt x="659" y="1124" on="0"/>
        <pt x="614" y="1148" on="1"/>
        <pt x="500" y="1208" on="1"/>
        <pt x="455" y="1231" on="0"/>
        <pt x="406" y="1231" on="1"/>
        <pt x="395" y="1231" on="0"/>
        <pt x="383" y="1230" on="1"/>
        <pt x="322" y="1223" on="0"/>
      </contour>
    </TTGlyph>
    <TTGlyph name="b" xMin="170" yMin="-16" xMax="1038" yMax="1413">
      <contour>
        <pt x="170" y="307" on="1"/>
        <pt x="170" y="1413" on="1"/>
        <pt x="317" y="1413" on="1"/>
        <pt x="317" y="999" on="1"/>
        <pt x="440" y="1040" on="0"/>
        <pt x="569" y="1040" on="1"/>
        <pt x="639" y="1040" on="0"/>
        <pt x="762" y="1016" on="0"/>
        <pt x="889" y="946" on="0"/>
        <pt x="981" y="836" on="0"/>
        <pt x="1038" y="647" on="0"/>
        <pt x="1038" y="524" on="1"/>
        <pt x="1038" y="389" on="0"/>
        <pt x="975" y="186" on="0"/>
        <pt x="883" y="74" on="0"/>
        <pt x="754" y="4" on="0"/>
        <pt x="645" y="-16" on="0"/>
        <pt x="588" y="-16" on="1"/>
        <pt x="477" y="-16" on="0"/>
        <pt x="313" y="39" on="0"/>
        <pt x="231" y="111" on="0"/>
        <pt x="180" y="211" on="0"/>
        <pt x="170" y="276" on="0"/>
      </contour>
      <contour>
        <pt x="317" y="299" on="1"/>
        <pt x="318" y="119" on="0"/>
        <pt x="588" y="119" on="1"/>
        <pt x="645" y="119" on="0"/>
        <pt x="737" y="145" on="0"/>
        <pt x="836" y="221" on="0"/>
        <pt x="891" y="395" on="0"/>
        <pt x="891" y="524" on="1"/>
        <pt x="891" y="723" on="0"/>
        <pt x="739" y="903" on="0"/>
        <pt x="569" y="903" on="1"/>
        <pt x="442" y="903" on="0"/>
        <pt x="317" y="852" on="1"/>
      </contour>
    </TTGlyph>
    <TTGlyph name="backslash" xMin="-76" yMin="-201" xMax="811" yMax="1548">
      <contour>
        <pt x="-76" y="1548" on="1"/>
        <pt x="59" y="1548" on="1"/>
        <pt x="811" y="-201" on="1"/>
        <pt x="678" y="-201" on="1"/>
      </contour>
    </TTGlyph>
    <TTGlyph name="bar" xMin="379" yMin="-203" xMax="526" yMax="1362">
      <contour>
        <pt x="379" y="-203" on="1"/>
        <pt x="379" y="1362" on="1"/>
        <pt x="526" y="1362" on="1"/>
        <pt x="526" y="-203" on="1"/>
      </contour>
    </TTGlyph>
    <TTGlyph name="braceleft" xMin="186" yMin="-225" xMax="623" yMax="1427">
      <contour>
        <pt x="186" y="551" on="1"/>
        <pt x="186" y="651" on="1"/>
        <pt x="315" y="684" on="0"/>
        <pt x="315" y="799" on="1"/>
        <pt x="315" y="1118" on="1"/>
        <pt x="315" y="1268" on="0"/>
        <pt x="473" y="1427" on="0"/>
        <pt x="623" y="1427" on="1"/>
        <pt x="623" y="1288" on="1"/>
        <pt x="541" y="1284" on="0"/>
        <pt x="463" y="1219" on="0"/>
        <pt x="463" y="1128" on="1"/>
        <pt x="463" y="799" on="1"/>
        <pt x="463" y="680" on="0"/>
        <pt x="344" y="600" on="1"/>
        <pt x="463" y="520" on="0"/>
        <pt x="463" y="401" on="1"/>
        <pt x="463" y="72" on="1"/>
        <pt x="463" y="-16" on="0"/>
        <pt x="541" y="-84" on="0"/>
        <pt x="623" y="-88" on="1"/>
        <pt x="623" y="-225" on="1"/>
        <pt x="473" y="-225" on="0"/>
        <pt x="315" y="-68" on="0"/>
        <pt x="315" y="82" on="1"/>
        <pt x="315" y="401" on="1"/>
        <pt x="315" y="512" on="0"/>
      </contour>
    </TTGlyph>
    <TTGlyph name="braceright" xMin="156" yMin="-225" xMax="592" yMax="1427">
      <contour>
        <pt x="156" y="-88" on="1"/>
        <pt x="238" y="-84" on="0"/>
        <pt x="315" y="-16" on="0"/>
        <pt x="315" y="72" on="1"/>
        <pt x="315" y="401" on="1"/>
        <pt x="315" y="518" on="0"/>
        <pt x="436" y="600" on="1"/>
        <pt x="315" y="682" on="0"/>
        <pt x="315" y="799" on="1"/>
        <pt x="315" y="1128" on="1"/>
        <pt x="315" y="1218" on="0"/>
        <pt x="240" y="1284" on="0"/>
        <pt x="156" y="1288" on="1"/>
        <pt x="156" y="1427" on="1"/>
        <pt x="306" y="1427" on="0"/>
        <pt x="463" y="1268" on="0"/>
        <pt x="463" y="1118" on="1"/>
        <pt x="463" y="799" on="1"/>
        <pt x="463" y="684" on="0"/>
        <pt x="592" y="651" on="1"/>
        <pt x="592" y="551" on="1"/>
        <pt x="463" y="512" on="0"/>
        <pt x="463" y="401" on="1"/>
        <pt x="463" y="82" on="1"/>
        <pt x="463" y="-68" on="0"/>
        <pt x="305" y="-225" on="0"/>
        <pt x="156" y="-225" on="1"/>
      </contour>
    </TTGlyph>
    <TTGlyph name="bracketleft" xMin="244" yMin="-238" xMax="614" yMax="1425">
      <contour>
        <pt x="244" y="-238" on="1"/>
        <pt x="244" y="1425" on="1"/>
        <pt x="614" y="1425" on="1"/>
        <pt x="614" y="1286" on="1"/>
        <pt x="391" y="1286" on="1"/>
        <pt x="391" y="-98" on="1"/>
        <pt x="614" y="-98" on="1"/>
        <pt x="614" y="-238" on="1"/>
      </contour>
    </TTGlyph>
    <TTGlyph name="bracketright" xMin="172" yMin="-238" xMax="541" yMax="1425">
      <contour>
        <pt x="172" y="-98" on="1"/>
        <pt x="393" y="-98" on="1"/>
        <pt x="393" y="1286" on="1"/>
        <pt x="172" y="1286" on="1"/>
        <pt x="172" y="1425" on="1"/>
        <pt x="541" y="1425" on="1"/>
        <pt x="541" y="-238" on="1"/>
        <pt x="172" y="-238" on="1"/>
      </contour>
    </TTGlyph>
    <TTGlyph name="bullet" xMin="184" yMin="446" xMax="657" yMax="920">
      <contour>
        <pt x="184" y="586" on="0"/>
        <pt x="184" y="782" on="0"/>
        <pt x="324" y="920" on="0"/>
        <pt x="422" y="920" on="1"/>
        <pt x="518" y="920" on="0"/>
        <pt x="657" y="782" on="0"/>
        <pt x="657" y="586" on="0"/>
        <pt x="518" y="446" on="0"/>
        <pt x="422" y="446" on="1"/>
        <pt x="324" y="446" on="0"/>
      </contour>
    </TTGlyph>
    <TTGlyph name="c" xMin="119" yMin="-16" xMax="901" yMax="1040">
      <contour>
        <pt x="119" y="512" on="1"/>
        <pt x="119" y="668" on="0"/>
        <pt x="205" y="887" on="0"/>
        <pt x="352" y="995" on="0"/>
        <pt x="506" y="1040" on="0"/>
        <pt x="598" y="1040" on="1"/>
        <pt x="752" y="1040" on="0"/>
        <pt x="901" y="983" on="1"/>
        <pt x="901" y="842" on="1"/>
        <pt x="762" y="899" on="0"/>
        <pt x="614" y="899" on="1"/>
        <pt x="432" y="899" on="0"/>
        <pt x="266" y="715" on="0"/>
        <pt x="266" y="512" on="1"/>
        <pt x="266" y="307" on="0"/>
        <pt x="432" y="125" on="0"/>
        <pt x="614" y="125" on="1"/>
        <pt x="768" y="125" on="0"/>
        <pt x="901" y="182" on="1"/>
        <pt x="901" y="39" on="1"/>
        <pt x="758" y="-16" on="0"/>
        <pt x="598" y="-16" on="1"/>
        <pt x="526" y="-16" on="0"/>
        <pt x="401" y="8" on="0"/>
        <pt x="270" y="80" on="0"/>
        <pt x="178" y="193" on="0"/>
        <pt x="119" y="385" on="0"/>
      </contour>
    </TTGlyph>
    <TTGlyph name="ccedilla" xMin="119" yMin="-244" xMax="901" yMax="1040">
      <contour>
        <pt x="119" y="512" on="1"/>
        <pt x="119" y="668" on="0"/>
        <pt x="205" y="887" on="0"/>
        <pt x="352" y="995" on="0"/>
        <pt x="506" y="1040" on="0"/>
        <pt x="598" y="1040" on="1"/>
        <pt x="752" y="1040" on="0"/>
        <pt x="901" y="983" on="1"/>
        <pt x="901" y="842" on="1"/>
        <pt x="761" y="899" on="0"/>
        <pt x="614" y="899" on="1"/>
        <pt x="432" y="899" on="0"/>
        <pt x="266" y="715" on="0"/>
        <pt x="266" y="512" on="1"/>
        <pt x="266" y="307" on="0"/>
        <pt x="432" y="125" on="0"/>
        <pt x="614" y="125" on="1"/>
        <pt x="768" y="125" on="0"/>
        <pt x="901" y="182" on="1"/>
        <pt x="901" y="39" on="1"/>
        <pt x="786" y="-2" on="0"/>
        <pt x="676" y="-14" on="1"/>
        <pt x="549" y="-244" on="1"/>
        <pt x="393" y="-244" on="1"/>
        <pt x="557" y="-16" on="1"/>
        <pt x="471" y="-12" on="0"/>
        <pt x="328" y="41" on="0"/>
        <pt x="195" y="154" on="0"/>
        <pt x="119" y="365" on="0"/>
      </contour>
    </TTGlyph>
    <TTGlyph name="cedilla" xMin="115" yMin="-246" xMax="399" yMax="-10">
      <contour>
        <pt x="115" y="-246" on="1"/>
        <pt x="283" y="-10" on="1"/>
        <pt x="399" y="-10" on="1"/>
        <pt x="270" y="-246" on="1"/>
      </contour>
    </TTGlyph>
    <TTGlyph name="cent" xMin="117" yMin="0" xMax="897" yMax="1366">
      <contour>
        <pt x="117" y="952" on="0"/>
        <pt x="350" y="1192" on="0"/>
        <pt x="528" y="1208" on="1"/>
        <pt x="528" y="1366" on="1"/>
        <pt x="631" y="1366" on="1"/>
        <pt x="631" y="1210" on="1"/>
        <pt x="762" y="1208" on="0"/>
        <pt x="897" y="1155" on="1"/>
        <pt x="897" y="1014" on="1"/>
        <pt x="772" y="1065" on="0"/>
        <pt x="631" y="1069" on="1"/>
        <pt x="631" y="297" on="1"/>
        <pt x="774" y="301" on="0"/>
        <pt x="897" y="354" on="1"/>
        <pt x="897" y="211" on="1"/>
        <pt x="772" y="162" on="0"/>
        <pt x="631" y="156" on="1"/>
        <pt x="631" y="0" on="1"/>
        <pt x="528" y="0" on="1"/>
        <pt x="528" y="158" on="1"/>
        <pt x="117" y="199" on="0"/>
        <pt x="117" y="682" on="1"/>
      </contour>
      <contour>
        <pt x="264" y="862" on="0"/>
        <pt x="264" y="506" on="0"/>
        <pt x="391" y="322" on="0"/>
        <pt x="528" y="303" on="1"/>
        <pt x="528" y="1065" on="1"/>
        <pt x="391" y="1045" on="0"/>
      </contour>
    </TTGlyph>
    <TTGlyph name="circumflex" xMin="207" yMin="1155" xMax="621" yMax="1401">
      <contour>
        <pt x="207" y="1155" on="1"/>
        <pt x="373" y="1401" on="1"/>
        <pt x="457" y="1401" on="1"/>
        <pt x="621" y="1155" on="1"/>
        <pt x="506" y="1155" on="1"/>
        <pt x="414" y="1298" on="1"/>
        <pt x="322" y="1155" on="1"/>
      </contour>
    </TTGlyph>
    <TTGlyph name="colon" xMin="324" yMin="98" xMax="487" yMax="918">
      <contour>
        <pt x="324" y="98" on="1"/>
        <pt x="324" y="262" on="1"/>
        <pt x="487" y="262" on="1"/>
        <pt x="487" y="98" on="1"/>
      </contour>
      <contour>
        <pt x="324" y="754" on="1"/>
        <pt x="324" y="918" on="1"/>
        <pt x="487" y="918" on="1"/>
        <pt x="487" y="754" on="1"/>
      </contour>
    </TTGlyph>
    <TTGlyph name="comma" xMin="152" yMin="-229" xMax="471" yMax="172">
      <contour>
        <pt x="152" y="-229" on="1"/>
        <pt x="303" y="172" on="1"/>
        <pt x="471" y="172" on="1"/>
        <pt x="299" y="-229" on="1"/>
      </contour>
    </TTGlyph>
    <TTGlyph name="copyright" xMin="98" yMin="-16" xMax="1499" yMax="1382">
      <contour>
        <pt x="98" y="682" on="1"/>
        <pt x="98" y="973" on="0"/>
        <pt x="510" y="1382" on="0"/>
        <pt x="799" y="1382" on="1"/>
        <pt x="1090" y="1382" on="0"/>
        <pt x="1499" y="973" on="0"/>
        <pt x="1499" y="682" on="1"/>
        <pt x="1499" y="393" on="0"/>
        <pt x="1090" y="-16" on="0"/>
        <pt x="799" y="-16" on="1"/>
        <pt x="510" y="-16" on="0"/>
        <pt x="98" y="393" on="0"/>
      </contour>
      <contour>
        <pt x="172" y="682" on="1"/>
        <pt x="172" y="424" on="0"/>
        <pt x="541" y="55" on="0"/>
        <pt x="799" y="55" on="1"/>
        <pt x="1059" y="55" on="0"/>
        <pt x="1425" y="424" on="0"/>
        <pt x="1425" y="682" on="1"/>
        <pt x="1425" y="942" on="0"/>
        <pt x="1059" y="1311" on="0"/>
        <pt x="799" y="1311" on="1"/>
        <pt x="541" y="1311" on="0"/>
        <pt x="172" y="942" on="0"/>
      </contour>
      <contour>
        <pt x="449" y="682" on="1"/>
        <pt x="449" y="1092" on="0"/>
        <pt x="817" y="1092" on="1"/>
        <pt x="946" y="1092" on="0"/>
        <pt x="1061" y="1047" on="1"/>
        <pt x="1061" y="965" on="1"/>
        <pt x="952" y="1010" on="0"/>
        <pt x="827" y="1010" on="1"/>
        <pt x="675" y="1010" on="0"/>
        <pt x="535" y="852" on="0"/>
        <pt x="535" y="512" on="0"/>
        <pt x="676" y="354" on="0"/>
        <pt x="827" y="354" on="1"/>
        <pt x="948" y="354" on="0"/>
        <pt x="1061" y="401" on="1"/>
        <pt x="1061" y="319" on="1"/>
        <pt x="946" y="274" on="0"/>
        <pt x="817" y="274" on="1"/>
        <pt x="448" y="274" on="0"/>
      </contour>
    </TTGlyph>
    <TTGlyph name="d" xMin="129" yMin="-16" xMax="997" yMax="1411">
      <contour>
        <pt x="129" y="524" on="1"/>
        <pt x="129" y="676" on="0"/>
        <pt x="211" y="889" on="0"/>
        <pt x="356" y="995" on="0"/>
        <pt x="506" y="1038" on="0"/>
        <pt x="596" y="1038" on="1"/>
        <pt x="731" y="1038" on="0"/>
        <pt x="850" y="999" on="1"/>
        <pt x="850" y="1411" on="1"/>
        <pt x="997" y="1411" on="1"/>
        <pt x="997" y="305" on="1"/>
        <pt x="997" y="264" on="0"/>
        <pt x="973" y="178" on="0"/>
        <pt x="897" y="59" on="0"/>
        <pt x="713" y="-16" on="0"/>
        <pt x="578" y="-16" on="1"/>
        <pt x="521" y="-16" on="0"/>
        <pt x="412" y="4" on="0"/>
        <pt x="285" y="74" on="0"/>
        <pt x="193" y="186" on="0"/>
        <pt x="129" y="389" on="0"/>
      </contour>
      <contour>
        <pt x="276" y="524" on="1"/>
        <pt x="276" y="395" on="0"/>
        <pt x="332" y="221" on="0"/>
        <pt x="430" y="145" on="0"/>
        <pt x="520" y="119" on="0"/>
        <pt x="578" y="119" on="1"/>
        <pt x="850" y="119" on="0"/>
        <pt x="850" y="299" on="1"/>
        <pt x="850" y="852" on="1"/>
        <pt x="725" y="903" on="0"/>
        <pt x="596" y="903" on="1"/>
        <pt x="428" y="903" on="0"/>
        <pt x="276" y="723" on="0"/>
      </contour>
    </TTGlyph>
    <TTGlyph name="degree" xMin="168" yMin="915" xMax="614" yMax="1370">
      <contour>
        <pt x="168" y="1142" on="1"/>
        <pt x="168" y="1370" on="0"/>
        <pt x="391" y="1370" on="1"/>
        <pt x="500" y="1370" on="0"/>
        <pt x="614" y="1253" on="0"/>
        <pt x="614" y="1143" on="1"/>
        <pt x="614" y="916" on="0"/>
        <pt x="391" y="916" on="1"/>
        <pt x="391" y="915" on="0"/>
        <pt x="390" y="915" on="1"/>
        <pt x="168" y="915" on="0"/>
      </contour>
      <contour>
        <pt x="242" y="1143" on="1"/>
        <pt x="242" y="1061" on="0"/>
        <pt x="311" y="989" on="0"/>
        <pt x="391" y="989" on="1"/>
        <pt x="469" y="989" on="0"/>
        <pt x="541" y="1061" on="0"/>
        <pt x="541" y="1143" on="1"/>
        <pt x="541" y="1223" on="0"/>
        <pt x="469" y="1296" on="0"/>
        <pt x="391" y="1296" on="1"/>
        <pt x="311" y="1296" on="0"/>
        <pt x="242" y="1223" on="0"/>
      </contour>
    </TTGlyph>
    <TTGlyph name="dieresis" xMin="162" yMin="1155" xMax="627" yMax="1317">
      <contour>
        <pt x="162" y="1155" on="1"/>
        <pt x="162" y="1317" on="1"/>
        <pt x="324" y="1317" on="1"/>
        <pt x="324" y="1155" on="1"/>
      </contour>
      <contour>
        <pt x="465" y="1155" on="1"/>
        <pt x="465" y="1317" on="1"/>
        <pt x="627" y="1317" on="1"/>
        <pt x="627" y="1155" on="1"/>
      </contour>
    </TTGlyph>
    <TTGlyph name="divide" xMin="227" yMin="152" xMax="1059" yMax="899">
      <contour>
        <pt x="227" y="465" on="1"/>
        <pt x="1059" y="465" on="1"/>
        <pt x="1059" y="588" on="1"/>
        <pt x="227" y="588" on="1"/>
      </contour>
      <contour>
        <pt x="561" y="152" on="1"/>
        <pt x="561" y="315" on="1"/>
        <pt x="725" y="315" on="1"/>
        <pt x="725" y="152" on="1"/>
      </contour>
      <contour>
        <pt x="561" y="735" on="1"/>
        <pt x="561" y="899" on="1"/>
        <pt x="725" y="899" on="1"/>
        <pt x="725" y="735" on="1"/>
      </contour>
    </TTGlyph>
    <TTGlyph name="dollar" xMin="154" yMin="-221" xMax="1055" yMax="1589">
      <contour>
        <pt x="154" y="1004" on="1"/>
        <pt x="154" y="1147" on="0"/>
        <pt x="344" y="1360" on="0"/>
        <pt x="543" y="1380" on="1"/>
        <pt x="543" y="1589" on="1"/>
        <pt x="653" y="1589" on="1"/>
        <pt x="653" y="1384" on="1"/>
        <pt x="819" y="1376" on="0"/>
        <pt x="967" y="1303" on="1"/>
        <pt x="967" y="1151" on="1"/>
        <pt x="817" y="1235" on="0"/>
        <pt x="653" y="1237" on="1"/>
        <pt x="653" y="768" on="1"/>
        <pt x="741" y="739" on="0"/>
        <pt x="860" y="686" on="0"/>
        <pt x="989" y="592" on="0"/>
        <pt x="1055" y="446" on="0"/>
        <pt x="1055" y="348" on="1"/>
        <pt x="1055" y="192" on="0"/>
        <pt x="844" y="4" on="0"/>
        <pt x="653" y="-12" on="1"/>
        <pt x="653" y="-221" on="1"/>
        <pt x="543" y="-221" on="1"/>
        <pt x="543" y="-16" on="1"/>
        <pt x="336" y="-10" on="0"/>
        <pt x="166" y="80" on="1"/>
        <pt x="166" y="240" on="1"/>
        <pt x="324" y="136" on="0"/>
        <pt x="543" y="131" on="1"/>
        <pt x="543" y="651" on="1"/>
        <pt x="467" y="674" on="0"/>
        <pt x="385" y="702" on="0"/>
        <pt x="264" y="762" on="0"/>
        <pt x="201" y="829" on="0"/>
        <pt x="154" y="936" on="0"/>
      </contour>
      <contour>
        <pt x="301" y="1004" on="1"/>
        <pt x="301" y="926" on="0"/>
        <pt x="424" y="840" on="0"/>
        <pt x="543" y="803" on="1"/>
        <pt x="543" y="1231" on="1"/>
        <pt x="301" y="1197" on="0"/>
      </contour>
      <contour>
        <pt x="653" y="135" on="1"/>
        <pt x="907" y="168" on="0"/>
        <pt x="907" y="348" on="1"/>
        <pt x="907" y="454" on="0"/>
        <pt x="776" y="573" on="0"/>
        <pt x="653" y="616" on="1"/>
      </contour>
    </TTGlyph>
    <TTGlyph name="e" xMin="129" yMin="-16" xMax="1028" yMax="1040">
      <contour>
        <pt x="129" y="498" on="1"/>
        <pt x="129" y="500" on="0"/>
        <pt x="129" y="510" on="0"/>
        <pt x="129" y="513" on="1"/>
        <pt x="129" y="1040" on="0"/>
        <pt x="578" y="1040" on="1"/>
        <pt x="672" y="1040" on="0"/>
        <pt x="825" y="981" on="0"/>
        <pt x="915" y="901" on="0"/>
        <pt x="983" y="772" on="0"/>
        <pt x="1012" y="682" on="0"/>
        <pt x="1020" y="618" on="1"/>
        <pt x="1028" y="556" on="0"/>
        <pt x="1028" y="540" on="1"/>
        <pt x="1028" y="496" on="1"/>
        <pt x="1024" y="424" on="1"/>
        <pt x="279" y="424" on="1"/>
        <pt x="293" y="270" on="0"/>
        <pt x="453" y="131" on="0"/>
        <pt x="610" y="131" on="1"/>
        <pt x="833" y="131" on="0"/>
        <pt x="961" y="207" on="1"/>
        <pt x="961" y="55" on="1"/>
        <pt x="813" y="-16" on="0"/>
        <pt x="602" y="-16" on="1"/>
        <pt x="599" y="-16" on="0"/>
        <pt x="596" y="-16" on="1"/>
        <pt x="506" y="-16" on="0"/>
        <pt x="356" y="27" on="0"/>
        <pt x="211" y="133" on="0"/>
        <pt x="129" y="346" on="0"/>
      </contour>
      <contour>
        <pt x="279" y="555" on="1"/>
        <pt x="877" y="555" on="1"/>
        <pt x="877" y="590" on="0"/>
        <pt x="860" y="676" on="0"/>
        <pt x="809" y="811" on="0"/>
        <pt x="676" y="901" on="0"/>
        <pt x="578" y="901" on="1"/>
        <pt x="426" y="901" on="0"/>
        <pt x="289" y="743" on="0"/>
      </contour>
    </TTGlyph>
    <TTGlyph name="eacute" xMin="129" yMin="-16" xMax="1028" yMax="1391">
      <contour>
        <pt x="129" y="498" on="1"/>
        <pt x="129" y="500" on="0"/>
        <pt x="129" y="510" on="0"/>
        <pt x="129" y="513" on="1"/>
        <pt x="129" y="1040" on="0"/>
        <pt x="578" y="1040" on="1"/>
        <pt x="672" y="1040" on="0"/>
        <pt x="825" y="981" on="0"/>
        <pt x="915" y="901" on="0"/>
        <pt x="983" y="772" on="0"/>
        <pt x="1012" y="682" on="0"/>
        <pt x="1028" y="555" on="0"/>
        <pt x="1028" y="540" on="1"/>
        <pt x="1028" y="496" on="1"/>
        <pt x="1024" y="424" on="1"/>
        <pt x="279" y="424" on="1"/>
        <pt x="293" y="270" on="0"/>
        <pt x="453" y="131" on="0"/>
        <pt x="610" y="131" on="1"/>
        <pt x="833" y="131" on="0"/>
        <pt x="961" y="207" on="1"/>
        <pt x="961" y="55" on="1"/>
        <pt x="813" y="-16" on="0"/>
        <pt x="602" y="-16" on="1"/>
        <pt x="599" y="-16" on="0"/>
        <pt x="596" y="-16" on="1"/>
        <pt x="506" y="-16" on="0"/>
        <pt x="356" y="27" on="0"/>
        <pt x="211" y="133" on="0"/>
        <pt x="129" y="346" on="0"/>
      </contour>
      <contour>
        <pt x="279" y="555" on="1"/>
        <pt x="877" y="555" on="1"/>
        <pt x="877" y="590" on="0"/>
        <pt x="860" y="676" on="0"/>
        <pt x="809" y="811" on="0"/>
        <pt x="676" y="901" on="0"/>
        <pt x="578" y="901" on="1"/>
        <pt x="426" y="901" on="0"/>
        <pt x="289" y="743" on="0"/>
      </contour>
      <contour>
        <pt x="506" y="1155" on="1"/>
        <pt x="623" y="1391" on="1"/>
        <pt x="774" y="1391" on="1"/>
        <pt x="604" y="1155" on="1"/>
      </contour>
    </TTGlyph>
    <TTGlyph name="ecircumflex" xMin="129" yMin="-16" xMax="1028" yMax="1401">
      <contour>
        <pt x="129" y="498" on="1"/>
        <pt x="129" y="500" on="0"/>
        <pt x="129" y="510" on="0"/>
        <pt x="129" y="513" on="1"/>
        <pt x="129" y="1040" on="0"/>
        <pt x="578" y="1040" on="1"/>
        <pt x="672" y="1040" on="0"/>
        <pt x="825" y="981" on="0"/>
        <pt x="915" y="901" on="0"/>
        <pt x="983" y="772" on="0"/>
        <pt x="1012" y="682" on="0"/>
        <pt x="1028" y="555" on="0"/>
        <pt x="1028" y="540" on="1"/>
        <pt x="1028" y="496" on="1"/>
        <pt x="1024" y="424" on="1"/>
        <pt x="279" y="424" on="1"/>
        <pt x="293" y="270" on="0"/>
        <pt x="453" y="131" on="0"/>
        <pt x="610" y="131" on="1"/>
        <pt x="833" y="131" on="0"/>
        <pt x="961" y="207" on="1"/>
        <pt x="961" y="55" on="1"/>
        <pt x="813" y="-16" on="0"/>
        <pt x="602" y="-16" on="1"/>
        <pt x="599" y="-16" on="0"/>
        <pt x="596" y="-16" on="1"/>
        <pt x="506" y="-16" on="0"/>
        <pt x="356" y="27" on="0"/>
        <pt x="211" y="133" on="0"/>
        <pt x="129" y="346" on="0"/>
      </contour>
      <contour>
        <pt x="279" y="555" on="1"/>
        <pt x="877" y="555" on="1"/>
        <pt x="877" y="590" on="0"/>
        <pt x="860" y="676" on="0"/>
        <pt x="809" y="811" on="0"/>
        <pt x="676" y="901" on="0"/>
        <pt x="578" y="901" on="1"/>
        <pt x="426" y="901" on="0"/>
        <pt x="289" y="743" on="0"/>
      </contour>
      <contour>
        <pt x="371" y="1155" on="1"/>
        <pt x="535" y="1401" on="1"/>
        <pt x="621" y="1401" on="1"/>
        <pt x="784" y="1155" on="1"/>
        <pt x="670" y="1155" on="1"/>
        <pt x="578" y="1298" on="1"/>
        <pt x="485" y="1155" on="1"/>
      </contour>
    </TTGlyph>
    <TTGlyph name="edieresis" xMin="129" yMin="-16" xMax="1028" yMax="1317">
      <contour>
        <pt x="129" y="498" on="1"/>
        <pt x="129" y="500" on="0"/>
        <pt x="129" y="510" on="0"/>
        <pt x="129" y="513" on="1"/>
        <pt x="129" y="1040" on="0"/>
        <pt x="578" y="1040" on="1"/>
        <pt x="672" y="1040" on="0"/>
        <pt x="825" y="981" on="0"/>
        <pt x="915" y="901" on="0"/>
        <pt x="983" y="772" on="0"/>
        <pt x="1012" y="682" on="0"/>
        <pt x="1028" y="555" on="0"/>
        <pt x="1028" y="540" on="1"/>
        <pt x="1028" y="496" on="1"/>
        <pt x="1024" y="424" on="1"/>
        <pt x="279" y="424" on="1"/>
        <pt x="293" y="270" on="0"/>
        <pt x="453" y="131" on="0"/>
        <pt x="610" y="131" on="1"/>
        <pt x="833" y="131" on="0"/>
        <pt x="961" y="207" on="1"/>
        <pt x="961" y="55" on="1"/>
        <pt x="813" y="-16" on="0"/>
        <pt x="602" y="-16" on="1"/>
        <pt x="599" y="-16" on="0"/>
        <pt x="596" y="-16" on="1"/>
        <pt x="506" y="-16" on="0"/>
        <pt x="356" y="27" on="0"/>
        <pt x="211" y="133" on="0"/>
        <pt x="129" y="346" on="0"/>
      </contour>
      <contour>
        <pt x="279" y="555" on="1"/>
        <pt x="877" y="555" on="1"/>
        <pt x="877" y="590" on="0"/>
        <pt x="860" y="676" on="0"/>
        <pt x="809" y="811" on="0"/>
        <pt x="676" y="901" on="0"/>
        <pt x="578" y="901" on="1"/>
        <pt x="426" y="901" on="0"/>
        <pt x="289" y="743" on="0"/>
      </contour>
      <contour>
        <pt x="344" y="1155" on="1"/>
        <pt x="344" y="1317" on="1"/>
        <pt x="508" y="1317" on="1"/>
        <pt x="508" y="1155" on="1"/>
      </contour>
      <contour>
        <pt x="647" y="1155" on="1"/>
        <pt x="647" y="1317" on="1"/>
        <pt x="811" y="1317" on="1"/>
        <pt x="811" y="1155" on="1"/>
      </contour>
    </TTGlyph>
    <TTGlyph name="egrave" xMin="129" yMin="-16" xMax="1028" yMax="1391">
      <contour>
        <pt x="129" y="498" on="1"/>
        <pt x="129" y="500" on="0"/>
        <pt x="129" y="510" on="0"/>
        <pt x="129" y="513" on="1"/>
        <pt x="129" y="1040" on="0"/>
        <pt x="578" y="1040" on="1"/>
        <pt x="672" y="1040" on="0"/>
        <pt x="825" y="981" on="0"/>
        <pt x="915" y="901" on="0"/>
        <pt x="983" y="772" on="0"/>
        <pt x="1012" y="682" on="0"/>
        <pt x="1028" y="555" on="0"/>
        <pt x="1028" y="540" on="1"/>
        <pt x="1028" y="496" on="1"/>
        <pt x="1024" y="424" on="1"/>
        <pt x="279" y="424" on="1"/>
        <pt x="293" y="270" on="0"/>
        <pt x="453" y="131" on="0"/>
        <pt x="610" y="131" on="1"/>
        <pt x="833" y="131" on="0"/>
        <pt x="961" y="207" on="1"/>
        <pt x="961" y="55" on="1"/>
        <pt x="813" y="-16" on="0"/>
        <pt x="602" y="-16" on="1"/>
        <pt x="599" y="-16" on="0"/>
        <pt x="596" y="-16" on="1"/>
        <pt x="506" y="-16" on="0"/>
        <pt x="356" y="27" on="0"/>
        <pt x="211" y="133" on="0"/>
        <pt x="129" y="346" on="0"/>
      </contour>
      <contour>
        <pt x="279" y="555" on="1"/>
        <pt x="877" y="555" on="1"/>
        <pt x="877" y="590" on="0"/>
        <pt x="860" y="676" on="0"/>
        <pt x="809" y="811" on="0"/>
        <pt x="676" y="901" on="0"/>
        <pt x="578" y="901" on="1"/>
        <pt x="426" y="901" on="0"/>
        <pt x="289" y="743" on="0"/>
      </contour>
      <contour>
        <pt x="395" y="1391" on="1"/>
        <pt x="547" y="1391" on="1"/>
        <pt x="664" y="1155" on="1"/>
        <pt x="565" y="1155" on="1"/>
      </contour>
    </TTGlyph>
    <TTGlyph name="eight" xMin="125" yMin="-16" xMax="1071" yMax="1384">
      <contour>
        <pt x="125" y="406" on="1"/>
        <pt x="125" y="609" on="0"/>
        <pt x="309" y="713" on="1"/>
        <pt x="360" y="738" on="0"/>
        <pt x="360" y="737" on="1"/>
        <pt x="340" y="748" on="1"/>
        <pt x="328" y="754" on="0"/>
        <pt x="264" y="803" on="0"/>
        <pt x="215" y="864" on="0"/>
        <pt x="176" y="971" on="0"/>
        <pt x="176" y="1030" on="1"/>
        <pt x="176" y="1175" on="0"/>
        <pt x="383" y="1384" on="0"/>
        <pt x="813" y="1384" on="0"/>
        <pt x="1020" y="1178" on="0"/>
        <pt x="1020" y="1030" on="1"/>
        <pt x="1020" y="846" on="0"/>
        <pt x="872" y="756" on="1"/>
        <pt x="842" y="739" on="1"/>
        <pt x="852" y="735" on="0"/>
        <pt x="883" y="721" on="0"/>
        <pt x="961" y="666" on="0"/>
        <pt x="1022" y="596" on="0"/>
        <pt x="1071" y="475" on="0"/>
        <pt x="1071" y="406" on="1"/>
        <pt x="1071" y="328" on="0"/>
        <pt x="1020" y="186" on="0"/>
        <pt x="913" y="59" on="0"/>
        <pt x="723" y="-16" on="0"/>
        <pt x="598" y="-16" on="1"/>
        <pt x="358" y="-16" on="0"/>
        <pt x="125" y="238" on="0"/>
      </contour>
      <contour>
        <pt x="272" y="406" on="1"/>
        <pt x="272" y="379" on="0"/>
        <pt x="281" y="322" on="0"/>
        <pt x="319" y="236" on="0"/>
        <pt x="385" y="170" on="0"/>
        <pt x="512" y="123" on="0"/>
        <pt x="684" y="123" on="0"/>
        <pt x="811" y="170" on="0"/>
        <pt x="877" y="236" on="0"/>
        <pt x="915" y="322" on="0"/>
        <pt x="924" y="379" on="0"/>
        <pt x="924" y="406" on="1"/>
        <pt x="924" y="529" on="0"/>
        <pt x="756" y="659" on="0"/>
        <pt x="440" y="659" on="0"/>
        <pt x="272" y="528" on="0"/>
      </contour>
      <contour>
        <pt x="324" y="1030" on="1"/>
        <pt x="324" y="919" on="0"/>
        <pt x="469" y="795" on="0"/>
        <pt x="727" y="795" on="0"/>
        <pt x="872" y="920" on="0"/>
        <pt x="872" y="1030" on="1"/>
        <pt x="872" y="1239" on="0"/>
        <pt x="324" y="1239" on="0"/>
      </contour>
    </TTGlyph>
    <TTGlyph name="ellipsis" xMin="219" yMin="0" xMax="1362" yMax="164">
      <contour>
        <pt x="219" y="0" on="1"/>
        <pt x="219" y="164" on="1"/>
        <pt x="383" y="164" on="1"/>
        <pt x="383" y="0" on="1"/>
      </contour>
      <contour>
        <pt x="711" y="0" on="1"/>
        <pt x="711" y="164" on="1"/>
        <pt x="872" y="164" on="1"/>
        <pt x="872" y="0" on="1"/>
      </contour>
      <contour>
        <pt x="1200" y="0" on="1"/>
        <pt x="1200" y="164" on="1"/>
        <pt x="1362" y="164" on="1"/>
        <pt x="1362" y="0" on="1"/>
      </contour>
    </TTGlyph>
    <TTGlyph name="emdash" xMin="162" yMin="528" xMax="1663" yMax="664">
      <contour>
        <pt x="162" y="528" on="1"/>
        <pt x="162" y="664" on="1"/>
        <pt x="1663" y="664" on="1"/>
        <pt x="1663" y="528" on="1"/>
      </contour>
    </TTGlyph>
    <TTGlyph name="endash" xMin="141" yMin="528" xMax="1001" yMax="655">
      <contour>
        <pt x="141" y="528" on="1"/>
        <pt x="141" y="655" on="1"/>
        <pt x="1001" y="655" on="1"/>
        <pt x="1001" y="528" on="1"/>
      </contour>
    </TTGlyph>
    <TTGlyph name="equal" xMin="260" yMin="381" xMax="1049" yMax="840">
      <contour>
        <pt x="260" y="381" on="1"/>
        <pt x="260" y="524" on="1"/>
        <pt x="1049" y="524" on="1"/>
        <pt x="1049" y="381" on="1"/>
      </contour>
      <contour>
        <pt x="260" y="698" on="1"/>
        <pt x="260" y="840" on="1"/>
        <pt x="1049" y="840" on="1"/>
        <pt x="1049" y="698" on="1"/>
      </contour>
    </TTGlyph>
    <TTGlyph name="eth" xMin="119" yMin="-16" xMax="1049" yMax="1405">
      <contour>
        <pt x="119" y="444" on="1"/>
        <pt x="119" y="643" on="0"/>
        <pt x="369" y="874" on="0"/>
        <pt x="584" y="874" on="1"/>
        <pt x="770" y="874" on="0"/>
        <pt x="891" y="784" on="1"/>
        <pt x="866" y="1028" on="0"/>
        <pt x="717" y="1149" on="1"/>
        <pt x="487" y="1020" on="1"/>
        <pt x="432" y="1118" on="1"/>
        <pt x="602" y="1212" on="1"/>
        <pt x="516" y="1245" on="0"/>
        <pt x="410" y="1245" on="1"/>
        <pt x="369" y="1245" on="0"/>
        <pt x="299" y="1237" on="1"/>
        <pt x="299" y="1374" on="1"/>
        <pt x="365" y="1384" on="0"/>
        <pt x="426" y="1384" on="1"/>
        <pt x="610" y="1384" on="0"/>
        <pt x="754" y="1298" on="1"/>
        <pt x="944" y="1405" on="1"/>
        <pt x="997" y="1307" on="1"/>
        <pt x="852" y="1223" on="1"/>
        <pt x="1049" y="1030" on="0"/>
        <pt x="1049" y="627" on="1"/>
        <pt x="1049" y="-16" on="0"/>
        <pt x="584" y="-16" on="1"/>
        <pt x="461" y="-16" on="0"/>
        <pt x="274" y="66" on="0"/>
        <pt x="170" y="203" on="0"/>
        <pt x="119" y="360" on="0"/>
      </contour>
      <contour>
        <pt x="266" y="446" on="1"/>
        <pt x="266" y="405" on="0"/>
        <pt x="285" y="319" on="0"/>
        <pt x="342" y="199" on="0"/>
        <pt x="482" y="123" on="0"/>
        <pt x="584" y="123" on="1"/>
        <pt x="627" y="123" on="0"/>
        <pt x="682" y="129" on="0"/>
        <pt x="784" y="182" on="0"/>
        <pt x="848" y="279" on="0"/>
        <pt x="899" y="479" on="0"/>
        <pt x="901" y="621" on="1"/>
        <pt x="791" y="737" on="0"/>
        <pt x="587" y="737" on="1"/>
        <pt x="586" y="737" on="0"/>
        <pt x="584" y="737" on="1"/>
        <pt x="430" y="737" on="0"/>
        <pt x="266" y="586" on="0"/>
      </contour>
    </TTGlyph>
    <TTGlyph name="exclam" xMin="303" yMin="0" xMax="467" yMax="1366">
      <contour>
        <pt x="303" y="0" on="1"/>
        <pt x="303" y="164" on="1"/>
        <pt x="467" y="164" on="1"/>
        <pt x="467" y="0" on="1"/>
      </contour>
      <contour>
        <pt x="311" y="1366" on="1"/>
        <pt x="459" y="1366" on="1"/>
        <pt x="444" y="344" on="1"/>
        <pt x="326" y="344" on="1"/>
      </contour>
    </TTGlyph>
    <TTGlyph name="exclamdown" xMin="303" yMin="-344" xMax="467" yMax="1022">
      <contour>
        <pt x="303" y="860" on="1"/>
        <pt x="303" y="1022" on="1"/>
        <pt x="467" y="1022" on="1"/>
        <pt x="467" y="860" on="1"/>
      </contour>
      <contour>
        <pt x="311" y="-344" on="1"/>
        <pt x="326" y="678" on="1"/>
        <pt x="444" y="678" on="1"/>
        <pt x="459" y="-344" on="1"/>
      </contour>
    </TTGlyph>
    <TTGlyph name="f" xMin="82" yMin="0" xMax="686" yMax="1452">
      <contour>
        <pt x="82" y="887" on="1"/>
        <pt x="82" y="1022" on="1"/>
        <pt x="258" y="1022" on="1"/>
        <pt x="258" y="1077" on="1"/>
        <pt x="258" y="1183" on="0"/>
        <pt x="313" y="1335" on="0"/>
        <pt x="383" y="1407" on="0"/>
        <pt x="492" y="1448" on="0"/>
        <pt x="549" y="1452" on="0"/>
        <pt x="588" y="1452" on="1"/>
        <pt x="643" y="1452" on="0"/>
        <pt x="686" y="1440" on="1"/>
        <pt x="686" y="1309" on="1"/>
        <pt x="645" y="1317" on="0"/>
        <pt x="612" y="1317" on="1"/>
        <pt x="563" y="1317" on="0"/>
        <pt x="512" y="1309" on="0"/>
        <pt x="440" y="1268" on="0"/>
        <pt x="406" y="1163" on="0"/>
        <pt x="406" y="1079" on="1"/>
        <pt x="406" y="1022" on="1"/>
        <pt x="686" y="1022" on="1"/>
        <pt x="686" y="887" on="1"/>
        <pt x="406" y="887" on="1"/>
        <pt x="406" y="0" on="1"/>
        <pt x="258" y="0" on="1"/>
        <pt x="258" y="887" on="1"/>
      </contour>
    </TTGlyph>
    <TTGlyph name="five" xMin="178" yMin="-16" xMax="1036" yMax="1366">
      <contour>
        <pt x="178" y="735" on="1"/>
        <pt x="248" y="1366" on="1"/>
        <pt x="950" y="1366" on="1"/>
        <pt x="950" y="1221" on="1"/>
        <pt x="375" y="1221" on="1"/>
        <pt x="336" y="815" on="1"/>
        <pt x="457" y="852" on="0"/>
        <pt x="602" y="852" on="1"/>
        <pt x="686" y="852" on="0"/>
        <pt x="825" y="815" on="0"/>
        <pt x="958" y="725" on="0"/>
        <pt x="1036" y="545" on="0"/>
        <pt x="1036" y="291" on="0"/>
        <pt x="958" y="111" on="0"/>
        <pt x="825" y="20" on="0"/>
        <pt x="686" y="-16" on="0"/>
        <pt x="602" y="-16" on="1"/>
        <pt x="366" y="-16" on="0"/>
        <pt x="211" y="68" on="1"/>
        <pt x="211" y="221" on="1"/>
        <pt x="361" y="127" on="0"/>
        <pt x="592" y="127" on="1"/>
        <pt x="672" y="127" on="0"/>
        <pt x="788" y="166" on="0"/>
        <pt x="850" y="219" on="0"/>
        <pt x="883" y="305" on="0"/>
        <pt x="891" y="373" on="0"/>
        <pt x="891" y="418" on="1"/>
        <pt x="891" y="510" on="0"/>
        <pt x="842" y="631" on="0"/>
        <pt x="748" y="686" on="0"/>
        <pt x="655" y="705" on="0"/>
        <pt x="592" y="705" on="1"/>
        <pt x="496" y="705" on="0"/>
        <pt x="334" y="672" on="0"/>
        <pt x="303" y="655" on="1"/>
        <pt x="270" y="641" on="1"/>
      </contour>
    </TTGlyph>
    <TTGlyph name="four" xMin="78" yMin="0" xMax="1083" yMax="1366">
      <contour>
        <pt x="78" y="410" on="1"/>
        <pt x="78" y="567" on="1"/>
        <pt x="723" y="1366" on="1"/>
        <pt x="889" y="1366" on="1"/>
        <pt x="889" y="547" on="1"/>
        <pt x="1083" y="547" on="1"/>
        <pt x="1083" y="410" on="1"/>
        <pt x="889" y="410" on="1"/>
        <pt x="889" y="0" on="1"/>
        <pt x="741" y="0" on="1"/>
        <pt x="741" y="410" on="1"/>
      </contour>
      <contour>
        <pt x="242" y="547" on="1"/>
        <pt x="741" y="547" on="1"/>
        <pt x="741" y="1155" on="1"/>
      </contour>
    </TTGlyph>
    <TTGlyph name="g" xMin="123" yMin="-395" xMax="963" yMax="1040">
      <contour>
        <pt x="123" y="516" on="1"/>
        <pt x="123" y="676" on="0"/>
        <pt x="209" y="899" on="0"/>
        <pt x="354" y="1001" on="0"/>
        <pt x="485" y="1040" on="0"/>
        <pt x="557" y="1040" on="1"/>
        <pt x="688" y="1040" on="0"/>
        <pt x="866" y="967" on="0"/>
        <pt x="938" y="852" on="0"/>
        <pt x="963" y="768" on="0"/>
        <pt x="963" y="727" on="1"/>
        <pt x="963" y="-43" on="1"/>
        <pt x="963" y="-111" on="0"/>
        <pt x="924" y="-225" on="0"/>
        <pt x="834" y="-334" on="0"/>
        <pt x="649" y="-395" on="0"/>
        <pt x="518" y="-395" on="1"/>
        <pt x="375" y="-395" on="0"/>
        <pt x="227" y="-358" on="1"/>
        <pt x="227" y="-219" on="1"/>
        <pt x="358" y="-256" on="0"/>
        <pt x="502" y="-256" on="1"/>
        <pt x="600" y="-256" on="0"/>
        <pt x="733" y="-221" on="0"/>
        <pt x="793" y="-156" on="0"/>
        <pt x="815" y="-92" on="0"/>
        <pt x="815" y="-47" on="1"/>
        <pt x="815" y="55" on="1"/>
        <pt x="700" y="18" on="0"/>
        <pt x="575" y="18" on="1"/>
        <pt x="507" y="18" on="0"/>
        <pt x="389" y="41" on="0"/>
        <pt x="266" y="109" on="0"/>
        <pt x="178" y="217" on="0"/>
        <pt x="123" y="397" on="0"/>
      </contour>
      <contour>
        <pt x="270" y="516" on="1"/>
        <pt x="270" y="401" on="0"/>
        <pt x="319" y="252" on="0"/>
        <pt x="414" y="180" on="0"/>
        <pt x="510" y="156" on="0"/>
        <pt x="575" y="156" on="1"/>
        <pt x="698" y="156" on="0"/>
        <pt x="815" y="203" on="1"/>
        <pt x="815" y="733" on="1"/>
        <pt x="815" y="905" on="0"/>
        <pt x="557" y="905" on="1"/>
        <pt x="502" y="905" on="0"/>
        <pt x="416" y="879" on="0"/>
        <pt x="322" y="805" on="0"/>
        <pt x="270" y="639" on="0"/>
      </contour>
    </TTGlyph>
    <TTGlyph name="germandbls" xMin="180" yMin="0" xMax="1143" yMax="1384">
      <contour>
        <pt x="180" y="0" on="1"/>
        <pt x="180" y="868" on="1"/>
        <pt x="180" y="981" on="0"/>
        <pt x="227" y="1161" on="0"/>
        <pt x="326" y="1305" on="0"/>
        <pt x="500" y="1384" on="0"/>
        <pt x="621" y="1384" on="1"/>
        <pt x="850" y="1384" on="0"/>
        <pt x="1075" y="1159" on="0"/>
        <pt x="1075" y="1004" on="1"/>
        <pt x="1075" y="953" on="0"/>
        <pt x="1036" y="854" on="0"/>
        <pt x="983" y="784" on="0"/>
        <pt x="928" y="731" on="0"/>
        <pt x="909" y="717" on="1"/>
        <pt x="889" y="705" on="1"/>
        <pt x="899" y="701" on="0"/>
        <pt x="934" y="684" on="0"/>
        <pt x="1022" y="623" on="0"/>
        <pt x="1087" y="551" on="0"/>
        <pt x="1143" y="434" on="0"/>
        <pt x="1143" y="369" on="1"/>
        <pt x="1143" y="199" on="0"/>
        <pt x="842" y="0" on="0"/>
        <pt x="608" y="0" on="1"/>
        <pt x="608" y="133" on="1"/>
        <pt x="770" y="133" on="0"/>
        <pt x="995" y="256" on="0"/>
        <pt x="995" y="383" on="1"/>
        <pt x="995" y="512" on="0"/>
        <pt x="754" y="631" on="0"/>
        <pt x="608" y="631" on="1"/>
        <pt x="608" y="760" on="1"/>
        <pt x="753" y="760" on="0"/>
        <pt x="928" y="885" on="0"/>
        <pt x="928" y="1004" on="1"/>
        <pt x="928" y="1127" on="0"/>
        <pt x="758" y="1247" on="0"/>
        <pt x="621" y="1247" on="1"/>
        <pt x="480" y="1247" on="0"/>
        <pt x="328" y="1073" on="0"/>
        <pt x="328" y="860" on="1"/>
        <pt x="328" y="0" on="1"/>
      </contour>
    </TTGlyph>
    <TTGlyph name="grave" xMin="94" yMin="1155" xMax="360" yMax="1391">
      <contour>
        <pt x="94" y="1391" on="1"/>
        <pt x="244" y="1391" on="1"/>
        <pt x="360" y="1155" on="1"/>
        <pt x="264" y="1155" on="1"/>
      </contour>
    </TTGlyph>
    <TTGlyph name="greater" xMin="270" yMin="98" xMax="1112" yMax="1004">
      <contour>
        <pt x="270" y="98" on="1"/>
        <pt x="270" y="260" on="1"/>
        <pt x="940" y="551" on="1"/>
        <pt x="270" y="840" on="1"/>
        <pt x="270" y="1004" on="1"/>
        <pt x="1112" y="621" on="1"/>
        <pt x="1112" y="481" on="1"/>
      </contour>
    </TTGlyph>
    <TTGlyph name="guillemotleft" xMin="63" yMin="131" xMax="997" yMax="911">
      <contour>
        <pt x="63" y="522" on="1"/>
        <pt x="410" y="911" on="1"/>
        <pt x="608" y="911" on="1"/>
        <pt x="244" y="522" on="1"/>
        <pt x="608" y="131" on="1"/>
        <pt x="410" y="131" on="1"/>
      </contour>
      <contour>
        <pt x="453" y="522" on="1"/>
        <pt x="799" y="911" on="1"/>
        <pt x="997" y="911" on="1"/>
        <pt x="633" y="522" on="1"/>
        <pt x="997" y="131" on="1"/>
        <pt x="799" y="131" on="1"/>
      </contour>
    </TTGlyph>
    <TTGlyph name="guillemotright" xMin="137" yMin="131" xMax="1071" yMax="911">
      <contour>
        <pt x="137" y="131" on="1"/>
        <pt x="500" y="522" on="1"/>
        <pt x="137" y="911" on="1"/>
        <pt x="334" y="911" on="1"/>
        <pt x="682" y="522" on="1"/>
        <pt x="334" y="131" on="1"/>
      </contour>
      <contour>
        <pt x="526" y="131" on="1"/>
        <pt x="889" y="522" on="1"/>
        <pt x="526" y="911" on="1"/>
        <pt x="723" y="911" on="1"/>
        <pt x="1071" y="522" on="1"/>
        <pt x="723" y="131" on="1"/>
      </contour>
    </TTGlyph>
    <TTGlyph name="guilsinglleft" xMin="63" yMin="131" xMax="608" yMax="911">
      <contour>
        <pt x="63" y="522" on="1"/>
        <pt x="410" y="911" on="1"/>
        <pt x="608" y="911" on="1"/>
        <pt x="244" y="522" on="1"/>
        <pt x="608" y="131" on="1"/>
        <pt x="410" y="131" on="1"/>
      </contour>
    </TTGlyph>
    <TTGlyph name="guilsinglright" xMin="137" yMin="131" xMax="682" yMax="911">
      <contour>
        <pt x="137" y="131" on="1"/>
        <pt x="500" y="522" on="1"/>
        <pt x="137" y="911" on="1"/>
        <pt x="334" y="911" on="1"/>
        <pt x="682" y="522" on="1"/>
        <pt x="334" y="131" on="1"/>
      </contour>
    </TTGlyph>
    <TTGlyph name="h" xMin="193" yMin="0" xMax="1042" yMax="1411">
      <contour>
        <pt x="193" y="0" on="1"/>
        <pt x="193" y="1411" on="1"/>
        <pt x="340" y="1411" on="1"/>
        <pt x="340" y="975" on="1"/>
        <pt x="495" y="1040" on="0"/>
        <pt x="649" y="1040" on="1"/>
        <pt x="837" y="1040" on="0"/>
        <pt x="1042" y="813" on="0"/>
        <pt x="1042" y="606" on="1"/>
        <pt x="1042" y="0" on="1"/>
        <pt x="895" y="0" on="1"/>
        <pt x="895" y="606" on="1"/>
        <pt x="895" y="893" on="0"/>
        <pt x="633" y="893" on="1"/>
        <pt x="490" y="893" on="0"/>
        <pt x="340" y="831" on="1"/>
        <pt x="340" y="0" on="1"/>
      </contour>
    </TTGlyph>
    <TTGlyph name="hyphen" xMin="162" yMin="539" xMax="786" yMax="682">
      <contour>
        <pt x="162" y="539" on="1"/>
        <pt x="162" y="682" on="1"/>
        <pt x="786" y="682" on="1"/>
        <pt x="786" y="539" on="1"/>
      </contour>
    </TTGlyph>
    <TTGlyph name="i" xMin="193" yMin="0" xMax="356" yMax="1366">
      <contour>
        <pt x="193" y="1204" on="1"/>
        <pt x="193" y="1366" on="1"/>
        <pt x="356" y="1366" on="1"/>
        <pt x="356" y="1204" on="1"/>
      </contour>
      <contour>
        <pt x="201" y="0" on="1"/>
        <pt x="348" y="0" on="1"/>
        <pt x="348" y="1022" on="1"/>
        <pt x="201" y="1022" on="1"/>
      </contour>
    </TTGlyph>
    <TTGlyph name="iacute" xMin="203" yMin="0" xMax="494" yMax="1391">
      <contour>
        <pt x="203" y="0" on="1"/>
        <pt x="350" y="0" on="1"/>
        <pt x="350" y="1022" on="1"/>
        <pt x="203" y="1022" on="1"/>
      </contour>
      <contour>
        <pt x="227" y="1155" on="1"/>
        <pt x="342" y="1391" on="1"/>
        <pt x="494" y="1391" on="1"/>
        <pt x="324" y="1155" on="1"/>
      </contour>
    </TTGlyph>
    <TTGlyph name="icircumflex" xMin="68" yMin="0" xMax="483" yMax="1401">
      <contour>
        <pt x="68" y="1155" on="1"/>
        <pt x="233" y="1401" on="1"/>
        <pt x="317" y="1401" on="1"/>
        <pt x="483" y="1155" on="1"/>
        <pt x="369" y="1155" on="1"/>
        <pt x="276" y="1298" on="1"/>
        <pt x="182" y="1155" on="1"/>
      </contour>
      <contour>
        <pt x="203" y="0" on="1"/>
        <pt x="350" y="0" on="1"/>
        <pt x="350" y="1022" on="1"/>
        <pt x="203" y="1022" on="1"/>
      </contour>
    </TTGlyph>
    <TTGlyph name="idieresis" xMin="43" yMin="0" xMax="508" yMax="1317">
      <contour>
        <pt x="43" y="1155" on="1"/>
        <pt x="43" y="1317" on="1"/>
        <pt x="205" y="1317" on="1"/>
        <pt x="205" y="1155" on="1"/>
      </contour>
      <contour>
        <pt x="203" y="0" on="1"/>
        <pt x="350" y="0" on="1"/>
        <pt x="350" y="1022" on="1"/>
        <pt x="203" y="1022" on="1"/>
      </contour>
      <contour>
        <pt x="346" y="1155" on="1"/>
        <pt x="346" y="1317" on="1"/>
        <pt x="508" y="1317" on="1"/>
        <pt x="508" y="1155" on="1"/>
      </contour>
    </TTGlyph>
    <TTGlyph name="igrave" xMin="57" yMin="0" xMax="350" yMax="1391">
      <contour>
        <pt x="57" y="1391" on="1"/>
        <pt x="209" y="1391" on="1"/>
        <pt x="326" y="1155" on="1"/>
        <pt x="227" y="1155" on="1"/>
      </contour>
      <contour>
        <pt x="203" y="0" on="1"/>
        <pt x="203" y="1022" on="1"/>
        <pt x="350" y="1022" on="1"/>
        <pt x="350" y="0" on="1"/>
      </contour>
    </TTGlyph>
    <TTGlyph name="j" xMin="6" yMin="-395" xMax="371" yMax="1366">
      <contour>
        <pt x="6" y="-258" on="1"/>
        <pt x="133" y="-256" on="0"/>
        <pt x="215" y="-160" on="0"/>
        <pt x="215" y="-51" on="1"/>
        <pt x="215" y="1022" on="1"/>
        <pt x="362" y="1022" on="1"/>
        <pt x="362" y="-59" on="1"/>
        <pt x="362" y="-395" on="0"/>
        <pt x="6" y="-395" on="1"/>
      </contour>
      <contour>
        <pt x="207" y="1204" on="1"/>
        <pt x="207" y="1366" on="1"/>
        <pt x="371" y="1366" on="1"/>
        <pt x="371" y="1204" on="1"/>
      </contour>
    </TTGlyph>
    <TTGlyph name="k" xMin="188" yMin="0" xMax="1051" yMax="1411">
      <contour>
        <pt x="188" y="0" on="1"/>
        <pt x="188" y="1411" on="1"/>
        <pt x="336" y="1411" on="1"/>
        <pt x="336" y="520" on="1"/>
        <pt x="795" y="1022" on="1"/>
        <pt x="995" y="1022" on="1"/>
        <pt x="559" y="553" on="1"/>
        <pt x="1051" y="0" on="1"/>
        <pt x="854" y="0" on="1"/>
        <pt x="463" y="449" on="1"/>
        <pt x="336" y="311" on="1"/>
        <pt x="336" y="0" on="1"/>
      </contour>
    </TTGlyph>
    <TTGlyph name="l" xMin="207" yMin="0" xMax="354" yMax="1411">
      <contour>
        <pt x="207" y="0" on="1"/>
        <pt x="207" y="1411" on="1"/>
        <pt x="354" y="1411" on="1"/>
        <pt x="354" y="0" on="1"/>
      </contour>
    </TTGlyph>
    <TTGlyph name="less" xMin="246" yMin="98" xMax="1090" yMax="1004">
      <contour>
        <pt x="246" y="481" on="1"/>
        <pt x="246" y="621" on="1"/>
        <pt x="1090" y="1004" on="1"/>
        <pt x="1090" y="840" on="1"/>
        <pt x="418" y="551" on="1"/>
        <pt x="1090" y="260" on="1"/>
        <pt x="1090" y="98" on="1"/>
      </contour>
    </TTGlyph>
    <TTGlyph name="logicalnot" xMin="199" yMin="324" xMax="1075" yMax="664">
      <contour>
        <pt x="199" y="528" on="1"/>
        <pt x="199" y="664" on="1"/>
        <pt x="1075" y="664" on="1"/>
        <pt x="1075" y="324" on="1"/>
        <pt x="940" y="324" on="1"/>
        <pt x="940" y="528" on="1"/>
      </contour>
    </TTGlyph>
    <TTGlyph name="m" xMin="193" yMin="0" xMax="1642" yMax="1040">
      <contour>
        <pt x="193" y="0" on="1"/>
        <pt x="193" y="942" on="1"/>
        <pt x="390" y="1040" on="0"/>
        <pt x="602" y="1040" on="1"/>
        <pt x="770" y="1040" on="0"/>
        <pt x="872" y="956" on="1"/>
        <pt x="1069" y="1040" on="0"/>
        <pt x="1251" y="1040" on="1"/>
        <pt x="1437" y="1040" on="0"/>
        <pt x="1642" y="844" on="0"/>
        <pt x="1642" y="666" on="1"/>
        <pt x="1642" y="0" on="1"/>
        <pt x="1495" y="0" on="1"/>
        <pt x="1495" y="666" on="1"/>
        <pt x="1495" y="709" on="0"/>
        <pt x="1479" y="776" on="0"/>
        <pt x="1430" y="852" on="0"/>
        <pt x="1321" y="893" on="0"/>
        <pt x="1241" y="893" on="1"/>
        <pt x="1112" y="893" on="0"/>
        <pt x="958" y="842" on="1"/>
        <pt x="991" y="768" on="0"/>
        <pt x="991" y="666" on="1"/>
        <pt x="991" y="0" on="1"/>
        <pt x="844" y="0" on="1"/>
        <pt x="844" y="666" on="1"/>
        <pt x="844" y="711" on="0"/>
        <pt x="827" y="778" on="0"/>
        <pt x="778" y="852" on="0"/>
        <pt x="666" y="893" on="0"/>
        <pt x="584" y="893" on="1"/>
        <pt x="459" y="893" on="0"/>
        <pt x="340" y="856" on="1"/>
        <pt x="340" y="0" on="1"/>
      </contour>
    </TTGlyph>
    <TTGlyph name="macron" xMin="176" yMin="1180" xMax="655" yMax="1288">
      <contour>
        <pt x="176" y="1180" on="1"/>
        <pt x="176" y="1288" on="1"/>
        <pt x="655" y="1288" on="1"/>
        <pt x="655" y="1180" on="1"/>
      </contour>
    </TTGlyph>
    <TTGlyph name="multiply" xMin="158" yMin="160" xMax="836" yMax="889">
      <contour>
        <pt x="158" y="160" on="1"/>
        <pt x="430" y="524" on="1"/>
        <pt x="158" y="889" on="1"/>
        <pt x="289" y="889" on="1"/>
        <pt x="496" y="612" on="1"/>
        <pt x="705" y="889" on="1"/>
        <pt x="836" y="889" on="1"/>
        <pt x="563" y="524" on="1"/>
        <pt x="836" y="160" on="1"/>
        <pt x="705" y="160" on="1"/>
        <pt x="496" y="436" on="1"/>
        <pt x="289" y="160" on="1"/>
      </contour>
    </TTGlyph>
    <TTGlyph name="n" xMin="168" yMin="0" xMax="1006" yMax="1040">
      <contour>
        <pt x="168" y="0" on="1"/>
        <pt x="168" y="940" on="1"/>
        <pt x="369" y="1040" on="0"/>
        <pt x="600" y="1040" on="1"/>
        <pt x="793" y="1040" on="0"/>
        <pt x="1006" y="844" on="0"/>
        <pt x="1006" y="666" on="1"/>
        <pt x="1006" y="0" on="1"/>
        <pt x="858" y="0" on="1"/>
        <pt x="858" y="666" on="1"/>
        <pt x="858" y="709" on="0"/>
        <pt x="840" y="776" on="0"/>
        <pt x="788" y="852" on="0"/>
        <pt x="672" y="893" on="0"/>
        <pt x="584" y="893" on="1"/>
        <pt x="455" y="893" on="0"/>
        <pt x="315" y="852" on="1"/>
        <pt x="315" y="0" on="1"/>
      </contour>
    </TTGlyph>
    <TTGlyph name="nine" xMin="119" yMin="-16" xMax="1049" yMax="1384">
      <contour>
        <pt x="119" y="924" on="1"/>
        <pt x="119" y="1008" on="0"/>
        <pt x="170" y="1165" on="0"/>
        <pt x="274" y="1303" on="0"/>
        <pt x="461" y="1384" on="0"/>
        <pt x="584" y="1384" on="1"/>
        <pt x="1049" y="1384" on="0"/>
        <pt x="1049" y="741" on="1"/>
        <pt x="1049" y="546" on="0"/>
        <pt x="952" y="256" on="0"/>
        <pt x="817" y="100" on="0"/>
        <pt x="631" y="8" on="0"/>
        <pt x="496" y="-16" on="0"/>
        <pt x="426" y="-16" on="1"/>
        <pt x="322" y="-16" on="0"/>
        <pt x="227" y="8" on="1"/>
        <pt x="227" y="147" on="1"/>
        <pt x="308" y="123" on="0"/>
        <pt x="402" y="123" on="1"/>
        <pt x="406" y="123" on="0"/>
        <pt x="410" y="123" on="1"/>
        <pt x="457" y="123" on="0"/>
        <pt x="547" y="135" on="0"/>
        <pt x="684" y="188" on="0"/>
        <pt x="788" y="281" on="0"/>
        <pt x="879" y="461" on="0"/>
        <pt x="891" y="584" on="1"/>
        <pt x="770" y="494" on="0"/>
        <pt x="584" y="494" on="1"/>
        <pt x="369" y="494" on="0"/>
        <pt x="119" y="725" on="0"/>
      </contour>
      <contour>
        <pt x="266" y="922" on="1"/>
        <pt x="266" y="783" on="0"/>
        <pt x="430" y="631" on="0"/>
        <pt x="584" y="631" on="1"/>
        <pt x="791" y="631" on="0"/>
        <pt x="901" y="748" on="1"/>
        <pt x="899" y="889" on="0"/>
        <pt x="848" y="1090" on="0"/>
        <pt x="784" y="1186" on="0"/>
        <pt x="682" y="1239" on="0"/>
        <pt x="627" y="1245" on="0"/>
        <pt x="584" y="1245" on="1"/>
        <pt x="482" y="1245" on="0"/>
        <pt x="342" y="1169" on="0"/>
        <pt x="285" y="1049" on="0"/>
        <pt x="266" y="963" on="0"/>
      </contour>
    </TTGlyph>
    <TTGlyph name="ntilde" xMin="168" yMin="0" xMax="1006" yMax="1347">
      <contour>
        <pt x="168" y="0" on="1"/>
        <pt x="168" y="940" on="1"/>
        <pt x="369" y="1040" on="0"/>
        <pt x="600" y="1040" on="1"/>
        <pt x="793" y="1040" on="0"/>
        <pt x="1006" y="844" on="0"/>
        <pt x="1006" y="666" on="1"/>
        <pt x="1006" y="0" on="1"/>
        <pt x="858" y="0" on="1"/>
        <pt x="858" y="666" on="1"/>
        <pt x="858" y="709" on="0"/>
        <pt x="840" y="776" on="0"/>
        <pt x="788" y="852" on="0"/>
        <pt x="672" y="893" on="0"/>
        <pt x="584" y="893" on="1"/>
        <pt x="455" y="893" on="0"/>
        <pt x="315" y="852" on="1"/>
        <pt x="315" y="0" on="1"/>
      </contour>
      <contour>
        <pt x="299" y="1157" on="1"/>
        <pt x="299" y="1274" on="1"/>
        <pt x="352" y="1340" on="0"/>
        <pt x="412" y="1346" on="1"/>
        <pt x="423" y="1347" on="0"/>
        <pt x="433" y="1347" on="1"/>
        <pt x="482" y="1347" on="0"/>
        <pt x="530" y="1322" on="1"/>
        <pt x="642" y="1262" on="1"/>
        <pt x="689" y="1238" on="0"/>
        <pt x="739" y="1238" on="1"/>
        <pt x="749" y="1238" on="0"/>
        <pt x="760" y="1239" on="1"/>
        <pt x="821" y="1245" on="0"/>
        <pt x="874" y="1311" on="1"/>
        <pt x="874" y="1198" on="1"/>
        <pt x="821" y="1132" on="0"/>
        <pt x="760" y="1125" on="1"/>
        <pt x="748" y="1124" on="0"/>
        <pt x="736" y="1124" on="1"/>
        <pt x="687" y="1124" on="0"/>
        <pt x="642" y="1148" on="1"/>
        <pt x="530" y="1208" on="1"/>
        <pt x="484" y="1231" on="0"/>
        <pt x="436" y="1231" on="1"/>
        <pt x="424" y="1231" on="0"/>
        <pt x="412" y="1230" on="1"/>
        <pt x="352" y="1223" on="0"/>
      </contour>
    </TTGlyph>
    <TTGlyph name="numbersign" xMin="145" yMin="39" xMax="1079" yMax="1071">
      <contour>
        <pt x="145" y="258" on="1"/>
        <pt x="145" y="381" on="1"/>
        <pt x="334" y="381" on="1"/>
        <pt x="389" y="707" on="1"/>
        <pt x="203" y="707" on="1"/>
        <pt x="203" y="829" on="1"/>
        <pt x="412" y="829" on="1"/>
        <pt x="453" y="1071" on="1"/>
        <pt x="578" y="1071" on="1"/>
        <pt x="537" y="829" on="1"/>
        <pt x="807" y="829" on="1"/>
        <pt x="850" y="1071" on="1"/>
        <pt x="975" y="1071" on="1"/>
        <pt x="932" y="829" on="1"/>
        <pt x="1079" y="829" on="1"/>
        <pt x="1079" y="707" on="1"/>
        <pt x="911" y="707" on="1"/>
        <pt x="854" y="381" on="1"/>
        <pt x="1020" y="381" on="1"/>
        <pt x="1020" y="258" on="1"/>
        <pt x="834" y="258" on="1"/>
        <pt x="797" y="39" on="1"/>
        <pt x="672" y="39" on="1"/>
        <pt x="709" y="258" on="1"/>
        <pt x="438" y="258" on="1"/>
        <pt x="399" y="39" on="1"/>
        <pt x="274" y="39" on="1"/>
        <pt x="313" y="258" on="1"/>
      </contour>
      <contour>
        <pt x="459" y="381" on="1"/>
        <pt x="729" y="381" on="1"/>
        <pt x="786" y="707" on="1"/>
        <pt x="514" y="707" on="1"/>
      </contour>
    </TTGlyph>
    <TTGlyph name="o" xMin="100" yMin="-16" xMax="1061" yMax="1040">
      <contour>
        <pt x="100" y="356" on="0"/>
        <pt x="100" y="668" on="0"/>
        <pt x="186" y="887" on="0"/>
        <pt x="334" y="995" on="0"/>
        <pt x="487" y="1040" on="0"/>
        <pt x="672" y="1040" on="0"/>
        <pt x="827" y="995" on="0"/>
        <pt x="975" y="887" on="0"/>
        <pt x="1061" y="668" on="0"/>
        <pt x="1061" y="356" on="0"/>
        <pt x="975" y="137" on="0"/>
        <pt x="827" y="29" on="0"/>
        <pt x="672" y="-16" on="0"/>
        <pt x="487" y="-16" on="0"/>
        <pt x="334" y="29" on="0"/>
        <pt x="186" y="137" on="0"/>
      </contour>
      <contour>
        <pt x="248" y="717" on="0"/>
        <pt x="248" y="307" on="0"/>
        <pt x="406" y="119" on="0"/>
        <pt x="754" y="119" on="0"/>
        <pt x="913" y="305" on="0"/>
        <pt x="913" y="719" on="0"/>
        <pt x="754" y="905" on="0"/>
        <pt x="406" y="905" on="0"/>
      </contour>
    </TTGlyph>
    <TTGlyph name="oacute" xMin="100" yMin="-16" xMax="1061" yMax="1391">
      <contour>
        <pt x="100" y="356" on="0"/>
        <pt x="100" y="668" on="0"/>
        <pt x="186" y="887" on="0"/>
        <pt x="334" y="995" on="0"/>
        <pt x="489" y="1040" on="0"/>
        <pt x="674" y="1040" on="0"/>
        <pt x="827" y="995" on="0"/>
        <pt x="975" y="887" on="0"/>
        <pt x="1061" y="668" on="0"/>
        <pt x="1061" y="356" on="0"/>
        <pt x="975" y="137" on="0"/>
        <pt x="827" y="29" on="0"/>
        <pt x="674" y="-16" on="0"/>
        <pt x="489" y="-16" on="0"/>
        <pt x="334" y="29" on="0"/>
        <pt x="186" y="137" on="0"/>
      </contour>
      <contour>
        <pt x="248" y="719" on="0"/>
        <pt x="248" y="305" on="0"/>
        <pt x="408" y="119" on="0"/>
        <pt x="756" y="119" on="0"/>
        <pt x="913" y="307" on="0"/>
        <pt x="913" y="717" on="0"/>
        <pt x="756" y="905" on="0"/>
        <pt x="408" y="905" on="0"/>
      </contour>
      <contour>
        <pt x="530" y="1155" on="1"/>
        <pt x="647" y="1391" on="1"/>
        <pt x="799" y="1391" on="1"/>
        <pt x="629" y="1155" on="1"/>
      </contour>
    </TTGlyph>
    <TTGlyph name="ocircumflex" xMin="100" yMin="-16" xMax="1061" yMax="1401">
      <contour>
        <pt x="100" y="356" on="0"/>
        <pt x="100" y="668" on="0"/>
        <pt x="186" y="887" on="0"/>
        <pt x="334" y="995" on="0"/>
        <pt x="489" y="1040" on="0"/>
        <pt x="674" y="1040" on="0"/>
        <pt x="827" y="995" on="0"/>
        <pt x="975" y="887" on="0"/>
        <pt x="1061" y="668" on="0"/>
        <pt x="1061" y="356" on="0"/>
        <pt x="975" y="137" on="0"/>
        <pt x="827" y="29" on="0"/>
        <pt x="674" y="-16" on="0"/>
        <pt x="489" y="-16" on="0"/>
        <pt x="334" y="29" on="0"/>
        <pt x="186" y="137" on="0"/>
      </contour>
      <contour>
        <pt x="248" y="719" on="0"/>
        <pt x="248" y="305" on="0"/>
        <pt x="408" y="119" on="0"/>
        <pt x="756" y="119" on="0"/>
        <pt x="913" y="307" on="0"/>
        <pt x="913" y="717" on="0"/>
        <pt x="756" y="905" on="0"/>
        <pt x="408" y="905" on="0"/>
      </contour>
      <contour>
        <pt x="373" y="1155" on="1"/>
        <pt x="539" y="1401" on="1"/>
        <pt x="623" y="1401" on="1"/>
        <pt x="788" y="1155" on="1"/>
        <pt x="674" y="1155" on="1"/>
        <pt x="582" y="1298" on="1"/>
        <pt x="487" y="1155" on="1"/>
      </contour>
    </TTGlyph>
    <TTGlyph name="odieresis" xMin="100" yMin="-16" xMax="1061" yMax="1317">
      <contour>
        <pt x="100" y="356" on="0"/>
        <pt x="100" y="668" on="0"/>
        <pt x="186" y="887" on="0"/>
        <pt x="334" y="995" on="0"/>
        <pt x="489" y="1040" on="0"/>
        <pt x="674" y="1040" on="0"/>
        <pt x="827" y="995" on="0"/>
        <pt x="975" y="887" on="0"/>
        <pt x="1061" y="668" on="0"/>
        <pt x="1061" y="356" on="0"/>
        <pt x="975" y="137" on="0"/>
        <pt x="827" y="29" on="0"/>
        <pt x="674" y="-16" on="0"/>
        <pt x="489" y="-16" on="0"/>
        <pt x="334" y="29" on="0"/>
        <pt x="186" y="137" on="0"/>
      </contour>
      <contour>
        <pt x="248" y="719" on="0"/>
        <pt x="248" y="305" on="0"/>
        <pt x="408" y="119" on="0"/>
        <pt x="756" y="119" on="0"/>
        <pt x="913" y="307" on="0"/>
        <pt x="913" y="717" on="0"/>
        <pt x="756" y="905" on="0"/>
        <pt x="408" y="905" on="0"/>
      </contour>
      <contour>
        <pt x="348" y="1155" on="1"/>
        <pt x="348" y="1317" on="1"/>
        <pt x="510" y="1317" on="1"/>
        <pt x="510" y="1155" on="1"/>
      </contour>
      <contour>
        <pt x="651" y="1155" on="1"/>
        <pt x="651" y="1317" on="1"/>
        <pt x="813" y="1317" on="1"/>
        <pt x="813" y="1155" on="1"/>
      </contour>
    </TTGlyph>
    <TTGlyph name="oe" xMin="102" yMin="-16" xMax="1804" yMax="1040">
      <contour>
        <pt x="102" y="356" on="0"/>
        <pt x="102" y="668" on="0"/>
        <pt x="188" y="887" on="0"/>
        <pt x="336" y="995" on="0"/>
        <pt x="489" y="1040" on="0"/>
        <pt x="582" y="1040" on="1"/>
        <pt x="861" y="1040" on="0"/>
        <pt x="979" y="854" on="1"/>
        <pt x="1092" y="1040" on="0"/>
        <pt x="1356" y="1040" on="1"/>
        <pt x="1450" y="1040" on="0"/>
        <pt x="1602" y="981" on="0"/>
        <pt x="1694" y="901" on="0"/>
        <pt x="1759" y="772" on="0"/>
        <pt x="1788" y="682" on="0"/>
        <pt x="1804" y="555" on="0"/>
        <pt x="1804" y="540" on="1"/>
        <pt x="1804" y="496" on="1"/>
        <pt x="1802" y="424" on="1"/>
        <pt x="1057" y="424" on="1"/>
        <pt x="1071" y="270" on="0"/>
        <pt x="1231" y="131" on="0"/>
        <pt x="1389" y="131" on="1"/>
        <pt x="1608" y="131" on="0"/>
        <pt x="1739" y="207" on="1"/>
        <pt x="1739" y="55" on="1"/>
        <pt x="1591" y="-16" on="0"/>
        <pt x="1380" y="-16" on="1"/>
        <pt x="1377" y="-16" on="0"/>
        <pt x="1374" y="-16" on="1"/>
        <pt x="1098" y="-16" on="0"/>
        <pt x="981" y="174" on="1"/>
        <pt x="862" y="-16" on="0"/>
        <pt x="582" y="-16" on="1"/>
        <pt x="490" y="-16" on="0"/>
        <pt x="336" y="29" on="0"/>
        <pt x="188" y="137" on="0"/>
      </contour>
      <contour>
        <pt x="250" y="719" on="0"/>
        <pt x="250" y="305" on="0"/>
        <pt x="408" y="119" on="0"/>
        <pt x="756" y="119" on="0"/>
        <pt x="915" y="305" on="0"/>
        <pt x="915" y="719" on="0"/>
        <pt x="756" y="905" on="0"/>
        <pt x="408" y="905" on="0"/>
      </contour>
      <contour>
        <pt x="1055" y="555" on="1"/>
        <pt x="1655" y="555" on="1"/>
        <pt x="1655" y="588" on="0"/>
        <pt x="1638" y="676" on="0"/>
        <pt x="1585" y="811" on="0"/>
        <pt x="1452" y="901" on="0"/>
        <pt x="1356" y="901" on="1"/>
        <pt x="1204" y="901" on="0"/>
        <pt x="1065" y="743" on="0"/>
      </contour>
    </TTGlyph>
    <TTGlyph name="ograve" xMin="100" yMin="-16" xMax="1061" yMax="1391">
      <contour>
        <pt x="100" y="356" on="0"/>
        <pt x="100" y="668" on="0"/>
        <pt x="186" y="887" on="0"/>
        <pt x="334" y="995" on="0"/>
        <pt x="489" y="1040" on="0"/>
        <pt x="674" y="1040" on="0"/>
        <pt x="827" y="995" on="0"/>
        <pt x="975" y="887" on="0"/>
        <pt x="1061" y="668" on="0"/>
        <pt x="1061" y="356" on="0"/>
        <pt x="975" y="137" on="0"/>
        <pt x="827" y="29" on="0"/>
        <pt x="674" y="-16" on="0"/>
        <pt x="489" y="-16" on="0"/>
        <pt x="334" y="29" on="0"/>
        <pt x="186" y="137" on="0"/>
      </contour>
      <contour>
        <pt x="248" y="719" on="0"/>
        <pt x="248" y="305" on="0"/>
        <pt x="408" y="119" on="0"/>
        <pt x="756" y="119" on="0"/>
        <pt x="913" y="307" on="0"/>
        <pt x="913" y="717" on="0"/>
        <pt x="756" y="905" on="0"/>
        <pt x="408" y="905" on="0"/>
      </contour>
      <contour>
        <pt x="362" y="1391" on="1"/>
        <pt x="514" y="1391" on="1"/>
        <pt x="631" y="1155" on="1"/>
        <pt x="532" y="1155" on="1"/>
      </contour>
    </TTGlyph>
    <TTGlyph name="one" xMin="211" yMin="0" xMax="631" yMax="1366">
      <contour>
        <pt x="211" y="1032" on="1"/>
        <pt x="211" y="1206" on="1"/>
        <pt x="463" y="1366" on="1"/>
        <pt x="631" y="1366" on="1"/>
        <pt x="631" y="0" on="1"/>
        <pt x="483" y="0" on="1"/>
        <pt x="483" y="1212" on="1"/>
      </contour>
    </TTGlyph>
    <TTGlyph name="onehalf" xMin="106" yMin="-45" xMax="1331" yMax="1403">
      <contour>
        <pt x="106" y="1200" on="1"/>
        <pt x="106" y="1294" on="1"/>
        <pt x="240" y="1380" on="1"/>
        <pt x="332" y="1380" on="1"/>
        <pt x="332" y="647" on="1"/>
        <pt x="252" y="647" on="1"/>
        <pt x="252" y="1298" on="1"/>
      </contour>
      <contour>
        <pt x="147" y="-45" on="1"/>
        <pt x="1042" y="1403" on="1"/>
        <pt x="1139" y="1403" on="1"/>
        <pt x="244" y="-45" on="1"/>
      </contour>
      <contour>
        <pt x="870" y="0" on="1"/>
        <pt x="870" y="70" on="1"/>
        <pt x="1003" y="168" on="0"/>
        <pt x="1241" y="430" on="0"/>
        <pt x="1241" y="537" on="1"/>
        <pt x="1241" y="664" on="0"/>
        <pt x="1069" y="664" on="1"/>
        <pt x="965" y="664" on="0"/>
        <pt x="877" y="600" on="1"/>
        <pt x="877" y="688" on="1"/>
        <pt x="975" y="743" on="0"/>
        <pt x="1075" y="743" on="1"/>
        <pt x="1202" y="743" on="0"/>
        <pt x="1321" y="623" on="0"/>
        <pt x="1321" y="537" on="1"/>
        <pt x="1321" y="342" on="0"/>
        <pt x="999" y="80" on="1"/>
        <pt x="1331" y="80" on="1"/>
        <pt x="1331" y="0" on="1"/>
      </contour>
    </TTGlyph>
    <TTGlyph name="onequarter" xMin="106" yMin="-45" xMax="1329" yMax="1403">
      <contour>
        <pt x="106" y="1200" on="1"/>
        <pt x="106" y="1294" on="1"/>
        <pt x="240" y="1380" on="1"/>
        <pt x="332" y="1380" on="1"/>
        <pt x="332" y="647" on="1"/>
        <pt x="252" y="647" on="1"/>
        <pt x="252" y="1298" on="1"/>
      </contour>
      <contour>
        <pt x="147" y="-45" on="1"/>
        <pt x="1042" y="1403" on="1"/>
        <pt x="1139" y="1403" on="1"/>
        <pt x="244" y="-45" on="1"/>
      </contour>
      <contour>
        <pt x="788" y="221" on="1"/>
        <pt x="788" y="305" on="1"/>
        <pt x="1135" y="733" on="1"/>
        <pt x="1225" y="733" on="1"/>
        <pt x="1225" y="295" on="1"/>
        <pt x="1329" y="295" on="1"/>
        <pt x="1329" y="221" on="1"/>
        <pt x="1225" y="221" on="1"/>
        <pt x="1225" y="0" on="1"/>
        <pt x="1145" y="0" on="1"/>
        <pt x="1145" y="221" on="1"/>
      </contour>
      <contour>
        <pt x="877" y="295" on="1"/>
        <pt x="1145" y="295" on="1"/>
        <pt x="1145" y="621" on="1"/>
      </contour>
    </TTGlyph>
    <TTGlyph name="ordfeminine" xMin="156" yMin="797" xMax="627" yMax="1382">
      <contour>
        <pt x="156" y="979" on="1"/>
        <pt x="156" y="1165" on="0"/>
        <pt x="453" y="1165" on="1"/>
        <pt x="545" y="1159" on="1"/>
        <pt x="545" y="1302" on="0"/>
        <pt x="377" y="1303" on="1"/>
        <pt x="285" y="1303" on="0"/>
        <pt x="213" y="1274" on="1"/>
        <pt x="213" y="1354" on="1"/>
        <pt x="285" y="1382" on="0"/>
        <pt x="381" y="1382" on="1"/>
        <pt x="627" y="1382" on="0"/>
        <pt x="627" y="1147" on="1"/>
        <pt x="627" y="975" on="1"/>
        <pt x="627" y="903" on="0"/>
        <pt x="535" y="817" on="0"/>
        <pt x="442" y="797" on="0"/>
        <pt x="344" y="797" on="0"/>
        <pt x="250" y="817" on="0"/>
        <pt x="156" y="905" on="0"/>
      </contour>
      <contour>
        <pt x="393" y="872" on="1"/>
        <pt x="545" y="873" on="0"/>
        <pt x="545" y="977" on="1"/>
        <pt x="545" y="1085" on="1"/>
        <pt x="508" y="1091" on="0"/>
        <pt x="444" y="1092" on="1"/>
        <pt x="238" y="1092" on="0"/>
        <pt x="238" y="872" on="0"/>
      </contour>
    </TTGlyph>
    <TTGlyph name="ordmasculine" xMin="156" yMin="797" xMax="688" yMax="1384">
      <contour>
        <pt x="156" y="1090" on="1"/>
        <pt x="156" y="1176" on="0"/>
        <pt x="203" y="1298" on="0"/>
        <pt x="285" y="1360" on="0"/>
        <pt x="371" y="1384" on="0"/>
        <pt x="422" y="1384" on="1"/>
        <pt x="688" y="1384" on="0"/>
        <pt x="688" y="1090" on="1"/>
        <pt x="688" y="797" on="0"/>
        <pt x="422" y="797" on="1"/>
        <pt x="309" y="797" on="0"/>
        <pt x="156" y="926" on="0"/>
      </contour>
      <contour>
        <pt x="238" y="1204" on="0"/>
        <pt x="238" y="975" on="0"/>
        <pt x="326" y="872" on="0"/>
        <pt x="422" y="872" on="1"/>
        <pt x="520" y="872" on="0"/>
        <pt x="606" y="975" on="0"/>
        <pt x="606" y="1204" on="0"/>
        <pt x="520" y="1309" on="0"/>
        <pt x="422" y="1309" on="1"/>
        <pt x="326" y="1309" on="0"/>
      </contour>
    </TTGlyph>
    <TTGlyph name="oslash" xMin="76" yMin="-16" xMax="1098" yMax="1040">
      <contour>
        <pt x="76" y="0" on="1"/>
        <pt x="203" y="152" on="1"/>
        <pt x="107" y="285" on="0"/>
        <pt x="106" y="512" on="1"/>
        <pt x="106" y="668" on="0"/>
        <pt x="193" y="887" on="0"/>
        <pt x="340" y="995" on="0"/>
        <pt x="496" y="1040" on="0"/>
        <pt x="588" y="1040" on="1"/>
        <pt x="768" y="1040" on="0"/>
        <pt x="885" y="958" on="1"/>
        <pt x="938" y="1022" on="1"/>
        <pt x="1098" y="1022" on="1"/>
        <pt x="973" y="872" on="1"/>
        <pt x="1067" y="741" on="0"/>
        <pt x="1067" y="512" on="1"/>
        <pt x="1067" y="356" on="0"/>
        <pt x="981" y="137" on="0"/>
        <pt x="834" y="29" on="0"/>
        <pt x="680" y="-16" on="0"/>
        <pt x="588" y="-16" on="1"/>
        <pt x="406" y="-16" on="0"/>
        <pt x="291" y="63" on="1"/>
        <pt x="236" y="0" on="1"/>
      </contour>
      <contour>
        <pt x="254" y="512" on="1"/>
        <pt x="254" y="354" on="0"/>
        <pt x="299" y="266" on="1"/>
        <pt x="795" y="852" on="1"/>
        <pt x="717" y="905" on="0"/>
        <pt x="588" y="905" on="1"/>
        <pt x="414" y="905" on="0"/>
        <pt x="254" y="719" on="0"/>
      </contour>
      <contour>
        <pt x="381" y="170" on="1"/>
        <pt x="457" y="119" on="0"/>
        <pt x="588" y="119" on="1"/>
        <pt x="762" y="119" on="0"/>
        <pt x="920" y="305" on="0"/>
        <pt x="920" y="512" on="1"/>
        <pt x="920" y="668" on="0"/>
        <pt x="874" y="758" on="1"/>
      </contour>
    </TTGlyph>
    <TTGlyph name="otilde" xMin="100" yMin="-16" xMax="1061" yMax="1348">
      <contour>
        <pt x="100" y="356" on="0"/>
        <pt x="100" y="668" on="0"/>
        <pt x="186" y="887" on="0"/>
        <pt x="334" y="995" on="0"/>
        <pt x="487" y="1040" on="0"/>
        <pt x="672" y="1040" on="0"/>
        <pt x="827" y="995" on="0"/>
        <pt x="975" y="887" on="0"/>
        <pt x="1061" y="668" on="0"/>
        <pt x="1061" y="356" on="0"/>
        <pt x="975" y="137" on="0"/>
        <pt x="827" y="29" on="0"/>
        <pt x="672" y="-16" on="0"/>
        <pt x="487" y="-16" on="0"/>
        <pt x="334" y="29" on="0"/>
        <pt x="186" y="137" on="0"/>
      </contour>
      <contour>
        <pt x="248" y="719" on="0"/>
        <pt x="248" y="305" on="0"/>
        <pt x="406" y="119" on="0"/>
        <pt x="754" y="119" on="0"/>
        <pt x="913" y="305" on="0"/>
        <pt x="913" y="719" on="0"/>
        <pt x="754" y="905" on="0"/>
        <pt x="406" y="905" on="0"/>
      </contour>
      <contour>
        <pt x="301" y="1159" on="1"/>
        <pt x="301" y="1274" on="1"/>
        <pt x="354" y="1340" on="0"/>
        <pt x="414" y="1347" on="1"/>
        <pt x="426" y="1348" on="0"/>
        <pt x="437" y="1348" on="1"/>
        <pt x="486" y="1348" on="0"/>
        <pt x="532" y="1324" on="1"/>
        <pt x="644" y="1264" on="1"/>
        <pt x="690" y="1239" on="0"/>
        <pt x="739" y="1239" on="1"/>
        <pt x="750" y="1239" on="0"/>
        <pt x="762" y="1240" on="1"/>
        <pt x="823" y="1247" on="0"/>
        <pt x="877" y="1313" on="1"/>
        <pt x="877" y="1198" on="1"/>
        <pt x="824" y="1132" on="0"/>
        <pt x="762" y="1125" on="1"/>
        <pt x="750" y="1124" on="0"/>
        <pt x="739" y="1124" on="1"/>
        <pt x="689" y="1124" on="0"/>
        <pt x="644" y="1148" on="1"/>
        <pt x="532" y="1208" on="1"/>
        <pt x="485" y="1232" on="0"/>
        <pt x="435" y="1232" on="1"/>
        <pt x="425" y="1232" on="0"/>
        <pt x="414" y="1231" on="1"/>
        <pt x="354" y="1225" on="0"/>
      </contour>
    </TTGlyph>
    <TTGlyph name="p" xMin="168" yMin="-379" xMax="1036" yMax="1040">
      <contour>
        <pt x="168" y="-379" on="1"/>
        <pt x="168" y="717" on="1"/>
        <pt x="168" y="758" on="0"/>
        <pt x="193" y="844" on="0"/>
        <pt x="268" y="965" on="0"/>
        <pt x="453" y="1040" on="0"/>
        <pt x="588" y="1040" on="1"/>
        <pt x="645" y="1040" on="0"/>
        <pt x="754" y="1020" on="0"/>
        <pt x="881" y="950" on="0"/>
        <pt x="973" y="836" on="0"/>
        <pt x="1036" y="633" on="0"/>
        <pt x="1036" y="498" on="1"/>
        <pt x="1036" y="346" on="0"/>
        <pt x="954" y="133" on="0"/>
        <pt x="809" y="27" on="0"/>
        <pt x="659" y="-16" on="0"/>
        <pt x="569" y="-16" on="1"/>
        <pt x="444" y="-16" on="0"/>
        <pt x="315" y="23" on="1"/>
        <pt x="315" y="-379" on="1"/>
      </contour>
      <contour>
        <pt x="315" y="172" on="1"/>
        <pt x="432" y="121" on="0"/>
        <pt x="569" y="121" on="1"/>
        <pt x="737" y="121" on="0"/>
        <pt x="889" y="299" on="0"/>
        <pt x="889" y="500" on="1"/>
        <pt x="889" y="629" on="0"/>
        <pt x="834" y="801" on="0"/>
        <pt x="735" y="879" on="0"/>
        <pt x="645" y="905" on="0"/>
        <pt x="588" y="905" on="1"/>
        <pt x="316" y="905" on="0"/>
        <pt x="315" y="723" on="1"/>
      </contour>
    </TTGlyph>
    <TTGlyph name="paragraph" xMin="78" yMin="0" xMax="752" yMax="1366">
      <contour>
        <pt x="78" y="946" on="1"/>
        <pt x="78" y="1149" on="0"/>
        <pt x="320" y="1366" on="0"/>
        <pt x="549" y="1366" on="1"/>
        <pt x="752" y="1366" on="1"/>
        <pt x="752" y="0" on="1"/>
        <pt x="616" y="0" on="1"/>
        <pt x="616" y="524" on="1"/>
        <pt x="549" y="524" on="1"/>
        <pt x="320" y="524" on="0"/>
        <pt x="78" y="741" on="0"/>
      </contour>
    </TTGlyph>
    <TTGlyph name="parenleft" xMin="190" yMin="-231" xMax="573" yMax="1483">
      <contour>
        <pt x="190" y="625" on="1"/>
        <pt x="191" y="1075" on="0"/>
        <pt x="418" y="1483" on="1"/>
        <pt x="573" y="1483" on="1"/>
        <pt x="544" y="1436" on="0"/>
        <pt x="483" y="1305" on="0"/>
        <pt x="395" y="1075" on="0"/>
        <pt x="338" y="776" on="0"/>
        <pt x="338" y="625" on="1"/>
        <pt x="338" y="475" on="0"/>
        <pt x="395" y="174" on="0"/>
        <pt x="483" y="-53" on="0"/>
        <pt x="547" y="-186" on="0"/>
        <pt x="573" y="-231" on="1"/>
        <pt x="418" y="-231" on="1"/>
        <pt x="191" y="177" on="0"/>
      </contour>
    </TTGlyph>
    <TTGlyph name="parenright" xMin="133" yMin="-231" xMax="518" yMax="1483">
      <contour>
        <pt x="133" y="-231" on="1"/>
        <pt x="162" y="-184" on="0"/>
        <pt x="223" y="-55" on="0"/>
        <pt x="313" y="176" on="0"/>
        <pt x="371" y="475" on="0"/>
        <pt x="371" y="627" on="1"/>
        <pt x="371" y="822" on="0"/>
        <pt x="264" y="1225" on="0"/>
        <pt x="174" y="1415" on="0"/>
        <pt x="133" y="1483" on="1"/>
        <pt x="291" y="1483" on="1"/>
        <pt x="518" y="1075" on="0"/>
        <pt x="518" y="627" on="1"/>
        <pt x="518" y="176" on="0"/>
        <pt x="291" y="-231" on="1"/>
      </contour>
    </TTGlyph>
    <TTGlyph name="percent" xMin="145" yMin="0" xMax="1634" yMax="1366">
      <contour>
        <pt x="145" y="983" on="1"/>
        <pt x="145" y="1094" on="0"/>
        <pt x="199" y="1251" on="0"/>
        <pt x="291" y="1327" on="0"/>
        <pt x="385" y="1360" on="0"/>
        <pt x="442" y="1360" on="1"/>
        <pt x="565" y="1360" on="0"/>
        <pt x="737" y="1194" on="0"/>
        <pt x="737" y="983" on="1"/>
        <pt x="737" y="870" on="0"/>
        <pt x="684" y="715" on="0"/>
        <pt x="594" y="637" on="0"/>
        <pt x="498" y="604" on="0"/>
        <pt x="442" y="604" on="1"/>
        <pt x="385" y="604" on="0"/>
        <pt x="291" y="637" on="0"/>
        <pt x="199" y="715" on="0"/>
        <pt x="145" y="870" on="0"/>
      </contour>
      <contour>
        <pt x="258" y="1145" on="0"/>
        <pt x="258" y="821" on="0"/>
        <pt x="358" y="711" on="0"/>
        <pt x="526" y="711" on="0"/>
        <pt x="625" y="821" on="0"/>
        <pt x="625" y="1145" on="0"/>
        <pt x="526" y="1253" on="0"/>
        <pt x="442" y="1253" on="1"/>
        <pt x="356" y="1253" on="0"/>
      </contour>
      <contour>
        <pt x="395" y="0" on="1"/>
        <pt x="1253" y="1366" on="1"/>
        <pt x="1384" y="1366" on="1"/>
        <pt x="526" y="0" on="1"/>
      </contour>
      <contour>
        <pt x="1042" y="272" on="0"/>
        <pt x="1042" y="498" on="0"/>
        <pt x="1096" y="653" on="0"/>
        <pt x="1188" y="731" on="0"/>
        <pt x="1282" y="764" on="0"/>
        <pt x="1339" y="764" on="1"/>
        <pt x="1394" y="764" on="0"/>
        <pt x="1491" y="731" on="0"/>
        <pt x="1581" y="653" on="0"/>
        <pt x="1634" y="498" on="0"/>
        <pt x="1634" y="272" on="0"/>
        <pt x="1581" y="117" on="0"/>
        <pt x="1491" y="39" on="0"/>
        <pt x="1394" y="6" on="0"/>
        <pt x="1339" y="6" on="1"/>
        <pt x="1282" y="6" on="0"/>
        <pt x="1188" y="39" on="0"/>
        <pt x="1096" y="117" on="0"/>
      </contour>
      <contour>
        <pt x="1155" y="547" on="0"/>
        <pt x="1155" y="223" on="0"/>
        <pt x="1255" y="113" on="0"/>
        <pt x="1423" y="113" on="0"/>
        <pt x="1522" y="223" on="0"/>
        <pt x="1522" y="547" on="0"/>
        <pt x="1423" y="657" on="0"/>
        <pt x="1255" y="657" on="0"/>
      </contour>
    </TTGlyph>
    <TTGlyph name="period" xMin="260" yMin="0" xMax="424" yMax="164">
      <contour>
        <pt x="260" y="0" on="1"/>
        <pt x="260" y="164" on="1"/>
        <pt x="424" y="164" on="1"/>
        <pt x="424" y="0" on="1"/>
      </contour>
    </TTGlyph>
    <TTGlyph name="periodcentered" xMin="238" yMin="475" xMax="399" yMax="639">
      <contour>
        <pt x="238" y="475" on="1"/>
        <pt x="238" y="639" on="1"/>
        <pt x="399" y="639" on="1"/>
        <pt x="399" y="475" on="1"/>
      </contour>
    </TTGlyph>
    <TTGlyph name="plus" xMin="199" yMin="250" xMax="926" yMax="977">
      <contour>
        <pt x="199" y="551" on="1"/>
        <pt x="199" y="674" on="1"/>
        <pt x="502" y="674" on="1"/>
        <pt x="502" y="977" on="1"/>
        <pt x="625" y="977" on="1"/>
        <pt x="625" y="674" on="1"/>
        <pt x="926" y="674" on="1"/>
        <pt x="926" y="551" on="1"/>
        <pt x="625" y="551" on="1"/>
        <pt x="625" y="250" on="1"/>
        <pt x="502" y="250" on="1"/>
        <pt x="502" y="551" on="1"/>
      </contour>
    </TTGlyph>
    <TTGlyph name="plusminus" xMin="231" yMin="68" xMax="958" yMax="1022">
      <contour>
        <pt x="231" y="68" on="1"/>
        <pt x="231" y="190" on="1"/>
        <pt x="958" y="190" on="1"/>
        <pt x="958" y="68" on="1"/>
      </contour>
      <contour>
        <pt x="231" y="598" on="1"/>
        <pt x="231" y="721" on="1"/>
        <pt x="535" y="721" on="1"/>
        <pt x="535" y="1022" on="1"/>
        <pt x="657" y="1022" on="1"/>
        <pt x="657" y="721" on="1"/>
        <pt x="958" y="721" on="1"/>
        <pt x="958" y="598" on="1"/>
        <pt x="657" y="598" on="1"/>
        <pt x="657" y="295" on="1"/>
        <pt x="535" y="295" on="1"/>
        <pt x="535" y="598" on="1"/>
      </contour>
    </TTGlyph>
    <TTGlyph name="q" xMin="115" yMin="-379" xMax="981" yMax="1040">
      <contour>
        <pt x="115" y="498" on="1"/>
        <pt x="115" y="633" on="0"/>
        <pt x="178" y="836" on="0"/>
        <pt x="270" y="950" on="0"/>
        <pt x="397" y="1020" on="0"/>
        <pt x="506" y="1040" on="0"/>
        <pt x="563" y="1040" on="1"/>
        <pt x="674" y="1040" on="0"/>
        <pt x="838" y="985" on="0"/>
        <pt x="920" y="913" on="0"/>
        <pt x="971" y="813" on="0"/>
        <pt x="981" y="748" on="0"/>
        <pt x="981" y="717" on="1"/>
        <pt x="981" y="-379" on="1"/>
        <pt x="834" y="-379" on="1"/>
        <pt x="834" y="23" on="1"/>
        <pt x="717" y="-16" on="0"/>
        <pt x="582" y="-16" on="1"/>
        <pt x="492" y="-16" on="0"/>
        <pt x="342" y="27" on="0"/>
        <pt x="197" y="133" on="0"/>
        <pt x="115" y="346" on="0"/>
      </contour>
      <contour>
        <pt x="262" y="500" on="1"/>
        <pt x="262" y="299" on="0"/>
        <pt x="414" y="121" on="0"/>
        <pt x="582" y="121" on="1"/>
        <pt x="717" y="121" on="0"/>
        <pt x="834" y="172" on="1"/>
        <pt x="834" y="723" on="1"/>
        <pt x="834" y="905" on="0"/>
        <pt x="563" y="905" on="1"/>
        <pt x="506" y="905" on="0"/>
        <pt x="416" y="879" on="0"/>
        <pt x="317" y="801" on="0"/>
        <pt x="262" y="629" on="0"/>
      </contour>
    </TTGlyph>
    <TTGlyph name="question" xMin="164" yMin="0" xMax="854" yMax="1382">
      <contour>
        <pt x="164" y="1145" on="1"/>
        <pt x="164" y="1305" on="1"/>
        <pt x="277" y="1382" on="0"/>
        <pt x="449" y="1382" on="1"/>
        <pt x="510" y="1382" on="0"/>
        <pt x="629" y="1354" on="0"/>
        <pt x="768" y="1282" on="0"/>
        <pt x="854" y="1120" on="0"/>
        <pt x="854" y="1004" on="1"/>
        <pt x="854" y="922" on="0"/>
        <pt x="791" y="801" on="0"/>
        <pt x="746" y="763" on="1"/>
        <pt x="655" y="687" on="1"/>
        <pt x="610" y="649" on="0"/>
        <pt x="547" y="522" on="0"/>
        <pt x="547" y="434" on="1"/>
        <pt x="547" y="344" on="1"/>
        <pt x="399" y="344" on="1"/>
        <pt x="399" y="444" on="1"/>
        <pt x="399" y="548" on="0"/>
        <pt x="463" y="702" on="0"/>
        <pt x="553" y="788" on="0"/>
        <pt x="643" y="858" on="0"/>
        <pt x="707" y="946" on="0"/>
        <pt x="707" y="1004" on="1"/>
        <pt x="707" y="1235" on="0"/>
        <pt x="438" y="1235" on="1"/>
        <pt x="282" y="1235" on="0"/>
      </contour>
      <contour>
        <pt x="391" y="0" on="1"/>
        <pt x="391" y="164" on="1"/>
        <pt x="555" y="164" on="1"/>
        <pt x="555" y="0" on="1"/>
      </contour>
    </TTGlyph>
    <TTGlyph name="questiondown" xMin="147" yMin="-360" xMax="840" yMax="1022">
      <contour>
        <pt x="147" y="20" on="1"/>
        <pt x="147" y="102" on="0"/>
        <pt x="211" y="221" on="0"/>
        <pt x="256" y="259" on="1"/>
        <pt x="346" y="335" on="1"/>
        <pt x="391" y="373" on="0"/>
        <pt x="455" y="500" on="0"/>
        <pt x="455" y="588" on="1"/>
        <pt x="455" y="680" on="1"/>
        <pt x="602" y="680" on="1"/>
        <pt x="602" y="578" on="1"/>
        <pt x="602" y="474" on="0"/>
        <pt x="539" y="319" on="0"/>
        <pt x="449" y="236" on="0"/>
        <pt x="358" y="164" on="0"/>
        <pt x="295" y="76" on="0"/>
        <pt x="295" y="20" on="1"/>
        <pt x="295" y="-213" on="0"/>
        <pt x="565" y="-213" on="1"/>
        <pt x="706" y="-213" on="0"/>
        <pt x="840" y="-123" on="1"/>
        <pt x="840" y="-283" on="1"/>
        <pt x="725" y="-360" on="0"/>
        <pt x="553" y="-360" on="1"/>
        <pt x="506" y="-360" on="0"/>
        <pt x="414" y="-346" on="0"/>
        <pt x="295" y="-297" on="0"/>
        <pt x="209" y="-217" on="0"/>
        <pt x="147" y="-74" on="0"/>
      </contour>
      <contour>
        <pt x="446" y="860" on="1"/>
        <pt x="446" y="1022" on="1"/>
        <pt x="610" y="1022" on="1"/>
        <pt x="610" y="860" on="1"/>
      </contour>
    </TTGlyph>
    <TTGlyph name="quotedbl" xMin="166" yMin="973" xMax="610" yMax="1384">
      <contour>
        <pt x="166" y="1384" on="1"/>
        <pt x="336" y="1384" on="1"/>
        <pt x="301" y="973" on="1"/>
        <pt x="203" y="973" on="1"/>
      </contour>
      <contour>
        <pt x="440" y="1384" on="1"/>
        <pt x="610" y="1384" on="1"/>
        <pt x="573" y="973" on="1"/>
        <pt x="475" y="973" on="1"/>
      </contour>
    </TTGlyph>
    <TTGlyph name="quotedblbase" xMin="147" yMin="-229" xMax="745" yMax="172">
      <contour>
        <pt x="147" y="-229" on="1"/>
        <pt x="299" y="172" on="1"/>
        <pt x="465" y="172" on="1"/>
        <pt x="295" y="-229" on="1"/>
      </contour>
      <contour>
        <pt x="426" y="-229" on="1"/>
        <pt x="578" y="172" on="1"/>
        <pt x="745" y="172" on="1"/>
        <pt x="573" y="-229" on="1"/>
      </contour>
    </TTGlyph>
    <TTGlyph name="quotedblleft" xMin="96" yMin="983" xMax="694" yMax="1384">
      <contour>
        <pt x="96" y="1384" on="1"/>
        <pt x="264" y="1384" on="1"/>
        <pt x="416" y="983" on="1"/>
        <pt x="268" y="983" on="1"/>
      </contour>
      <contour>
        <pt x="375" y="1384" on="1"/>
        <pt x="543" y="1384" on="1"/>
        <pt x="694" y="983" on="1"/>
        <pt x="547" y="983" on="1"/>
      </contour>
    </TTGlyph>
    <TTGlyph name="quotedblright" xMin="96" yMin="983" xMax="694" yMax="1384">
      <contour>
        <pt x="96" y="983" on="1"/>
        <pt x="248" y="1384" on="1"/>
        <pt x="416" y="1384" on="1"/>
        <pt x="244" y="983" on="1"/>
      </contour>
      <contour>
        <pt x="375" y="983" on="1"/>
        <pt x="526" y="1384" on="1"/>
        <pt x="694" y="1384" on="1"/>
        <pt x="522" y="983" on="1"/>
      </contour>
    </TTGlyph>
    <TTGlyph name="quoteleft" xMin="96" yMin="983" xMax="416" yMax="1384">
      <contour>
        <pt x="96" y="1384" on="1"/>
        <pt x="264" y="1384" on="1"/>
        <pt x="416" y="983" on="1"/>
        <pt x="268" y="983" on="1"/>
      </contour>
    </TTGlyph>
    <TTGlyph name="quoteright" xMin="96" yMin="983" xMax="416" yMax="1384">
      <contour>
        <pt x="96" y="983" on="1"/>
        <pt x="248" y="1384" on="1"/>
        <pt x="416" y="1384" on="1"/>
        <pt x="244" y="983" on="1"/>
      </contour>
    </TTGlyph>
    <TTGlyph name="quotesinglbase" xMin="147" yMin="-229" xMax="465" yMax="172">
      <contour>
        <pt x="147" y="-229" on="1"/>
        <pt x="299" y="172" on="1"/>
        <pt x="465" y="172" on="1"/>
        <pt x="295" y="-229" on="1"/>
      </contour>
    </TTGlyph>
    <TTGlyph name="quotesingle" xMin="166" yMin="973" xMax="336" yMax="1384">
      <contour>
        <pt x="166" y="1384" on="1"/>
        <pt x="336" y="1384" on="1"/>
        <pt x="301" y="973" on="1"/>
        <pt x="203" y="973" on="1"/>
      </contour>
    </TTGlyph>
    <TTGlyph name="r" xMin="166" yMin="0" xMax="662" yMax="1038">
      <contour>
        <pt x="166" y="0" on="1"/>
        <pt x="166" y="940" on="1"/>
        <pt x="397" y="1038" on="0"/>
        <pt x="662" y="1038" on="1"/>
        <pt x="662" y="897" on="1"/>
        <pt x="494" y="893" on="0"/>
        <pt x="313" y="844" on="1"/>
        <pt x="313" y="0" on="1"/>
      </contour>
    </TTGlyph>
    <TTGlyph name="registered" xMin="98" yMin="-16" xMax="1499" yMax="1382">
      <contour>
        <pt x="98" y="682" on="1"/>
        <pt x="98" y="973" on="0"/>
        <pt x="510" y="1382" on="0"/>
        <pt x="799" y="1382" on="1"/>
        <pt x="1090" y="1382" on="0"/>
        <pt x="1499" y="973" on="0"/>
        <pt x="1499" y="682" on="1"/>
        <pt x="1499" y="393" on="0"/>
        <pt x="1090" y="-16" on="0"/>
        <pt x="799" y="-16" on="1"/>
        <pt x="510" y="-16" on="0"/>
        <pt x="98" y="393" on="0"/>
      </contour>
      <contour>
        <pt x="172" y="682" on="1"/>
        <pt x="172" y="424" on="0"/>
        <pt x="541" y="55" on="0"/>
        <pt x="799" y="55" on="1"/>
        <pt x="1059" y="55" on="0"/>
        <pt x="1425" y="424" on="0"/>
        <pt x="1425" y="682" on="1"/>
        <pt x="1425" y="942" on="0"/>
        <pt x="1059" y="1311" on="0"/>
        <pt x="799" y="1311" on="1"/>
        <pt x="541" y="1311" on="0"/>
        <pt x="172" y="942" on="0"/>
      </contour>
      <contour>
        <pt x="545" y="283" on="1"/>
        <pt x="545" y="1081" on="1"/>
        <pt x="838" y="1081" on="1"/>
        <pt x="969" y="1081" on="0"/>
        <pt x="1110" y="965" on="0"/>
        <pt x="1110" y="850" on="1"/>
        <pt x="1110" y="787" on="0"/>
        <pt x="1065" y="690" on="0"/>
        <pt x="995" y="643" on="0"/>
        <pt x="949" y="624" on="0"/>
        <pt x="926" y="618" on="1"/>
        <pt x="1145" y="283" on="1"/>
        <pt x="1042" y="283" on="1"/>
        <pt x="836" y="606" on="1"/>
        <pt x="631" y="606" on="1"/>
        <pt x="631" y="283" on="1"/>
      </contour>
      <contour>
        <pt x="631" y="688" on="1"/>
        <pt x="834" y="688" on="1"/>
        <pt x="947" y="688" on="0"/>
        <pt x="1022" y="774" on="0"/>
        <pt x="1022" y="913" on="0"/>
        <pt x="946" y="999" on="0"/>
        <pt x="834" y="999" on="1"/>
        <pt x="631" y="999" on="1"/>
      </contour>
    </TTGlyph>
    <TTGlyph name="s" xMin="100" yMin="-16" xMax="797" yMax="1040">
      <contour>
        <pt x="100" y="743" on="1"/>
        <pt x="100" y="866" on="0"/>
        <pt x="279" y="1040" on="0"/>
        <pt x="463" y="1040" on="1"/>
        <pt x="594" y="1040" on="0"/>
        <pt x="725" y="977" on="1"/>
        <pt x="725" y="829" on="1"/>
        <pt x="608" y="899" on="0"/>
        <pt x="479" y="899" on="1"/>
        <pt x="248" y="899" on="0"/>
        <pt x="248" y="743" on="1"/>
        <pt x="248" y="690" on="0"/>
        <pt x="360" y="625" on="0"/>
        <pt x="522" y="582" on="0"/>
        <pt x="684" y="522" on="0"/>
        <pt x="797" y="379" on="0"/>
        <pt x="797" y="268" on="1"/>
        <pt x="797" y="135" on="0"/>
        <pt x="598" y="-16" on="0"/>
        <pt x="422" y="-16" on="1"/>
        <pt x="252" y="-16" on="0"/>
        <pt x="113" y="61" on="1"/>
        <pt x="113" y="217" on="1"/>
        <pt x="260" y="127" on="0"/>
        <pt x="416" y="127" on="1"/>
        <pt x="649" y="127" on="0"/>
        <pt x="649" y="268" on="1"/>
        <pt x="649" y="344" on="0"/>
        <pt x="537" y="430" on="0"/>
        <pt x="375" y="473" on="0"/>
        <pt x="213" y="524" on="0"/>
        <pt x="100" y="645" on="0"/>
      </contour>
    </TTGlyph>
    <TTGlyph name="section" xMin="119" yMin="-16" xMax="1008" yMax="1384">
      <contour>
        <pt x="119" y="727" on="1"/>
        <pt x="119" y="891" on="0"/>
        <pt x="305" y="950" on="1"/>
        <pt x="223" y="1001" on="0"/>
        <pt x="223" y="1094" on="1"/>
        <pt x="223" y="1213" on="0"/>
        <pt x="424" y="1384" on="0"/>
        <pt x="633" y="1384" on="1"/>
        <pt x="789" y="1384" on="0"/>
        <pt x="930" y="1323" on="1"/>
        <pt x="930" y="1178" on="1"/>
        <pt x="801" y="1247" on="0"/>
        <pt x="649" y="1247" on="1"/>
        <pt x="647" y="1247" on="0"/>
        <pt x="645" y="1247" on="1"/>
        <pt x="371" y="1247" on="0"/>
        <pt x="371" y="1094" on="1"/>
        <pt x="371" y="1069" on="0"/>
        <pt x="387" y="1038" on="0"/>
        <pt x="508" y="981" on="0"/>
        <pt x="627" y="954" on="1"/>
        <pt x="711" y="936" on="0"/>
        <pt x="823" y="895" on="0"/>
        <pt x="944" y="823" on="0"/>
        <pt x="1008" y="707" on="0"/>
        <pt x="1008" y="629" on="1"/>
        <pt x="1008" y="553" on="0"/>
        <pt x="905" y="444" on="0"/>
        <pt x="831" y="420" on="1"/>
        <pt x="903" y="361" on="0"/>
        <pt x="903" y="262" on="1"/>
        <pt x="903" y="131" on="0"/>
        <pt x="680" y="-16" on="0"/>
        <pt x="481" y="-16" on="1"/>
        <pt x="278" y="-16" on="0"/>
        <pt x="131" y="57" on="1"/>
        <pt x="131" y="209" on="1"/>
        <pt x="266" y="125" on="0"/>
        <pt x="471" y="125" on="1"/>
        <pt x="756" y="125" on="0"/>
        <pt x="756" y="262" on="1"/>
        <pt x="756" y="323" on="0"/>
        <pt x="659" y="406" on="0"/>
        <pt x="489" y="444" on="1"/>
        <pt x="305" y="487" on="0"/>
        <pt x="119" y="604" on="0"/>
      </contour>
      <contour>
        <pt x="266" y="727" on="1"/>
        <pt x="266" y="702" on="0"/>
        <pt x="283" y="672" on="0"/>
        <pt x="406" y="614" on="0"/>
        <pt x="524" y="588" on="1"/>
        <pt x="659" y="559" on="0"/>
        <pt x="743" y="514" on="1"/>
        <pt x="860" y="549" on="0"/>
        <pt x="860" y="629" on="1"/>
        <pt x="860" y="690" on="0"/>
        <pt x="762" y="772" on="0"/>
        <pt x="594" y="811" on="1"/>
        <pt x="496" y="834" on="0"/>
        <pt x="418" y="860" on="1"/>
        <pt x="266" y="831" on="0"/>
      </contour>
    </TTGlyph>
    <TTGlyph name="semicolon" xMin="199" yMin="-229" xMax="518" yMax="918">
      <contour>
        <pt x="199" y="-229" on="1"/>
        <pt x="350" y="172" on="1"/>
        <pt x="518" y="172" on="1"/>
        <pt x="346" y="-229" on="1"/>
      </contour>
      <contour>
        <pt x="352" y="754" on="1"/>
        <pt x="352" y="918" on="1"/>
        <pt x="516" y="918" on="1"/>
        <pt x="516" y="754" on="1"/>
      </contour>
    </TTGlyph>
    <TTGlyph name="seven" xMin="143" yMin="0" xMax="1075" yMax="1366">
      <contour>
        <pt x="143" y="1219" on="1"/>
        <pt x="143" y="1366" on="1"/>
        <pt x="1075" y="1366" on="1"/>
        <pt x="1075" y="1229" on="1"/>
        <pt x="483" y="0" on="1"/>
        <pt x="319" y="0" on="1"/>
        <pt x="915" y="1219" on="1"/>
      </contour>
    </TTGlyph>
    <TTGlyph name="six" xMin="133" yMin="-16" xMax="1063" yMax="1384">
      <contour>
        <pt x="133" y="625" on="1"/>
        <pt x="133" y="766" on="0"/>
        <pt x="184" y="999" on="0"/>
        <pt x="264" y="1153" on="0"/>
        <pt x="377" y="1270" on="0"/>
        <pt x="487" y="1333" on="0"/>
        <pt x="614" y="1372" on="0"/>
        <pt x="709" y="1384" on="0"/>
        <pt x="756" y="1384" on="1"/>
        <pt x="865" y="1384" on="0"/>
        <pt x="954" y="1358" on="1"/>
        <pt x="954" y="1221" on="1"/>
        <pt x="856" y="1245" on="0"/>
        <pt x="778" y="1245" on="1"/>
        <pt x="775" y="1245" on="0"/>
        <pt x="772" y="1245" on="1"/>
        <pt x="725" y="1245" on="0"/>
        <pt x="635" y="1233" on="0"/>
        <pt x="498" y="1180" on="0"/>
        <pt x="391" y="1087" on="0"/>
        <pt x="303" y="907" on="0"/>
        <pt x="289" y="784" on="1"/>
        <pt x="422" y="874" on="0"/>
        <pt x="598" y="874" on="1"/>
        <pt x="813" y="874" on="0"/>
        <pt x="1063" y="643" on="0"/>
        <pt x="1063" y="444" on="1"/>
        <pt x="1063" y="360" on="0"/>
        <pt x="1012" y="203" on="0"/>
        <pt x="907" y="66" on="0"/>
        <pt x="721" y="-16" on="0"/>
        <pt x="598" y="-16" on="1"/>
        <pt x="133" y="-16" on="0"/>
      </contour>
      <contour>
        <pt x="281" y="621" on="1"/>
        <pt x="283" y="480" on="0"/>
        <pt x="334" y="279" on="0"/>
        <pt x="397" y="182" on="0"/>
        <pt x="500" y="129" on="0"/>
        <pt x="555" y="123" on="0"/>
        <pt x="598" y="123" on="1"/>
        <pt x="700" y="123" on="0"/>
        <pt x="840" y="199" on="0"/>
        <pt x="897" y="319" on="0"/>
        <pt x="915" y="406" on="0"/>
        <pt x="915" y="446" on="1"/>
        <pt x="915" y="585" on="0"/>
        <pt x="752" y="737" on="0"/>
        <pt x="598" y="737" on="1"/>
        <pt x="397" y="737" on="0"/>
      </contour>
    </TTGlyph>
    <TTGlyph name="slash" xMin="-29" yMin="-201" xMax="858" yMax="1548">
      <contour>
        <pt x="-29" y="-201" on="1"/>
        <pt x="723" y="1548" on="1"/>
        <pt x="858" y="1548" on="1"/>
        <pt x="104" y="-201" on="1"/>
      </contour>
    </TTGlyph>
    <TTGlyph name="sterling" xMin="104" yMin="-54" xMax="1024" yMax="1384">
      <contour>
        <pt x="104" y="-31" on="1"/>
        <pt x="104" y="119" on="1"/>
        <pt x="184" y="158" on="0"/>
        <pt x="281" y="164" on="1"/>
        <pt x="281" y="575" on="1"/>
        <pt x="104" y="575" on="1"/>
        <pt x="104" y="711" on="1"/>
        <pt x="281" y="711" on="1"/>
        <pt x="281" y="1004" on="1"/>
        <pt x="281" y="1162" on="0"/>
        <pt x="492" y="1384" on="0"/>
        <pt x="715" y="1384" on="1"/>
        <pt x="877" y="1384" on="0"/>
        <pt x="1024" y="1305" on="1"/>
        <pt x="1024" y="1155" on="1"/>
        <pt x="885" y="1243" on="0"/>
        <pt x="727" y="1243" on="1"/>
        <pt x="428" y="1243" on="0"/>
        <pt x="428" y="1010" on="1"/>
        <pt x="428" y="711" on="1"/>
        <pt x="840" y="711" on="1"/>
        <pt x="840" y="575" on="1"/>
        <pt x="428" y="575" on="1"/>
        <pt x="428" y="160" on="1"/>
        <pt x="479" y="154" on="0"/>
        <pt x="668" y="115" on="0"/>
        <pt x="728" y="104" on="1"/>
        <pt x="775" y="96" on="0"/>
        <pt x="835" y="96" on="1"/>
        <pt x="853" y="96" on="0"/>
        <pt x="871" y="97" on="1"/>
        <pt x="954" y="100" on="0"/>
        <pt x="1024" y="127" on="1"/>
        <pt x="1024" y="-23" on="1"/>
        <pt x="944" y="-54" on="0"/>
        <pt x="844" y="-54" on="1"/>
        <pt x="820" y="-54" on="0"/>
        <pt x="795" y="-52" on="1"/>
        <pt x="666" y="-43" on="0"/>
        <pt x="463" y="14" on="0"/>
        <pt x="335" y="17" on="1"/>
        <pt x="328" y="17" on="0"/>
        <pt x="321" y="17" on="1"/>
        <pt x="201" y="17" on="0"/>
      </contour>
    </TTGlyph>
    <TTGlyph name="t" xMin="49" yMin="-16" xMax="639" yMax="1311">
      <contour>
        <pt x="49" y="887" on="1"/>
        <pt x="49" y="1022" on="1"/>
        <pt x="227" y="1022" on="1"/>
        <pt x="227" y="1311" on="1"/>
        <pt x="375" y="1311" on="1"/>
        <pt x="375" y="1022" on="1"/>
        <pt x="639" y="1022" on="1"/>
        <pt x="639" y="887" on="1"/>
        <pt x="375" y="887" on="1"/>
        <pt x="375" y="264" on="1"/>
        <pt x="375" y="186" on="0"/>
        <pt x="440" y="123" on="0"/>
        <pt x="522" y="123" on="1"/>
        <pt x="585" y="123" on="0"/>
        <pt x="639" y="147" on="1"/>
        <pt x="639" y="8" on="1"/>
        <pt x="574" y="-16" on="0"/>
        <pt x="509" y="-16" on="1"/>
        <pt x="506" y="-16" on="0"/>
        <pt x="504" y="-16" on="1"/>
        <pt x="463" y="-16" on="0"/>
        <pt x="385" y="2" on="0"/>
        <pt x="287" y="55" on="0"/>
        <pt x="227" y="180" on="0"/>
        <pt x="227" y="272" on="1"/>
        <pt x="227" y="887" on="1"/>
      </contour>
    </TTGlyph>
    <TTGlyph name="thorn" xMin="170" yMin="-377" xMax="1038" yMax="1399">
      <contour>
        <pt x="170" y="-377" on="1"/>
        <pt x="170" y="1399" on="1"/>
        <pt x="317" y="1399" on="1"/>
        <pt x="317" y="985" on="1"/>
        <pt x="440" y="1026" on="0"/>
        <pt x="569" y="1026" on="1"/>
        <pt x="639" y="1026" on="0"/>
        <pt x="762" y="1001" on="0"/>
        <pt x="889" y="932" on="0"/>
        <pt x="981" y="821" on="0"/>
        <pt x="1038" y="633" on="0"/>
        <pt x="1038" y="510" on="1"/>
        <pt x="1038" y="358" on="0"/>
        <pt x="954" y="145" on="0"/>
        <pt x="809" y="39" on="0"/>
        <pt x="657" y="-4" on="0"/>
        <pt x="569" y="-4" on="1"/>
        <pt x="440" y="-4" on="0"/>
        <pt x="317" y="37" on="1"/>
        <pt x="317" y="-377" on="1"/>
      </contour>
      <contour>
        <pt x="317" y="184" on="1"/>
        <pt x="434" y="133" on="0"/>
        <pt x="569" y="133" on="1"/>
        <pt x="739" y="133" on="0"/>
        <pt x="891" y="311" on="0"/>
        <pt x="891" y="709" on="0"/>
        <pt x="739" y="889" on="0"/>
        <pt x="569" y="889" on="1"/>
        <pt x="434" y="889" on="0"/>
        <pt x="317" y="838" on="1"/>
      </contour>
    </TTGlyph>
    <TTGlyph name="three" xMin="166" yMin="-16" xMax="1034" yMax="1384">
      <contour>
        <pt x="166" y="70" on="1"/>
        <pt x="166" y="221" on="1"/>
        <pt x="326" y="131" on="0"/>
        <pt x="512" y="131" on="1"/>
        <pt x="694" y="131" on="0"/>
        <pt x="887" y="266" on="0"/>
        <pt x="887" y="520" on="0"/>
        <pt x="690" y="655" on="0"/>
        <pt x="504" y="655" on="1"/>
        <pt x="354" y="655" on="1"/>
        <pt x="354" y="797" on="1"/>
        <pt x="510" y="797" on="1"/>
        <pt x="660" y="797" on="0"/>
        <pt x="817" y="909" on="0"/>
        <pt x="817" y="1122" on="0"/>
        <pt x="651" y="1237" on="0"/>
        <pt x="494" y="1237" on="1"/>
        <pt x="342" y="1237" on="0"/>
        <pt x="199" y="1165" on="1"/>
        <pt x="199" y="1315" on="1"/>
        <pt x="344" y="1384" on="0"/>
        <pt x="505" y="1384" on="1"/>
        <pt x="508" y="1384" on="0"/>
        <pt x="510" y="1384" on="1"/>
        <pt x="743" y="1384" on="0"/>
        <pt x="965" y="1167" on="0"/>
        <pt x="965" y="1016" on="1"/>
        <pt x="965" y="844" on="0"/>
        <pt x="817" y="756" on="1"/>
        <pt x="788" y="739" on="1"/>
        <pt x="798" y="735" on="0"/>
        <pt x="831" y="719" on="0"/>
        <pt x="915" y="657" on="0"/>
        <pt x="981" y="584" on="0"/>
        <pt x="1034" y="459" on="0"/>
        <pt x="1034" y="389" on="1"/>
        <pt x="1034" y="311" on="0"/>
        <pt x="979" y="172" on="0"/>
        <pt x="866" y="53" on="0"/>
        <pt x="664" y="-16" on="0"/>
        <pt x="530" y="-16" on="1"/>
        <pt x="333" y="-16" on="0"/>
      </contour>
    </TTGlyph>
    <TTGlyph name="threequarters" xMin="135" yMin="-45" xMax="1550" yMax="1403">
      <contour>
        <pt x="135" y="684" on="1"/>
        <pt x="135" y="764" on="1"/>
        <pt x="229" y="717" on="0"/>
        <pt x="324" y="717" on="1"/>
        <pt x="524" y="717" on="0"/>
        <pt x="524" y="857" on="1"/>
        <pt x="524" y="926" on="0"/>
        <pt x="418" y="999" on="0"/>
        <pt x="317" y="999" on="1"/>
        <pt x="238" y="999" on="1"/>
        <pt x="238" y="1073" on="1"/>
        <pt x="322" y="1073" on="1"/>
        <pt x="486" y="1073" on="0"/>
        <pt x="486" y="1191" on="1"/>
        <pt x="486" y="1311" on="0"/>
        <pt x="311" y="1311" on="1"/>
        <pt x="227" y="1311" on="0"/>
        <pt x="154" y="1272" on="1"/>
        <pt x="154" y="1354" on="1"/>
        <pt x="236" y="1391" on="0"/>
        <pt x="322" y="1391" on="1"/>
        <pt x="447" y="1391" on="0"/>
        <pt x="565" y="1274" on="0"/>
        <pt x="565" y="1192" on="1"/>
        <pt x="565" y="1143" on="0"/>
        <pt x="518" y="1069" on="0"/>
        <pt x="496" y="1057" on="1"/>
        <pt x="471" y="1042" on="1"/>
        <pt x="477" y="1040" on="0"/>
        <pt x="494" y="1032" on="0"/>
        <pt x="539" y="999" on="0"/>
        <pt x="573" y="961" on="0"/>
        <pt x="602" y="893" on="0"/>
        <pt x="602" y="856" on="1"/>
        <pt x="602" y="766" on="0"/>
        <pt x="471" y="637" on="0"/>
        <pt x="332" y="637" on="1"/>
        <pt x="234" y="637" on="0"/>
      </contour>
      <contour>
        <pt x="369" y="-45" on="1"/>
        <pt x="1264" y="1403" on="1"/>
        <pt x="1360" y="1403" on="1"/>
        <pt x="465" y="-45" on="1"/>
      </contour>
      <contour>
        <pt x="1010" y="221" on="1"/>
        <pt x="1010" y="305" on="1"/>
        <pt x="1356" y="733" on="1"/>
        <pt x="1446" y="733" on="1"/>
        <pt x="1446" y="295" on="1"/>
        <pt x="1550" y="295" on="1"/>
        <pt x="1550" y="221" on="1"/>
        <pt x="1446" y="221" on="1"/>
        <pt x="1446" y="0" on="1"/>
        <pt x="1366" y="0" on="1"/>
        <pt x="1366" y="221" on="1"/>
      </contour>
      <contour>
        <pt x="1098" y="295" on="1"/>
        <pt x="1366" y="295" on="1"/>
        <pt x="1366" y="621" on="1"/>
      </contour>
    </TTGlyph>
    <TTGlyph name="tilde" xMin="215" yMin="1124" xMax="791" yMax="1347">
      <contour>
        <pt x="215" y="1157" on="1"/>
        <pt x="215" y="1274" on="1"/>
        <pt x="268" y="1340" on="0"/>
        <pt x="328" y="1346" on="1"/>
        <pt x="339" y="1347" on="0"/>
        <pt x="349" y="1347" on="1"/>
        <pt x="398" y="1347" on="0"/>
        <pt x="446" y="1322" on="1"/>
        <pt x="558" y="1262" on="1"/>
        <pt x="605" y="1238" on="0"/>
        <pt x="655" y="1238" on="1"/>
        <pt x="665" y="1238" on="0"/>
        <pt x="676" y="1239" on="1"/>
        <pt x="737" y="1245" on="0"/>
        <pt x="791" y="1311" on="1"/>
        <pt x="791" y="1198" on="1"/>
        <pt x="738" y="1132" on="0"/>
        <pt x="676" y="1125" on="1"/>
        <pt x="664" y="1124" on="0"/>
        <pt x="653" y="1124" on="1"/>
        <pt x="603" y="1124" on="0"/>
        <pt x="558" y="1148" on="1"/>
        <pt x="446" y="1208" on="1"/>
        <pt x="400" y="1231" on="0"/>
        <pt x="352" y="1231" on="1"/>
        <pt x="340" y="1231" on="0"/>
        <pt x="328" y="1230" on="1"/>
        <pt x="268" y="1223" on="0"/>
      </contour>
    </TTGlyph>
    <TTGlyph name="trademark" xMin="100" yMin="684" xMax="1393" yMax="1366">
      <contour>
        <pt x="100" y="1294" on="1"/>
        <pt x="100" y="1366" on="1"/>
        <pt x="657" y="1366" on="1"/>
        <pt x="657" y="1294" on="1"/>
        <pt x="416" y="1294" on="1"/>
        <pt x="416" y="684" on="1"/>
        <pt x="342" y="684" on="1"/>
        <pt x="342" y="1294" on="1"/>
      </contour>
      <contour>
        <pt x="762" y="684" on="1"/>
        <pt x="762" y="1366" on="1"/>
        <pt x="842" y="1366" on="1"/>
        <pt x="1077" y="1020" on="1"/>
        <pt x="1313" y="1366" on="1"/>
        <pt x="1393" y="1366" on="1"/>
        <pt x="1393" y="684" on="1"/>
        <pt x="1319" y="684" on="1"/>
        <pt x="1319" y="1245" on="1"/>
        <pt x="1077" y="897" on="1"/>
        <pt x="836" y="1245" on="1"/>
        <pt x="836" y="684" on="1"/>
      </contour>
    </TTGlyph>
    <TTGlyph name="two" xMin="158" yMin="0" xMax="1020" yMax="1384">
      <contour>
        <pt x="158" y="0" on="1"/>
        <pt x="158" y="129" on="1"/>
        <pt x="260" y="205" on="0"/>
        <pt x="473" y="391" on="0"/>
        <pt x="707" y="635" on="0"/>
        <pt x="852" y="895" on="0"/>
        <pt x="852" y="999" on="1"/>
        <pt x="852" y="1237" on="0"/>
        <pt x="530" y="1237" on="1"/>
        <pt x="340" y="1237" on="0"/>
        <pt x="172" y="1118" on="1"/>
        <pt x="172" y="1280" on="1"/>
        <pt x="344" y="1384" on="0"/>
        <pt x="543" y="1384" on="1"/>
        <pt x="776" y="1384" on="0"/>
        <pt x="999" y="1159" on="0"/>
        <pt x="999" y="999" on="1"/>
        <pt x="999" y="888" on="0"/>
        <pt x="887" y="645" on="0"/>
        <pt x="696" y="416" on="0"/>
        <pt x="507" y="233" on="0"/>
        <pt x="401" y="147" on="1"/>
        <pt x="1020" y="147" on="1"/>
        <pt x="1020" y="0" on="1"/>
      </contour>
    </TTGlyph>
    <TTGlyph name="u" xMin="168" yMin="-16" xMax="1024" yMax="1022">
      <contour>
        <pt x="168" y="430" on="1"/>
        <pt x="168" y="1022" on="1"/>
        <pt x="315" y="1022" on="1"/>
        <pt x="315" y="422" on="1"/>
        <pt x="315" y="266" on="0"/>
        <pt x="451" y="121" on="0"/>
        <pt x="596" y="121" on="1"/>
        <pt x="739" y="121" on="0"/>
        <pt x="877" y="266" on="0"/>
        <pt x="877" y="422" on="1"/>
        <pt x="877" y="1022" on="1"/>
        <pt x="1024" y="1022" on="1"/>
        <pt x="1024" y="430" on="1"/>
        <pt x="1024" y="217" on="0"/>
        <pt x="801" y="-16" on="0"/>
        <pt x="391" y="-16" on="0"/>
        <pt x="168" y="217" on="0"/>
      </contour>
    </TTGlyph>
    <TTGlyph name="uacute" xMin="168" yMin="-16" xMax="1024" yMax="1391">
      <contour>
        <pt x="168" y="430" on="1"/>
        <pt x="168" y="1022" on="1"/>
        <pt x="315" y="1022" on="1"/>
        <pt x="315" y="422" on="1"/>
        <pt x="315" y="266" on="0"/>
        <pt x="451" y="121" on="0"/>
        <pt x="596" y="121" on="1"/>
        <pt x="739" y="121" on="0"/>
        <pt x="877" y="266" on="0"/>
        <pt x="877" y="422" on="1"/>
        <pt x="877" y="1022" on="1"/>
        <pt x="1024" y="1022" on="1"/>
        <pt x="1024" y="430" on="1"/>
        <pt x="1024" y="217" on="0"/>
        <pt x="801" y="-16" on="0"/>
        <pt x="391" y="-16" on="0"/>
        <pt x="168" y="217" on="0"/>
      </contour>
      <contour>
        <pt x="541" y="1155" on="1"/>
        <pt x="657" y="1391" on="1"/>
        <pt x="807" y="1391" on="1"/>
        <pt x="637" y="1155" on="1"/>
      </contour>
    </TTGlyph>
    <TTGlyph name="ucircumflex" xMin="168" yMin="-16" xMax="1024" yMax="1401">
      <contour>
        <pt x="168" y="430" on="1"/>
        <pt x="168" y="1022" on="1"/>
        <pt x="315" y="1022" on="1"/>
        <pt x="315" y="422" on="1"/>
        <pt x="315" y="266" on="0"/>
        <pt x="451" y="121" on="0"/>
        <pt x="596" y="121" on="1"/>
        <pt x="739" y="121" on="0"/>
        <pt x="877" y="266" on="0"/>
        <pt x="877" y="422" on="1"/>
        <pt x="877" y="1022" on="1"/>
        <pt x="1024" y="1022" on="1"/>
        <pt x="1024" y="430" on="1"/>
        <pt x="1024" y="217" on="0"/>
        <pt x="801" y="-16" on="0"/>
        <pt x="391" y="-16" on="0"/>
        <pt x="168" y="217" on="0"/>
      </contour>
      <contour>
        <pt x="389" y="1155" on="1"/>
        <pt x="553" y="1401" on="1"/>
        <pt x="637" y="1401" on="1"/>
        <pt x="803" y="1155" on="1"/>
        <pt x="688" y="1155" on="1"/>
        <pt x="596" y="1298" on="1"/>
        <pt x="504" y="1155" on="1"/>
      </contour>
    </TTGlyph>
    <TTGlyph name="udieresis" xMin="168" yMin="-16" xMax="1024" yMax="1317">
      <contour>
        <pt x="168" y="430" on="1"/>
        <pt x="168" y="1022" on="1"/>
        <pt x="315" y="1022" on="1"/>
        <pt x="315" y="422" on="1"/>
        <pt x="315" y="266" on="0"/>
        <pt x="451" y="121" on="0"/>
        <pt x="596" y="121" on="1"/>
        <pt x="739" y="121" on="0"/>
        <pt x="877" y="266" on="0"/>
        <pt x="877" y="422" on="1"/>
        <pt x="877" y="1022" on="1"/>
        <pt x="1024" y="1022" on="1"/>
        <pt x="1024" y="430" on="1"/>
        <pt x="1024" y="217" on="0"/>
        <pt x="801" y="-16" on="0"/>
        <pt x="391" y="-16" on="0"/>
        <pt x="168" y="217" on="0"/>
      </contour>
      <contour>
        <pt x="362" y="1155" on="1"/>
        <pt x="362" y="1317" on="1"/>
        <pt x="526" y="1317" on="1"/>
        <pt x="526" y="1155" on="1"/>
      </contour>
      <contour>
        <pt x="666" y="1155" on="1"/>
        <pt x="666" y="1317" on="1"/>
        <pt x="829" y="1317" on="1"/>
        <pt x="829" y="1155" on="1"/>
      </contour>
    </TTGlyph>
    <TTGlyph name="ugrave" xMin="168" yMin="-16" xMax="1024" yMax="1391">
      <contour>
        <pt x="168" y="430" on="1"/>
        <pt x="168" y="1022" on="1"/>
        <pt x="315" y="1022" on="1"/>
        <pt x="315" y="422" on="1"/>
        <pt x="315" y="266" on="0"/>
        <pt x="451" y="121" on="0"/>
        <pt x="596" y="121" on="1"/>
        <pt x="739" y="121" on="0"/>
        <pt x="877" y="266" on="0"/>
        <pt x="877" y="422" on="1"/>
        <pt x="877" y="1022" on="1"/>
        <pt x="1024" y="1022" on="1"/>
        <pt x="1024" y="430" on="1"/>
        <pt x="1024" y="217" on="0"/>
        <pt x="801" y="-16" on="0"/>
        <pt x="391" y="-16" on="0"/>
        <pt x="168" y="217" on="0"/>
      </contour>
      <contour>
        <pt x="383" y="1391" on="1"/>
        <pt x="535" y="1391" on="1"/>
        <pt x="651" y="1155" on="1"/>
        <pt x="553" y="1155" on="1"/>
      </contour>
    </TTGlyph>
    <TTGlyph name="underscore" xMin="0" yMin="-139" xMax="1118" yMax="-49">
      <contour>
        <pt x="0" y="-49" on="1"/>
        <pt x="1118" y="-49" on="1"/>
        <pt x="1118" y="-139" on="1"/>
        <pt x="0" y="-139" on="1"/>
      </contour>
    </TTGlyph>
    <TTGlyph name="uni00B2" xMin="109" yMin="948" xMax="571" yMax="1692">
      <contour>
        <pt x="109" y="948" on="1"/>
        <pt x="109" y="1018" on="1"/>
        <pt x="242" y="1116" on="0"/>
        <pt x="481" y="1380" on="0"/>
        <pt x="481" y="1487" on="1"/>
        <pt x="481" y="1612" on="0"/>
        <pt x="309" y="1612" on="1"/>
        <pt x="203" y="1612" on="0"/>
        <pt x="117" y="1550" on="1"/>
        <pt x="117" y="1636" on="1"/>
        <pt x="207" y="1691" on="0"/>
        <pt x="315" y="1692" on="1"/>
        <pt x="440" y="1692" on="0"/>
        <pt x="561" y="1571" on="0"/>
        <pt x="561" y="1486" on="1"/>
        <pt x="561" y="1289" on="0"/>
        <pt x="240" y="1028" on="1"/>
        <pt x="571" y="1028" on="1"/>
        <pt x="571" y="948" on="1"/>
      </contour>
    </TTGlyph>
    <TTGlyph name="uni00B3" xMin="109" yMin="940" xMax="575" yMax="1692">
      <contour>
        <pt x="109" y="985" on="1"/>
        <pt x="109" y="1067" on="1"/>
        <pt x="199" y="1018" on="0"/>
        <pt x="295" y="1018" on="1"/>
        <pt x="498" y="1018" on="0"/>
        <pt x="498" y="1300" on="0"/>
        <pt x="291" y="1300" on="1"/>
        <pt x="211" y="1300" on="1"/>
        <pt x="211" y="1376" on="1"/>
        <pt x="295" y="1376" on="1"/>
        <pt x="459" y="1376" on="0"/>
        <pt x="459" y="1495" on="1"/>
        <pt x="459" y="1612" on="0"/>
        <pt x="285" y="1612" on="1"/>
        <pt x="197" y="1612" on="0"/>
        <pt x="127" y="1575" on="1"/>
        <pt x="127" y="1655" on="1"/>
        <pt x="209" y="1692" on="0"/>
        <pt x="295" y="1692" on="1"/>
        <pt x="420" y="1692" on="0"/>
        <pt x="539" y="1575" on="0"/>
        <pt x="539" y="1495" on="1"/>
        <pt x="539" y="1446" on="0"/>
        <pt x="492" y="1372" on="0"/>
        <pt x="467" y="1360" on="1"/>
        <pt x="444" y="1346" on="1"/>
        <pt x="450" y="1344" on="0"/>
        <pt x="467" y="1335" on="0"/>
        <pt x="512" y="1303" on="0"/>
        <pt x="547" y="1262" on="0"/>
        <pt x="575" y="1194" on="0"/>
        <pt x="575" y="1157" on="1"/>
        <pt x="575" y="1067" on="0"/>
        <pt x="442" y="940" on="0"/>
        <pt x="305" y="940" on="1"/>
        <pt x="203" y="940" on="0"/>
      </contour>
    </TTGlyph>
    <TTGlyph name="uni00B5" xMin="203" yMin="-430" xMax="1038" yMax="1022">
      <contour>
        <pt x="203" y="-430" on="1"/>
        <pt x="203" y="1022" on="1"/>
        <pt x="350" y="1022" on="1"/>
        <pt x="350" y="358" on="1"/>
        <pt x="350" y="313" on="0"/>
        <pt x="369" y="246" on="0"/>
        <pt x="420" y="172" on="0"/>
        <pt x="535" y="131" on="0"/>
        <pt x="623" y="131" on="1"/>
        <pt x="758" y="131" on="0"/>
        <pt x="891" y="170" on="1"/>
        <pt x="891" y="1022" on="1"/>
        <pt x="1038" y="1022" on="1"/>
        <pt x="1038" y="84" on="1"/>
        <pt x="845" y="-16" on="0"/>
        <pt x="608" y="-16" on="1"/>
        <pt x="456" y="-14" on="0"/>
        <pt x="350" y="66" on="1"/>
        <pt x="350" y="-430" on="1"/>
      </contour>
    </TTGlyph>
    <TTGlyph name="uni00B9" xMin="109" yMin="948" xMax="334" yMax="1683">
      <contour>
        <pt x="109" y="1503" on="1"/>
        <pt x="109" y="1597" on="1"/>
        <pt x="244" y="1683" on="1"/>
        <pt x="334" y="1683" on="1"/>
        <pt x="334" y="948" on="1"/>
        <pt x="256" y="948" on="1"/>
        <pt x="256" y="1599" on="1"/>
      </contour>
    </TTGlyph>
    <TTGlyph name="uniE000" xMin="0" yMin="0" xMax="1020" yMax="1020">
      <contour>
        <pt x="0" y="1020" on="1"/>
        <pt x="1020" y="1020" on="1"/>
        <pt x="1020" y="0" on="1"/>
        <pt x="0" y="0" on="1"/>
      </contour>
    </TTGlyph>
    <TTGlyph name="uniFB01" xMin="84" yMin="0" xMax="1049" yMax="1452">
      <contour>
        <pt x="84" y="887" on="1"/>
        <pt x="84" y="1024" on="1"/>
        <pt x="260" y="1024" on="1"/>
        <pt x="260" y="1077" on="1"/>
        <pt x="260" y="1183" on="0"/>
        <pt x="317" y="1335" on="0"/>
        <pt x="387" y="1407" on="0"/>
        <pt x="496" y="1448" on="0"/>
        <pt x="551" y="1452" on="0"/>
        <pt x="590" y="1452" on="1"/>
        <pt x="643" y="1452" on="0"/>
        <pt x="690" y="1442" on="1"/>
        <pt x="690" y="1309" on="1"/>
        <pt x="649" y="1317" on="0"/>
        <pt x="616" y="1317" on="1"/>
        <pt x="577" y="1317" on="0"/>
        <pt x="537" y="1313" on="0"/>
        <pt x="469" y="1288" on="0"/>
        <pt x="432" y="1243" on="0"/>
        <pt x="403" y="1147" on="0"/>
        <pt x="403" y="1079" on="1"/>
        <pt x="403" y="1024" on="1"/>
        <pt x="690" y="1024" on="1"/>
        <pt x="690" y="887" on="1"/>
        <pt x="403" y="887" on="1"/>
        <pt x="403" y="0" on="1"/>
        <pt x="260" y="0" on="1"/>
        <pt x="260" y="887" on="1"/>
      </contour>
      <contour>
        <pt x="885" y="1204" on="1"/>
        <pt x="885" y="1366" on="1"/>
        <pt x="1049" y="1366" on="1"/>
        <pt x="1049" y="1204" on="1"/>
      </contour>
      <contour>
        <pt x="893" y="0" on="1"/>
        <pt x="1040" y="0" on="1"/>
        <pt x="1040" y="1022" on="1"/>
        <pt x="893" y="1022" on="1"/>
      </contour>
    </TTGlyph>
    <TTGlyph name="uniFB02" xMin="84" yMin="0" xMax="1040" yMax="1452">
      <contour>
        <pt x="84" y="887" on="1"/>
        <pt x="84" y="1024" on="1"/>
        <pt x="260" y="1024" on="1"/>
        <pt x="260" y="1077" on="1"/>
        <pt x="260" y="1183" on="0"/>
        <pt x="317" y="1335" on="0"/>
        <pt x="387" y="1407" on="0"/>
        <pt x="496" y="1448" on="0"/>
        <pt x="551" y="1452" on="0"/>
        <pt x="590" y="1452" on="1"/>
        <pt x="643" y="1452" on="0"/>
        <pt x="690" y="1442" on="1"/>
        <pt x="690" y="1309" on="1"/>
        <pt x="649" y="1317" on="0"/>
        <pt x="616" y="1317" on="1"/>
        <pt x="577" y="1317" on="0"/>
        <pt x="537" y="1313" on="0"/>
        <pt x="469" y="1288" on="0"/>
        <pt x="432" y="1243" on="0"/>
        <pt x="403" y="1147" on="0"/>
        <pt x="403" y="1079" on="1"/>
        <pt x="403" y="1024" on="1"/>
        <pt x="690" y="1024" on="1"/>
        <pt x="690" y="887" on="1"/>
        <pt x="403" y="887" on="1"/>
        <pt x="403" y="0" on="1"/>
        <pt x="260" y="0" on="1"/>
        <pt x="260" y="887" on="1"/>
      </contour>
      <contour>
        <pt x="893" y="0" on="1"/>
        <pt x="1040" y="0" on="1"/>
        <pt x="1040" y="1411" on="1"/>
        <pt x="893" y="1411" on="1"/>
      </contour>
    </TTGlyph>
    <TTGlyph name="uniFB03" xMin="82" yMin="0" xMax="1706" yMax="1452">
      <component glyphName="i" x="1350" y="0" flags="0x1004"/>
      <component glyphName="f" x="675" y="0" flags="0x1004"/>
      <component glyphName="f" x="0" y="0" flags="0x1004"/>
    </TTGlyph>
    <TTGlyph name="uniFB04" xMin="82" yMin="0" xMax="1704" yMax="1452">
      <component glyphName="l" x="1350" y="0" flags="0x1004"/>
      <component glyphName="f" x="675" y="0" flags="0x1004"/>
      <component glyphName="f" x="0" y="0" flags="0x1004"/>
    </TTGlyph>
    <TTGlyph name="v" xMin="66" yMin="0" xMax="999" yMax="1022">
      <contour>
        <pt x="66" y="1022" on="1"/>
        <pt x="223" y="1022" on="1"/>
        <pt x="532" y="184" on="1"/>
        <pt x="842" y="1022" on="1"/>
        <pt x="999" y="1022" on="1"/>
        <pt x="606" y="0" on="1"/>
        <pt x="457" y="0" on="1"/>
      </contour>
    </TTGlyph>
</ttFont>
